<?xml version="1.0" encoding="UTF-8"?>
<!DOCTYPE svg PUBLIC "-//W3C//DTD SVG 1.1//EN" "http://www.w3.org/Graphics/SVG/1.1/DTD/svg11.dtd">
<!-- Creator: CorelDRAW -->
<svg xmlns="http://www.w3.org/2000/svg" xml:space="preserve" width="1710px" height="900px" style="shape-rendering:geometricPrecision; text-rendering:geometricPrecision; image-rendering:optimizeQuality; fill-rule:evenodd; clip-rule:evenodd"
viewBox="0 0 1710 900"
 xmlns:xlink="http://www.w3.org/1999/xlink">
 <defs>
  <style type="text/css">
   <![CDATA[
    .fil2 {fill:#002868}
    .fil0 {fill:#BF0A30}
    .fil1 {fill:white}
   ]]>
  </style>
 </defs>
 <g id="Layer_x0020_1">
  <metadata id="CorelCorpID_0Corel-Layer"/>
  <polygon class="fil0" points="0.0011811,0 1710,0 1710,899.999 0.0011811,899.999 "/>
  <polygon class="fil1" points="-0.56811,761.538 1709.43,761.538 1709.43,830.769 -0.56811,830.769 "/>
  <polygon class="fil1" points="-0.56811,69.2315 1709.43,69.2315 1709.43,138.462 -0.56811,138.462 "/>
  <polygon class="fil1" points="-0.56811,207.692 1709.43,207.692 1709.43,276.924 -0.56811,276.924 "/>
  <polygon class="fil1" points="-0.56811,346.154 1709.43,346.154 1709.43,415.384 -0.56811,415.384 "/>
  <polygon class="fil1" points="-0.56811,484.616 1709.43,484.616 1709.43,553.846 -0.56811,553.846 "/>
  <polygon class="fil1" points="-0.56811,623.076 1709.43,623.076 1709.43,692.308 -0.56811,692.308 "/>
  <polygon class="fil2" points="0.284646,484.616 684.058,484.616 684.058,0.0011811 0.284646,0.0011811 "/>
  <g id="_293566336">
   <polygon id="_293566528" class="fil1" points="621.672,39.4937 627.935,58.7717 648.206,58.7717 631.808,70.6866 638.07,89.9693 621.672,78.052 605.275,89.9693 611.537,70.6866 595.137,58.7717 615.407,58.7717 "/>
   <polygon id="_293562088" class="fil1" points="541.814,39.4937 548.079,58.7717 568.349,58.7717 551.952,70.6866 558.214,89.9693 541.814,78.052 525.416,89.9693 531.678,70.6866 515.281,58.7717 535.551,58.7717 "/>
   <polygon id="_293565784" class="fil1" points="461.957,39.4937 468.222,58.7717 488.492,58.7717 472.093,70.6866 478.355,89.9693 461.957,78.052 445.559,89.9693 451.821,70.6866 435.424,58.7717 455.694,58.7717 "/>
   <polygon id="_293566432" class="fil1" points="382.101,39.4937 388.364,58.7717 408.634,58.7717 392.236,70.6866 398.498,89.9693 382.101,78.052 365.701,89.9693 371.963,70.6866 355.565,58.7717 375.835,58.7717 "/>
   <polygon id="_293561032" class="fil1" points="302.242,39.4937 308.507,58.7717 328.778,58.7717 312.379,70.6866 318.641,89.9693 302.242,78.052 285.844,89.9693 292.107,70.6866 275.708,58.7717 295.978,58.7717 "/>
   <polygon id="_293563120" class="fil1" points="222.385,39.4937 228.648,58.7717 248.919,58.7717 232.521,70.6866 238.783,89.9693 222.385,78.052 205.988,89.9693 212.25,70.6866 195.85,58.7717 216.12,58.7717 "/>
   <polygon id="_293563216" class="fil1" points="142.528,39.4937 148.792,58.7717 169.062,58.7717 152.665,70.6866 158.927,89.9693 142.528,78.052 126.129,89.9693 132.391,70.6866 115.994,58.7717 136.264,58.7717 "/>
   <polygon id="_293562904" class="fil1" points="62.6705,39.4937 68.935,58.7717 89.2051,58.7717 72.8055,70.6866 79.0677,89.9693 62.6705,78.052 46.272,89.9693 52.5343,70.6866 36.137,58.7717 56.4071,58.7717 "/>
   <polygon id="_295835624" class="fil1" points="541.814,128.282 548.079,147.56 568.349,147.56 551.952,159.474 558.214,178.757 541.814,166.839 525.416,178.757 531.678,159.474 515.281,147.56 535.551,147.56 "/>
   <polygon id="_295823600" class="fil1" points="461.957,128.282 468.222,147.56 488.492,147.56 472.093,159.474 478.355,178.757 461.957,166.839 445.559,178.757 451.821,159.474 435.424,147.56 455.694,147.56 "/>
   <polygon id="_295823672" class="fil1" points="382.101,128.282 388.364,147.56 408.634,147.56 392.236,159.474 398.498,178.757 382.101,166.839 365.701,178.757 371.963,159.474 355.565,147.56 375.835,147.56 "/>
   <polygon id="_295823744" class="fil1" points="302.242,128.282 308.507,147.56 328.778,147.56 312.379,159.474 318.641,178.757 302.242,166.839 285.844,178.757 292.107,159.474 275.708,147.56 295.978,147.56 "/>
   <polygon id="_295823816" class="fil1" points="222.385,128.282 228.648,147.56 248.919,147.56 232.521,159.474 238.783,178.757 222.385,166.839 205.988,178.757 212.25,159.474 195.85,147.56 216.12,147.56 "/>
   <polygon id="_295823888" class="fil1" points="142.528,128.282 148.792,147.56 169.062,147.56 152.665,159.474 158.927,178.757 142.528,166.839 126.129,178.757 132.391,159.474 115.994,147.56 136.264,147.56 "/>
   <polygon id="_295822664" class="fil1" points="621.672,217.071 627.935,236.349 648.206,236.349 631.808,248.264 638.07,267.546 621.672,255.628 605.275,267.546 611.537,248.264 595.137,236.349 615.407,236.349 "/>
   <polygon id="_255587896" class="fil1" points="541.814,217.071 548.079,236.349 568.349,236.349 551.952,248.264 558.214,267.546 541.814,255.628 525.416,267.546 531.678,248.264 515.281,236.349 535.551,236.349 "/>
   <polygon id="_256181864" class="fil1" points="461.957,217.071 468.222,236.349 488.492,236.349 472.093,248.264 478.355,267.546 461.957,255.628 445.559,267.546 451.821,248.264 435.424,236.349 455.694,236.349 "/>
   <polygon id="_256181936" class="fil1" points="382.101,217.071 388.364,236.349 408.634,236.349 392.236,248.264 398.498,267.546 382.101,255.628 365.701,267.546 371.963,248.264 355.565,236.349 375.835,236.349 "/>
   <polygon id="_256182008" class="fil1" points="302.242,217.071 308.507,236.349 328.778,236.349 312.379,248.264 318.641,267.546 302.242,255.628 285.844,267.546 292.107,248.264 275.708,236.349 295.978,236.349 "/>
   <polygon id="_295315536" class="fil1" points="222.385,217.071 228.648,236.349 248.919,236.349 232.521,248.264 238.783,267.546 222.385,255.628 205.988,267.546 212.25,248.264 195.85,236.349 216.12,236.349 "/>
   <polygon id="_293563168" class="fil1" points="142.528,217.071 148.792,236.349 169.062,236.349 152.665,248.264 158.927,267.546 142.528,255.628 126.129,267.546 132.391,248.264 115.994,236.349 136.264,236.349 "/>
   <polygon id="_295822256" class="fil1" points="62.6705,217.071 68.935,236.349 89.2051,236.349 72.8055,248.264 79.0677,267.546 62.6705,255.628 46.272,267.546 52.5343,248.264 36.137,236.349 56.4071,236.349 "/>
   <polygon id="_295822112" class="fil1" points="541.814,305.859 548.079,325.142 568.349,325.142 551.952,337.051 558.214,356.335 541.814,344.418 525.416,356.335 531.678,337.051 515.281,325.142 535.551,325.142 "/>
   <polygon id="_295822088" class="fil1" points="461.957,305.859 468.222,325.142 488.492,325.142 472.093,337.051 478.355,356.335 461.957,344.418 445.559,356.335 451.821,337.051 435.424,325.142 455.694,325.142 "/>
   <polygon id="_295822496" class="fil1" points="382.101,305.859 388.364,325.142 408.634,325.142 392.236,337.051 398.498,356.335 382.101,344.418 365.701,356.335 371.963,337.051 355.565,325.142 375.835,325.142 "/>
   <polygon id="_295822280" class="fil1" points="302.242,305.859 308.507,325.142 328.778,325.142 312.379,337.051 318.641,356.335 302.242,344.418 285.844,356.335 292.107,337.051 275.708,325.142 295.978,325.142 "/>
   <polygon id="_295823960" class="fil1" points="222.385,305.859 228.648,325.142 248.919,325.142 232.521,337.051 238.783,356.335 222.385,344.418 205.988,356.335 212.25,337.051 195.85,325.142 216.12,325.142 "/>
   <polygon id="_293568616" class="fil1" points="142.528,305.859 148.792,325.142 169.062,325.142 152.665,337.051 158.927,356.335 142.528,344.418 126.129,356.335 132.391,337.051 115.994,325.142 136.264,325.142 "/>
   <polygon id="_293559832" class="fil1" points="621.672,394.646 627.935,413.926 648.206,413.926 631.808,425.839 638.07,445.123 621.672,433.204 605.275,445.123 611.537,425.839 595.137,413.926 615.407,413.926 "/>
   <polygon id="_293568592" class="fil1" points="541.814,394.646 548.079,413.926 568.349,413.926 551.952,425.839 558.214,445.123 541.814,433.204 525.416,445.123 531.678,425.839 515.281,413.926 535.551,413.926 "/>
   <polygon id="_293568568" class="fil1" points="461.957,394.646 468.222,413.926 488.492,413.926 472.093,425.839 478.355,445.123 461.957,433.204 445.559,445.123 451.821,425.839 435.424,413.926 455.694,413.926 "/>
   <polygon id="_293568496" class="fil1" points="382.101,394.646 388.364,413.926 408.634,413.926 392.236,425.839 398.498,445.123 382.101,433.204 365.701,445.123 371.963,425.839 355.565,413.926 375.835,413.926 "/>
   <polygon id="_293568544" class="fil1" points="302.242,394.646 308.507,413.926 328.778,413.926 312.379,425.839 318.641,445.123 302.242,433.204 285.844,445.123 292.107,425.839 275.708,413.926 295.978,413.926 "/>
   <polygon id="_293568520" class="fil1" points="222.385,394.646 228.648,413.926 248.919,413.926 232.521,425.839 238.783,445.123 222.385,433.204 205.988,445.123 212.25,425.839 195.85,413.926 216.12,413.926 "/>
   <polygon id="_293567464" class="fil1" points="142.528,394.646 148.792,413.926 169.062,413.926 152.665,425.839 158.927,445.123 142.528,433.204 126.129,445.123 132.391,425.839 115.994,413.926 136.264,413.926 "/>
   <polygon id="_293567392" class="fil1" points="62.6705,394.646 68.935,413.926 89.2051,413.926 72.8055,425.839 79.0677,445.123 62.6705,433.204 46.272,445.123 52.5343,425.839 36.137,413.926 56.4071,413.926 "/>
  </g>
 </g>
</svg>
