<?xml version="1.0" encoding="UTF-8"?>
<!DOCTYPE svg PUBLIC "-//W3C//DTD SVG 1.1//EN" "http://www.w3.org/Graphics/SVG/1.1/DTD/svg11.dtd">
<!-- Creator: CorelDRAW -->
<svg xmlns="http://www.w3.org/2000/svg" xml:space="preserve" width="1710px" height="900px" style="shape-rendering:geometricPrecision; text-rendering:geometricPrecision; image-rendering:optimizeQuality; fill-rule:evenodd; clip-rule:evenodd"
viewBox="0 0 1710 900"
 xmlns:xlink="http://www.w3.org/1999/xlink">
 <defs>
  <style type="text/css">
   <![CDATA[
    .fil3 {fill:#FEFEFE}
    .fil2 {fill:#002868}
    .fil0 {fill:#BF0A30}
    .fil1 {fill:white}
   ]]>
  </style>
 </defs>
 <g id="Layer_x0020_1">
  <metadata id="CorelCorpID_0Corel-Layer"/>
  <polygon class="fil0" points="0.0011811,0 1710,0 1710,899.999 0.0011811,899.999 "/>
  <polygon class="fil1" points="-0.56811,761.538 1709.43,761.538 1709.43,830.769 -0.56811,830.769 "/>
  <polygon class="fil1" points="-0.56811,69.2315 1709.43,69.2315 1709.43,138.462 -0.56811,138.462 "/>
  <polygon class="fil1" points="-0.56811,207.692 1709.43,207.692 1709.43,276.924 -0.56811,276.924 "/>
  <polygon class="fil1" points="-0.56811,346.154 1709.43,346.154 1709.43,415.384 -0.56811,415.384 "/>
  <polygon class="fil1" points="-0.56811,484.616 1709.43,484.616 1709.43,553.846 -0.56811,553.846 "/>
  <polygon class="fil1" points="-0.56811,623.076 1709.43,623.076 1709.43,692.308 -0.56811,692.308 "/>
  <polygon class="fil2" points="0.284646,484.616 684.058,484.616 684.058,0.0011811 0.284646,0.0011811 "/>
  <polygon id="_293560120" class="fil1" points="581.744,39.4925 588.006,58.7705 608.277,58.7705 591.879,70.6854 598.141,89.9681 581.744,78.0508 565.346,89.9681 571.607,70.6854 555.208,58.7705 575.478,58.7705 "/>
  <polygon id="_293560144" class="fil1" points="501.885,39.4925 508.15,58.7705 528.42,58.7705 512.023,70.6854 518.285,89.9681 501.885,78.0508 485.487,89.9681 491.75,70.6854 475.352,58.7705 495.622,58.7705 "/>
  <polygon id="_293566216" class="fil1" points="422.028,39.4925 428.294,58.7705 448.563,58.7705 432.164,70.6854 438.426,89.9681 422.028,78.0508 405.63,89.9681 411.892,70.6854 395.496,58.7705 415.765,58.7705 "/>
  <polygon id="_293564464" class="fil1" points="342.172,39.4925 348.435,58.7705 368.705,58.7705 352.307,70.6854 358.57,89.9681 342.172,78.0508 325.772,89.9681 332.034,70.6854 315.635,58.7705 335.906,58.7705 "/>
  <polygon id="_293562856" class="fil1" points="262.313,39.4925 268.578,58.7705 288.849,58.7705 272.45,70.6854 278.712,89.9681 262.313,78.0508 245.915,89.9681 252.178,70.6854 235.779,58.7705 256.049,58.7705 "/>
  <polygon id="_293568424" class="fil1" points="182.456,39.4925 188.719,58.7705 208.99,58.7705 192.592,70.6854 198.854,89.9681 182.456,78.0508 166.059,89.9681 172.322,70.6854 155.921,58.7705 176.191,58.7705 "/>
  <polygon id="_293566480" class="fil1" points="102.599,39.4925 108.863,58.7705 129.133,58.7705 112.736,70.6854 118.998,89.9681 102.599,78.0508 86.2004,89.9681 92.4626,70.6854 76.0654,58.7705 96.3354,58.7705 "/>
  <polygon id="_293560120_0" class="fil1" points="621.672,305.859 627.934,325.137 648.206,325.137 631.807,337.052 638.069,356.335 621.672,344.418 605.275,356.335 611.536,337.052 595.136,325.137 615.406,325.137 "/>
  <polygon id="_293560144_1" class="fil1" points="541.813,305.859 548.079,325.137 568.349,325.137 551.952,337.052 558.214,356.335 541.813,344.418 525.416,356.335 531.678,337.052 515.281,325.137 535.551,325.137 "/>
  <polygon id="_293566216_2" class="fil1" points="461.956,305.859 468.222,325.137 488.491,325.137 472.093,337.052 478.355,356.335 461.956,344.418 445.558,356.335 451.82,337.052 435.424,325.137 455.693,325.137 "/>
  <polygon id="_293564464_3" class="fil1" points="382.101,305.859 388.363,325.137 408.633,325.137 392.236,337.052 398.498,356.335 382.101,344.418 365.7,356.335 371.962,337.052 355.564,325.137 375.834,325.137 "/>
  <polygon id="_293562856_4" class="fil1" points="302.242,305.859 308.506,325.137 328.778,325.137 312.378,337.052 318.64,356.335 302.242,344.418 285.843,356.335 292.107,337.052 275.707,325.137 295.977,325.137 "/>
  <polygon id="_293568424_5" class="fil1" points="222.384,305.859 228.647,325.137 248.919,325.137 232.52,337.052 238.782,356.335 222.384,344.418 205.988,356.335 212.25,337.052 195.849,325.137 216.119,325.137 "/>
  <polygon id="_293566480_6" class="fil1" points="142.527,305.859 148.792,325.137 169.062,325.137 152.665,337.052 158.927,356.335 142.527,344.418 126.129,356.335 132.391,337.052 115.994,325.137 136.264,325.137 "/>
  <polygon id="_293560936" class="fil1" points="62.6693,305.859 68.9339,325.137 89.2039,325.137 72.8055,337.052 79.0665,356.335 62.6693,344.418 46.2709,356.335 52.5343,337.052 36.1358,325.137 56.4059,325.137 "/>
  <polygon id="_293560120_7" class="fil3" points="621.672,217.07 627.934,236.348 648.206,236.348 631.807,248.263 638.069,267.546 621.672,255.628 605.275,267.546 611.536,248.263 595.136,236.348 615.406,236.348 "/>
  <polygon id="_293560144_8" class="fil3" points="541.813,217.07 548.079,236.348 568.349,236.348 551.952,248.263 558.214,267.546 541.813,255.628 525.416,267.546 531.678,248.263 515.281,236.348 535.551,236.348 "/>
  <polygon id="_293566216_9" class="fil3" points="461.956,217.07 468.222,236.348 488.491,236.348 472.093,248.263 478.355,267.546 461.956,255.628 445.558,267.546 451.82,248.263 435.424,236.348 455.693,236.348 "/>
  <polygon id="_293564464_10" class="fil3" points="382.101,217.07 388.363,236.348 408.633,236.348 392.236,248.263 398.498,267.546 382.101,255.628 365.7,267.546 371.962,248.263 355.564,236.348 375.834,236.348 "/>
  <polygon id="_293562856_11" class="fil3" points="302.242,217.07 308.506,236.348 328.778,236.348 312.378,248.263 318.64,267.546 302.242,255.628 285.843,267.546 292.107,248.263 275.707,236.348 295.977,236.348 "/>
  <polygon id="_293568424_12" class="fil3" points="222.384,217.07 228.647,236.348 248.919,236.348 232.52,248.263 238.782,267.546 222.384,255.628 205.988,267.546 212.25,248.263 195.849,236.348 216.119,236.348 "/>
  <polygon id="_293566480_13" class="fil3" points="142.527,217.07 148.792,236.348 169.062,236.348 152.665,248.263 158.927,267.546 142.527,255.628 126.129,267.546 132.391,248.263 115.994,236.348 136.264,236.348 "/>
  <polygon id="_293560936_14" class="fil3" points="62.6693,217.07 68.9339,236.348 89.2039,236.348 72.8055,248.263 79.0665,267.546 62.6693,255.628 46.2709,267.546 52.5343,248.263 36.1358,236.348 56.4059,236.348 "/>
  <polygon id="_293560120_15" class="fil1" points="621.672,128.282 627.934,147.56 648.206,147.56 631.807,159.475 638.069,178.757 621.672,166.84 605.275,178.757 611.536,159.475 595.136,147.56 615.406,147.56 "/>
  <polygon id="_293560144_16" class="fil1" points="541.813,128.282 548.079,147.56 568.349,147.56 551.952,159.475 558.214,178.757 541.813,166.84 525.416,178.757 531.678,159.475 515.281,147.56 535.551,147.56 "/>
  <polygon id="_293566216_17" class="fil1" points="461.956,128.282 468.222,147.56 488.491,147.56 472.093,159.475 478.355,178.757 461.956,166.84 445.558,178.757 451.82,159.475 435.424,147.56 455.693,147.56 "/>
  <polygon id="_293564464_18" class="fil1" points="382.101,128.282 388.363,147.56 408.633,147.56 392.236,159.475 398.498,178.757 382.101,166.84 365.7,178.757 371.962,159.475 355.564,147.56 375.834,147.56 "/>
  <polygon id="_293562856_19" class="fil1" points="302.242,128.282 308.506,147.56 328.778,147.56 312.378,159.475 318.64,178.757 302.242,166.84 285.843,178.757 292.107,159.475 275.707,147.56 295.977,147.56 "/>
  <polygon id="_293568424_20" class="fil1" points="222.384,128.282 228.647,147.56 248.919,147.56 232.52,159.475 238.782,178.757 222.384,166.84 205.988,178.757 212.25,159.475 195.849,147.56 216.119,147.56 "/>
  <polygon id="_293566480_21" class="fil1" points="142.527,128.282 148.792,147.56 169.062,147.56 152.665,159.475 158.927,178.757 142.527,166.84 126.129,178.757 132.391,159.475 115.994,147.56 136.264,147.56 "/>
  <polygon id="_293560936_22" class="fil1" points="62.6693,128.282 68.9339,147.56 89.2039,147.56 72.8055,159.475 79.0665,178.757 62.6693,166.84 46.2709,178.757 52.5343,159.475 36.1358,147.56 56.4059,147.56 "/>
  <polygon id="_96273624" class="fil1" points="581.744,394.645 588.006,413.926 608.277,413.926 591.879,425.838 598.141,445.122 581.744,433.204 565.346,445.122 571.607,425.838 555.208,413.926 575.478,413.926 "/>
  <polygon id="_96273672" class="fil1" points="501.885,394.645 508.15,413.926 528.42,413.926 512.023,425.838 518.285,445.122 501.885,433.204 485.487,445.122 491.75,425.838 475.352,413.926 495.622,413.926 "/>
  <polygon id="_253570544" class="fil1" points="422.028,394.645 428.294,413.926 448.563,413.926 432.164,425.838 438.426,445.122 422.028,433.204 405.63,445.122 411.892,425.838 395.496,413.926 415.765,413.926 "/>
  <polygon id="_253570568" class="fil1" points="342.172,394.645 348.435,413.926 368.705,413.926 352.307,425.838 358.57,445.122 342.172,433.204 325.772,445.122 332.034,425.838 315.635,413.926 335.906,413.926 "/>
  <polygon id="_301857664" class="fil1" points="262.313,394.645 268.578,413.926 288.849,413.926 272.45,425.838 278.712,445.122 262.313,433.204 245.915,445.122 252.178,425.838 235.779,413.926 256.049,413.926 "/>
  <polygon id="_295315704" class="fil1" points="182.456,394.645 188.719,413.926 208.99,413.926 192.592,425.838 198.854,445.122 182.456,433.204 166.059,445.122 172.322,425.838 155.921,413.926 176.191,413.926 "/>
  <polygon id="_302831920" class="fil1" points="102.599,394.645 108.863,413.926 129.133,413.926 112.736,425.838 118.998,445.122 102.599,433.204 86.2004,445.122 92.4626,425.838 76.0654,413.926 96.3354,413.926 "/>
 </g>
</svg>
