<?xml version="1.0" encoding="UTF-8"?>
<!DOCTYPE svg PUBLIC "-//W3C//DTD SVG 1.1//EN" "http://www.w3.org/Graphics/SVG/1.1/DTD/svg11.dtd">
<!-- Creator: CorelDRAW -->
<svg xmlns="http://www.w3.org/2000/svg" xml:space="preserve" width="1710px" height="900px" style="shape-rendering:geometricPrecision; text-rendering:geometricPrecision; image-rendering:optimizeQuality; fill-rule:evenodd; clip-rule:evenodd"
viewBox="0 0 1710 900"
 xmlns:xlink="http://www.w3.org/1999/xlink">
 <defs>
  <style type="text/css">
   <![CDATA[
    .fil2 {fill:#002868}
    .fil0 {fill:#BF0A30}
    .fil1 {fill:white}
   ]]>
  </style>
 </defs>
 <g id="Layer_x0020_1">
  <metadata id="CorelCorpID_0Corel-Layer"/>
  <polygon class="fil0" points="0.0011811,0 1710,0 1710,899.999 0.0011811,899.999 "/>
  <polygon class="fil1" points="-0.56811,761.538 1709.43,761.538 1709.43,830.769 -0.56811,830.769 "/>
  <polygon class="fil1" points="-0.56811,69.2315 1709.43,69.2315 1709.43,138.462 -0.56811,138.462 "/>
  <polygon class="fil1" points="-0.56811,207.692 1709.43,207.692 1709.43,276.924 -0.56811,276.924 "/>
  <polygon class="fil1" points="-0.56811,346.154 1709.43,346.154 1709.43,415.384 -0.56811,415.384 "/>
  <polygon class="fil1" points="-0.56811,484.616 1709.43,484.616 1709.43,553.846 -0.56811,553.846 "/>
  <polygon class="fil1" points="-0.56811,623.076 1709.43,623.076 1709.43,692.308 -0.56811,692.308 "/>
  <polygon class="fil2" points="0.284646,484.616 684.058,484.616 684.058,0.0011811 0.284646,0.0011811 "/>
  <g id="_293564416">
   <polygon id="_295827824" class="fil1" points="612.673,270.26 618.937,289.539 639.207,289.539 622.808,301.453 629.07,320.737 612.673,308.819 596.274,320.737 602.536,301.453 586.137,289.539 606.407,289.539 "/>
   <polygon id="_295827752" class="fil1" points="522.506,270.26 528.77,289.539 549.039,289.539 532.641,301.453 538.903,320.737 522.506,308.819 506.107,320.737 512.369,301.453 495.972,289.539 516.24,289.539 "/>
   <polygon id="_295827680" class="fil1" points="432.339,270.26 438.602,289.539 458.872,289.539 442.473,301.453 448.736,320.737 432.339,308.819 415.939,320.737 422.202,301.453 405.804,289.539 426.074,289.539 "/>
   <polygon id="_295827608" class="fil1" points="342.171,270.26 348.436,289.539 368.705,289.539 352.307,301.453 358.57,320.737 342.171,308.819 325.773,320.737 332.035,301.453 315.638,289.539 335.907,289.539 "/>
   <polygon id="_295827536" class="fil1" points="252.004,270.26 258.268,289.539 278.538,289.539 262.141,301.453 268.403,320.737 252.004,308.819 235.606,320.737 241.87,301.453 225.47,289.539 245.74,289.539 "/>
   <polygon id="_295827464" class="fil1" points="161.837,270.26 168.103,289.539 188.37,289.539 171.973,301.453 178.235,320.737 161.837,308.819 145.44,320.737 151.702,301.453 135.304,289.539 155.572,289.539 "/>
   <polygon id="_295827392" class="fil1" points="71.6693,270.26 77.935,289.539 98.2051,289.539 81.8067,301.453 88.0689,320.737 71.6693,308.819 55.272,320.737 61.5343,301.453 45.1358,289.539 65.4059,289.539 "/>
   <polygon id="_293563168" class="fil1" points="612.673,376.646 618.937,395.924 639.207,395.924 622.808,407.838 629.07,427.121 612.673,415.204 596.274,427.121 602.536,407.838 586.137,395.924 606.407,395.924 "/>
   <polygon id="_295822256" class="fil1" points="522.506,376.646 528.77,395.924 549.039,395.924 532.641,407.838 538.903,427.121 522.506,415.204 506.107,427.121 512.369,407.838 495.972,395.924 516.24,395.924 "/>
   <polygon id="_295822112" class="fil1" points="432.339,376.646 438.602,395.924 458.872,395.924 442.473,407.838 448.736,427.121 432.339,415.204 415.939,427.121 422.202,407.838 405.804,395.924 426.074,395.924 "/>
   <polygon id="_295822088" class="fil1" points="342.171,376.646 348.436,395.924 368.705,395.924 352.307,407.838 358.57,427.121 342.171,415.204 325.773,427.121 332.035,407.838 315.638,395.924 335.907,395.924 "/>
   <polygon id="_295822496" class="fil1" points="252.004,376.646 258.268,395.924 278.538,395.924 262.141,407.838 268.403,427.121 252.004,415.204 235.606,427.121 241.87,407.838 225.47,395.924 245.74,395.924 "/>
   <polygon id="_295822280" class="fil1" points="161.837,376.646 168.103,395.924 188.37,395.924 171.973,407.838 178.235,427.121 161.837,415.204 145.44,427.121 151.702,407.838 135.304,395.924 155.572,395.924 "/>
   <polygon id="_295823960" class="fil1" points="71.6693,376.646 77.935,395.924 98.2051,395.924 81.8067,407.838 88.0689,427.121 71.6693,415.204 55.272,427.121 61.5343,407.838 45.1358,395.924 65.4059,395.924 "/>
   <polygon id="_293568616" class="fil1" points="567.588,163.878 573.853,183.156 594.123,183.156 577.724,195.071 583.988,214.354 567.588,202.435 551.191,214.354 557.453,195.071 541.055,183.156 561.325,183.156 "/>
   <polygon id="_293559832" class="fil1" points="454.88,163.878 461.145,183.156 481.415,183.156 465.015,195.071 471.278,214.354 454.88,202.435 438.482,214.354 444.744,195.071 428.344,183.156 448.615,183.156 "/>
   <polygon id="_293568592" class="fil1" points="342.171,163.878 348.436,183.156 368.705,183.156 352.307,195.071 358.57,214.354 342.171,202.435 325.773,214.354 332.035,195.071 315.638,183.156 335.907,183.156 "/>
   <polygon id="_293568568" class="fil1" points="229.462,163.878 235.728,183.156 255.998,183.156 239.598,195.071 245.861,214.354 229.462,202.435 213.065,214.354 219.327,195.071 202.928,183.156 223.198,183.156 "/>
   <polygon id="_293568496" class="fil1" points="116.754,163.878 123.018,183.156 143.288,183.156 126.889,195.071 133.152,214.354 116.754,202.435 100.355,214.354 106.618,195.071 90.2209,183.156 110.49,183.156 "/>
   <polygon id="_293568544" class="fil1" points="599.172,57.4937 605.435,76.7717 625.706,76.7717 609.308,88.6866 615.57,107.968 599.172,96.0508 582.775,107.968 589.035,88.6866 572.637,76.7717 592.907,76.7717 "/>
   <polygon id="_293568520" class="fil1" points="496.371,57.4937 502.636,76.7717 522.905,76.7717 506.506,88.6866 512.769,107.968 496.371,96.0508 479.973,107.968 486.235,88.6866 469.838,76.7717 490.106,76.7717 "/>
   <polygon id="_293567464" class="fil1" points="393.573,57.4937 399.836,76.7717 420.106,76.7717 403.708,88.6866 409.97,107.968 393.573,96.0508 377.173,107.968 383.435,88.6866 367.038,76.7717 387.307,76.7717 "/>
   <polygon id="_293567392" class="fil1" points="290.77,57.4937 297.035,76.7717 317.304,76.7717 300.907,88.6866 307.169,107.968 290.77,96.0508 274.372,107.968 280.635,88.6866 264.236,76.7717 284.506,76.7717 "/>
   <polygon id="_293566336" class="fil1" points="187.971,57.4937 194.237,76.7717 214.505,76.7717 198.107,88.6866 204.37,107.968 187.971,96.0508 171.574,107.968 177.836,88.6866 161.438,76.7717 181.707,76.7717 "/>
   <polygon id="_293564488" class="fil1" points="85.1705,57.4937 91.435,76.7717 111.705,76.7717 95.3079,88.6866 101.568,107.968 85.1705,96.0508 68.772,107.968 75.0343,88.6866 58.637,76.7717 78.9071,76.7717 "/>
  </g>
 </g>
</svg>
