<?xml version="1.0" encoding="UTF-8"?>
<!DOCTYPE svg PUBLIC "-//W3C//DTD SVG 1.1//EN" "http://www.w3.org/Graphics/SVG/1.1/DTD/svg11.dtd">
<!-- Creator: CorelDRAW -->
<svg xmlns="http://www.w3.org/2000/svg" xml:space="preserve" width="1710px" height="900px" style="shape-rendering:geometricPrecision; text-rendering:geometricPrecision; image-rendering:optimizeQuality; fill-rule:evenodd; clip-rule:evenodd"
viewBox="0 0 1710 900"
 xmlns:xlink="http://www.w3.org/1999/xlink">
 <defs>
  <style type="text/css">
   <![CDATA[
    .fil2 {fill:#002868}
    .fil0 {fill:#BF0A30}
    .fil1 {fill:white}
   ]]>
  </style>
 </defs>
 <g id="Layer_x0020_1">
  <metadata id="CorelCorpID_0Corel-Layer"/>
  <polygon class="fil0" points="0.0011811,0 1710,0 1710,899.999 0.0011811,899.999 "/>
  <polygon class="fil1" points="-0.56811,761.538 1709.43,761.538 1709.43,830.769 -0.56811,830.769 "/>
  <polygon class="fil1" points="-0.56811,69.2315 1709.43,69.2315 1709.43,138.462 -0.56811,138.462 "/>
  <polygon class="fil1" points="-0.56811,207.692 1709.43,207.692 1709.43,276.924 -0.56811,276.924 "/>
  <polygon class="fil1" points="-0.56811,346.154 1709.43,346.154 1709.43,415.384 -0.56811,415.384 "/>
  <polygon class="fil1" points="-0.56811,484.616 1709.43,484.616 1709.43,553.846 -0.56811,553.846 "/>
  <polygon class="fil1" points="-0.56811,623.076 1709.43,623.076 1709.43,692.308 -0.56811,692.308 "/>
  <polygon class="fil2" points="0.284646,484.616 684.058,484.616 684.058,0.0011811 0.284646,0.0011811 "/>
  <polygon class="fil1" points="590.171,57.4949 596.437,76.7728 616.707,76.7728 600.308,88.6866 606.57,107.968 590.171,96.0508 573.774,107.968 580.036,88.6866 563.637,76.7728 583.907,76.7728 "/>
  <polygon class="fil1" points="466.172,57.4949 472.436,76.7728 492.706,76.7728 476.307,88.6866 482.569,107.968 466.172,96.0508 449.773,107.968 456.035,88.6866 439.638,76.7728 459.906,76.7728 "/>
  <polygon class="fil1" points="342.171,57.4949 348.436,76.7728 368.705,76.7728 352.307,88.6866 358.57,107.968 342.171,96.0508 325.773,107.968 332.035,88.6866 315.638,76.7728 335.907,76.7728 "/>
  <polygon class="fil1" points="218.171,57.4949 224.437,76.7728 244.704,76.7728 228.307,88.6866 234.569,107.968 218.171,96.0508 201.774,107.968 208.036,88.6866 191.636,76.7728 211.906,76.7728 "/>
  <polygon class="fil1" points="94.1717,57.4949 100.435,76.7728 120.705,76.7728 104.307,88.6866 110.569,107.968 94.1717,96.0508 77.772,107.968 84.0343,88.6866 67.6358,76.7728 87.9059,76.7728 "/>
  <polygon class="fil1" points="590.171,163.879 596.437,183.157 616.707,183.157 600.308,195.071 606.57,214.355 590.171,202.435 573.774,214.355 580.036,195.071 563.637,183.157 583.907,183.157 "/>
  <polygon class="fil1" points="466.172,163.879 472.436,183.157 492.706,183.157 476.307,195.071 482.569,214.355 466.172,202.435 449.773,214.355 456.035,195.071 439.638,183.157 459.906,183.157 "/>
  <polygon class="fil1" points="342.171,163.879 348.436,183.157 368.705,183.157 352.307,195.071 358.57,214.355 342.171,202.435 325.773,214.355 332.035,195.071 315.638,183.157 335.907,183.157 "/>
  <polygon class="fil1" points="218.171,163.879 224.437,183.157 244.704,183.157 228.307,195.071 234.569,214.355 218.171,202.435 201.774,214.355 208.036,195.071 191.636,183.157 211.906,183.157 "/>
  <polygon class="fil1" points="94.1717,163.879 100.435,183.157 120.705,183.157 104.307,195.071 110.569,214.355 94.1717,202.435 77.772,214.355 84.0343,195.071 67.6358,183.157 87.9059,183.157 "/>
  <polygon class="fil1" points="590.171,270.261 596.437,289.539 616.707,289.539 600.308,301.454 606.57,320.737 590.171,308.819 573.774,320.737 580.036,301.454 563.637,289.539 583.907,289.539 "/>
  <polygon class="fil1" points="466.172,270.261 472.436,289.539 492.706,289.539 476.307,301.454 482.569,320.737 466.172,308.819 449.773,320.737 456.035,301.454 439.638,289.539 459.906,289.539 "/>
  <polygon class="fil1" points="342.171,270.261 348.436,289.539 368.705,289.539 352.307,301.454 358.57,320.737 342.171,308.819 325.773,320.737 332.035,301.454 315.638,289.539 335.907,289.539 "/>
  <polygon class="fil1" points="218.171,270.261 224.437,289.539 244.704,289.539 228.307,301.454 234.569,320.737 218.171,308.819 201.774,320.737 208.036,301.454 191.636,289.539 211.906,289.539 "/>
  <polygon class="fil1" points="94.1717,270.261 100.435,289.539 120.705,289.539 104.307,301.454 110.569,320.737 94.1717,308.819 77.772,320.737 84.0343,301.454 67.6358,289.539 87.9059,289.539 "/>
  <polygon class="fil1" points="590.171,376.646 596.437,395.926 616.707,395.926 600.308,407.839 606.57,427.121 590.171,415.204 573.774,427.121 580.036,407.839 563.637,395.926 583.907,395.926 "/>
  <polygon class="fil1" points="466.172,376.646 472.436,395.926 492.706,395.926 476.307,407.839 482.569,427.121 466.172,415.204 449.773,427.121 456.035,407.839 439.638,395.926 459.906,395.926 "/>
  <polygon class="fil1" points="342.171,376.646 348.436,395.926 368.705,395.926 352.307,407.839 358.57,427.121 342.171,415.204 325.773,427.121 332.035,407.839 315.638,395.926 335.907,395.926 "/>
  <polygon class="fil1" points="218.171,376.646 224.437,395.926 244.704,395.926 228.307,407.839 234.569,427.121 218.171,415.204 201.774,427.121 208.036,407.839 191.636,395.926 211.906,395.926 "/>
  <polygon class="fil1" points="94.1717,376.646 100.435,395.926 120.705,395.926 104.307,407.839 110.569,427.121 94.1717,415.204 77.772,427.121 84.0343,407.839 67.6358,395.926 87.9059,395.926 "/>
 </g>
</svg>
