<?xml version="1.0" encoding="UTF-8"?>
<!DOCTYPE svg PUBLIC "-//W3C//DTD SVG 1.1//EN" "http://www.w3.org/Graphics/SVG/1.1/DTD/svg11.dtd">
<!-- Creator: CorelDRAW -->
<svg xmlns="http://www.w3.org/2000/svg" xml:space="preserve" width="1710px" height="900px" style="shape-rendering:geometricPrecision; text-rendering:geometricPrecision; image-rendering:optimizeQuality; fill-rule:evenodd; clip-rule:evenodd"
viewBox="0 0 1710 900"
 xmlns:xlink="http://www.w3.org/1999/xlink">
 <defs>
  <style type="text/css">
   <![CDATA[
    .fil2 {fill:#002868}
    .fil0 {fill:#BF0A30}
    .fil1 {fill:white}
   ]]>
  </style>
 </defs>
 <g id="Layer_x0020_1">
  <metadata id="CorelCorpID_0Corel-Layer"/>
  <polygon class="fil0" points="0.0011811,0 1710,0 1710,899.999 0.0011811,899.999 "/>
  <polygon class="fil1" points="-0.56811,761.538 1709.43,761.538 1709.43,830.769 -0.56811,830.769 "/>
  <polygon class="fil1" points="-0.56811,69.2315 1709.43,69.2315 1709.43,138.462 -0.56811,138.462 "/>
  <polygon class="fil1" points="-0.56811,207.692 1709.43,207.692 1709.43,276.924 -0.56811,276.924 "/>
  <polygon class="fil1" points="-0.56811,346.154 1709.43,346.154 1709.43,415.384 -0.56811,415.384 "/>
  <polygon class="fil1" points="-0.56811,484.616 1709.43,484.616 1709.43,553.846 -0.56811,553.846 "/>
  <polygon class="fil1" points="-0.56811,623.076 1709.43,623.076 1709.43,692.308 -0.56811,692.308 "/>
  <polygon class="fil2" points="0.284646,484.616 684.058,484.616 684.058,0.0011811 0.284646,0.0011811 "/>
  <g id="_293568448">
   <polygon id="_295830272" class="fil1" points="612.673,57.4937 618.937,76.7717 639.207,76.7717 622.808,88.6866 629.07,107.968 612.673,96.0508 596.274,107.968 602.536,88.6866 586.137,76.7717 606.407,76.7717 "/>
   <polygon id="_295830200" class="fil1" points="522.506,57.4937 528.77,76.7717 549.039,76.7717 532.641,88.6866 538.903,107.968 522.506,96.0508 506.107,107.968 512.369,88.6866 495.972,76.7717 516.24,76.7717 "/>
   <polygon id="_295830128" class="fil1" points="432.339,57.4937 438.602,76.7717 458.872,76.7717 442.473,88.6866 448.736,107.968 432.339,96.0508 415.939,107.968 422.202,88.6866 405.804,76.7717 426.074,76.7717 "/>
   <polygon id="_295830056" class="fil1" points="342.171,57.4937 348.436,76.7717 368.705,76.7717 352.307,88.6866 358.57,107.968 342.171,96.0508 325.773,107.968 332.035,88.6866 315.638,76.7717 335.907,76.7717 "/>
   <polygon id="_295829984" class="fil1" points="252.004,57.4937 258.268,76.7717 278.538,76.7717 262.141,88.6866 268.403,107.968 252.004,96.0508 235.606,107.968 241.87,88.6866 225.47,76.7717 245.74,76.7717 "/>
   <polygon id="_295829912" class="fil1" points="161.837,57.4937 168.103,76.7717 188.37,76.7717 171.973,88.6866 178.235,107.968 161.837,96.0508 145.44,107.968 151.702,88.6866 135.304,76.7717 155.572,76.7717 "/>
   <polygon id="_295829840" class="fil1" points="71.6693,57.4937 77.935,76.7717 98.2051,76.7717 81.8067,88.6866 88.0689,107.968 71.6693,96.0508 55.272,107.968 61.5343,88.6866 45.1358,76.7717 65.4059,76.7717 "/>
   <polygon id="_295829768" class="fil1" points="567.588,163.878 573.853,183.156 594.123,183.156 577.724,195.071 583.988,214.354 567.588,202.435 551.191,214.354 557.453,195.071 541.055,183.156 561.325,183.156 "/>
   <polygon id="_295829696" class="fil1" points="477.422,163.878 483.687,183.156 503.955,183.156 487.558,195.071 493.82,214.354 477.422,202.435 461.024,214.354 467.287,195.071 450.887,183.156 471.157,183.156 "/>
   <polygon id="_295829624" class="fil1" points="387.254,163.878 393.52,183.156 413.79,183.156 397.39,195.071 403.654,214.354 387.254,202.435 370.857,214.354 377.119,195.071 360.72,183.156 380.991,183.156 "/>
   <polygon id="_295829552" class="fil1" points="297.089,163.878 303.352,183.156 323.622,183.156 307.224,195.071 313.486,214.354 297.089,202.435 280.69,214.354 286.952,195.071 270.553,183.156 290.823,183.156 "/>
   <polygon id="_295829480" class="fil1" points="206.921,163.878 213.185,183.156 233.456,183.156 217.056,195.071 223.318,214.354 206.921,202.435 190.522,214.354 196.785,195.071 180.387,183.156 200.655,183.156 "/>
   <polygon id="_295829408" class="fil1" points="116.754,163.878 123.018,183.156 143.288,183.156 126.889,195.071 133.152,214.354 116.754,202.435 100.355,214.354 106.618,195.071 90.2209,183.156 110.49,183.156 "/>
   <polygon id="_295829336" class="fil1" points="567.588,270.26 573.853,289.539 594.123,289.539 577.724,301.453 583.988,320.737 567.588,308.819 551.191,320.737 557.453,301.453 541.055,289.539 561.325,289.539 "/>
   <polygon id="_295829264" class="fil1" points="477.422,270.26 483.687,289.539 503.955,289.539 487.558,301.453 493.82,320.737 477.422,308.819 461.024,320.737 467.287,301.453 450.887,289.539 471.157,289.539 "/>
   <polygon id="_295826576" class="fil1" points="387.254,270.26 393.52,289.539 413.79,289.539 397.39,301.453 403.654,320.737 387.254,308.819 370.857,320.737 377.119,301.453 360.72,289.539 380.991,289.539 "/>
   <polygon id="_295828256" class="fil1" points="297.089,270.26 303.352,289.539 323.622,289.539 307.224,301.453 313.486,320.737 297.089,308.819 280.69,320.737 286.952,301.453 270.553,289.539 290.823,289.539 "/>
   <polygon id="_295826768" class="fil1" points="206.921,270.26 213.185,289.539 233.456,289.539 217.056,301.453 223.318,320.737 206.921,308.819 190.522,320.737 196.785,301.453 180.387,289.539 200.655,289.539 "/>
   <polygon id="_295826816" class="fil1" points="116.754,270.26 123.018,289.539 143.288,289.539 126.889,301.453 133.152,320.737 116.754,308.819 100.355,320.737 106.618,301.453 90.2209,289.539 110.49,289.539 "/>
   <polygon id="_295826000" class="fil1" points="612.673,376.646 618.937,395.924 639.207,395.924 622.808,407.838 629.07,427.121 612.673,415.204 596.274,427.121 602.536,407.838 586.137,395.924 606.407,395.924 "/>
   <polygon id="_295826792" class="fil1" points="522.506,376.646 528.77,395.924 549.039,395.924 532.641,407.838 538.903,427.121 522.506,415.204 506.107,427.121 512.369,407.838 495.972,395.924 516.24,395.924 "/>
   <polygon id="_293567752" class="fil1" points="432.339,376.646 438.602,395.924 458.872,395.924 442.473,407.838 448.736,427.121 432.339,415.204 415.939,427.121 422.202,407.838 405.804,395.924 426.074,395.924 "/>
   <polygon id="_293568184" class="fil1" points="342.171,376.646 348.436,395.924 368.705,395.924 352.307,407.838 358.57,427.121 342.171,415.204 325.773,427.121 332.035,407.838 315.638,395.924 335.907,395.924 "/>
   <polygon id="_293567680" class="fil1" points="252.004,376.646 258.268,395.924 278.538,395.924 262.141,407.838 268.403,427.121 252.004,415.204 235.606,427.121 241.87,407.838 225.47,395.924 245.74,395.924 "/>
   <polygon id="_293567608" class="fil1" points="161.837,376.646 168.103,395.924 188.37,395.924 171.973,407.838 178.235,427.121 161.837,415.204 145.44,427.121 151.702,407.838 135.304,395.924 155.572,395.924 "/>
   <polygon id="_293567536" class="fil1" points="71.6693,376.646 77.935,395.924 98.2051,395.924 81.8067,407.838 88.0689,427.121 71.6693,415.204 55.272,427.121 61.5343,407.838 45.1358,395.924 65.4059,395.924 "/>
  </g>
 </g>
</svg>
