<?xml version="1.0" encoding="UTF-8" standalone="no"?>
<svg
   xmlns:dc="http://purl.org/dc/elements/1.1/"
   xmlns:cc="http://web.resource.org/cc/"
   xmlns:rdf="http://www.w3.org/1999/02/22-rdf-syntax-ns#"
   xmlns:svg="http://www.w3.org/2000/svg"
   xmlns="http://www.w3.org/2000/svg"
   xmlns:sodipodi="http://inkscape.sourceforge.net/DTD/sodipodi-0.dtd"
   xmlns:inkscape="http://www.inkscape.org/namespaces/inkscape"
   version="1.1"
   width="1330"
   height="700"
   id="Flag of the United States"
   viewBox="0 0 18525 9750"
   sodipodi:version="0.32"
   inkscape:version="0.43"
   sodipodi:docname="US_38_Star_Flag_concentric_circles.svg"
   sodipodi:docbase="d:\Dateien\Wikipediazeugs\USA">
  <metadata
     id="metadata36">
    <rdf:RDF>
      <cc:Work
         rdf:about="">
        <dc:format>image/svg+xml</dc:format>
        <dc:type
           rdf:resource="http://purl.org/dc/dcmitype/StillImage" />
      </cc:Work>
    </rdf:RDF>
  </metadata>
  <defs
     id="defs34" />
  <sodipodi:namedview
     inkscape:window-height="840"
     inkscape:window-width="1050"
     inkscape:pageshadow="2"
     inkscape:pageopacity="0.0"
     borderopacity="1.0"
     bordercolor="#666666"
     pagecolor="#ffffff"
     id="base"
     inkscape:zoom="0.55762135"
     inkscape:cx="725.98379"
     inkscape:cy="254.25836"
     inkscape:window-x="58"
     inkscape:window-y="34"
     inkscape:current-layer="Flag of the United States" />
  <rect
     width="100%"
     height="100%"
     fill="#bf0a30"
     id="red background" />
  <g
     fill="white"
     id="g4">
    <rect
       width="100%"
       height="750"
       y="750"
       id="rect6" />
    <rect
       width="100%"
       height="750"
       y="2250"
       id="rect8" />
    <rect
       width="100%"
       height="750"
       y="3750"
       id="rect10" />
    <rect
       width="100%"
       height="750"
       y="5250"
       id="rect12" />
    <rect
       width="100%"
       height="750"
       y="6750"
       id="rect14" />
    <rect
       width="100%"
       height="750"
       y="8250"
       id="rect16" />
  </g>
  <rect
     id="blue field"
     width="6156.4287"
     height="5250"
     x="0"
     y="-3.5527137e-013"
     style="fill:#002868" />
  <g
     id="g2132"
     transform="translate(2.426414e-6,-1.776357e-13)">
    <g
       transform="matrix(-0.613538,1.79475,-1.79475,-0.613538,4402,1787.016)"
       id="g1357">
      <polygon
         points="0,-1 0.58778525,0.80901699 -0.95105652,-0.30901699 0.95105652,-0.30901699 -0.58778525,0.80901699 0,-1 "
         transform="matrix(300.3,0,0,300.3,617.5,525)"
         id="polygon1359"
         style="fill:#ffffff" />
    </g>
    <g
       transform="translate(-91.6355,31.93939)"
       id="g2016">
      <g
         id="star row 9"
         transform="matrix(0.943057,0.332631,-0.332631,0.943057,171.7678,-215.0482)">
        <polygon
           style="fill:#ffffff"
           id="polygon1529"
           transform="matrix(300.3,0,0,300.3,617.5,525)"
           points="0,-1 0.58778525,0.80901699 -0.95105652,-0.30901699 0.95105652,-0.30901699 -0.58778525,0.80901699 0,-1 " />
      </g>
      <g
         id="g1361"
         transform="matrix(0.943057,0.332631,-0.332631,0.943057,171.7628,3995.707)">
        <polygon
           style="fill:#ffffff"
           id="polygon1363"
           transform="matrix(300.3,0,0,300.3,617.5,525)"
           points="0,-1 0.58778525,0.80901699 -0.95105652,-0.30901699 0.95105652,-0.30901699 -0.58778525,0.80901699 0,-1 " />
      </g>
      <g
         id="g1365"
         transform="matrix(0.951534,-0.307543,0.307543,0.951534,5012.991,178.1808)">
        <polygon
           style="fill:#ffffff"
           id="polygon1367"
           transform="matrix(300.3,0,0,300.3,617.5,525)"
           points="0,-1 0.58778525,0.80901699 -0.95105652,-0.30901699 0.95105652,-0.30901699 -0.58778525,0.80901699 0,-1 " />
      </g>
      <g
         id="g1369"
         transform="matrix(0.946427,-0.322919,0.322919,0.946427,5008.044,4399.63)">
        <polygon
           style="fill:#ffffff"
           id="polygon1371"
           transform="matrix(300.3,0,0,300.3,617.5,525)"
           points="0,-1 0.58778525,0.80901699 -0.95105652,-0.30901699 0.95105652,-0.30901699 -0.58778525,0.80901699 0,-1 " />
      </g>
    </g>
    <g
       transform="translate(-81.81688,5.279995)"
       id="g1957">
      <polygon
         points="0,-1 0.58778525,0.80901699 -0.95105652,-0.30901699 0.95105652,-0.30901699 -0.58778525,0.80901699 0,-1 "
         transform="matrix(295.5868,52.99514,-52.99514,295.5868,3585.485,435.0088)"
         id="polygon1375"
         style="fill:#ffffff" />
      <polygon
         points="0,-1 0.58778525,0.80901699 -0.95105652,-0.30901699 0.95105652,-0.30901699 -0.58778525,0.80901699 0,-1 "
         transform="matrix(298.0901,-36.36363,36.36363,298.0901,2849.754,413.5294)"
         id="polygon1379"
         style="fill:#ffffff" />
      <polygon
         points="0,-1 0.58778525,0.80901699 -0.95105652,-0.30901699 0.95105652,-0.30901699 -0.58778525,0.80901699 0,-1 "
         transform="matrix(271.2922,-128.7653,128.7653,271.2922,2184.183,602.9771)"
         id="polygon1383"
         style="fill:#ffffff" />
      <polygon
         points="0,-1 0.58778525,0.80901699 -0.95105652,-0.30901699 0.95105652,-0.30901699 -0.58778525,0.80901699 0,-1 "
         transform="matrix(148.9629,-260.749,260.749,148.9629,1183.202,1586.127)"
         id="polygon1681"
         style="fill:#ffffff" />
      <polygon
         points="0,-1 0.58778525,0.80901699 -0.95105652,-0.30901699 0.95105652,-0.30901699 -0.58778525,0.80901699 0,-1 "
         transform="matrix(80.86839,-289.206,289.206,80.86839,944.3976,2212.906)"
         id="polygon1685"
         style="fill:#ffffff" />
      <polygon
         points="0,-1 0.58778525,0.80901699 -0.95105652,-0.30901699 0.95105652,-0.30901699 -0.58778525,0.80901699 0,-1 "
         transform="matrix(-30.4327,-298.7538,298.7538,-30.4327,986.7912,2945.055)"
         id="polygon1689"
         style="fill:#ffffff" />
      <polygon
         points="0,-1 0.58778525,0.80901699 -0.95105652,-0.30901699 0.95105652,-0.30901699 -0.58778525,0.80901699 0,-1 "
         transform="matrix(201.6866,-222.4914,222.4914,201.6866,1636.191,998.344)"
         id="polygon1707"
         style="fill:#ffffff" />
      <polygon
         points="0,-1 0.58778525,0.80901699 -0.95105652,-0.30901699 0.95105652,-0.30901699 -0.58778525,0.80901699 0,-1 "
         transform="matrix(223.4712,-200.6004,200.6004,223.4712,1152.216,3595.978)"
         id="polygon1711"
         style="fill:#ffffff" />
      <polygon
         points="0,-1 0.58778525,0.80901699 -0.95105652,-0.30901699 0.95105652,-0.30901699 -0.58778525,0.80901699 0,-1 "
         transform="matrix(295.518,53.37622,-53.37622,295.518,1601.634,4177.731)"
         id="polygon1715"
         style="fill:#ffffff" />
      <polygon
         points="0,-1 0.58778525,0.80901699 -0.95105652,-0.30901699 0.95105652,-0.30901699 -0.58778525,0.80901699 0,-1 "
         transform="matrix(295.0553,-55.87772,55.87772,295.0553,2147.882,4576.496)"
         id="polygon1719"
         style="fill:#ffffff" />
      <g
         id="g1721"
         transform="matrix(0.903404,-0.428789,0.428789,0.903404,2024.794,4600.716)">
        <polygon
           style="fill:#ffffff"
           id="polygon1723"
           transform="matrix(300.3,0,0,300.3,617.5,525)"
           points="0,-1 0.58778525,0.80901699 -0.95105652,-0.30901699 0.95105652,-0.30901699 -0.58778525,0.80901699 0,-1 " />
      </g>
      <g
         id="g1725"
         transform="matrix(0.775253,-0.63165,0.63165,0.775253,2647.602,4807.197)">
        <polygon
           style="fill:#ffffff"
           id="polygon1727"
           transform="matrix(300.3,0,0,300.3,617.5,525)"
           points="0,-1 0.58778525,0.80901699 -0.95105652,-0.30901699 0.95105652,-0.30901699 -0.58778525,0.80901699 0,-1 " />
      </g>
      <g
         id="g1729"
         transform="matrix(0.983944,0.178474,-0.178474,0.983944,3613.486,4019.024)">
        <polygon
           style="fill:#ffffff"
           id="polygon1731"
           transform="matrix(300.3,0,0,300.3,617.5,525)"
           points="0,-1 0.58778525,0.80901699 -0.95105652,-0.30901699 0.95105652,-0.30901699 -0.58778525,0.80901699 0,-1 " />
      </g>
      <polygon
         points="0,-1 0.58778525,0.80901699 -0.95105652,-0.30901699 0.95105652,-0.30901699 -0.58778525,0.80901699 0,-1 "
         transform="matrix(46.29305,-296.7102,296.7102,46.29305,4705.176,4233.974)"
         id="polygon1745"
         style="fill:#ffffff" />
      <polygon
         points="0,-1 0.58778525,0.80901699 -0.95105652,-0.30901699 0.95105652,-0.30901699 -0.58778525,0.80901699 0,-1 "
         transform="matrix(-25.72054,-299.1964,299.1964,-25.72054,5118.022,3677.95)"
         id="polygon1749"
         style="fill:#ffffff" />
      <polygon
         points="0,-1 0.58778525,0.80901699 -0.95105652,-0.30901699 0.95105652,-0.30901699 -0.58778525,0.80901699 0,-1 "
         transform="matrix(210.6304,-214.0436,214.0436,210.6304,5347.452,3024.256)"
         id="polygon1753"
         style="fill:#ffffff" />
      <polygon
         points="0,-1 0.58778525,0.80901699 -0.95105652,-0.30901699 0.95105652,-0.30901699 -0.58778525,0.80901699 0,-1 "
         transform="matrix(-215.7869,-208.8442,208.8442,-215.7869,5369.076,2305.653)"
         id="polygon1765"
         style="fill:#ffffff" />
      <polygon
         points="0,-1 0.58778525,0.80901699 -0.95105652,-0.30901699 0.95105652,-0.30901699 -0.58778525,0.80901699 0,-1 "
         transform="matrix(-261.7247,-147.2419,147.2419,-261.7247,5180.749,1638.803)"
         id="polygon1769"
         style="fill:#ffffff" />
      <polygon
         points="0,-1 0.58778525,0.80901699 -0.95105652,-0.30901699 0.95105652,-0.30901699 -0.58778525,0.80901699 0,-1 "
         transform="matrix(-20.48999,-299.6,299.6,-20.48999,4780.23,1076.181)"
         id="polygon1773"
         style="fill:#ffffff" />
      <polygon
         points="0,-1 0.58778525,0.80901699 -0.95105652,-0.30901699 0.95105652,-0.30901699 -0.58778525,0.80901699 0,-1 "
         transform="matrix(-129.8719,-270.7643,270.7643,-129.8719,4222.317,648.4047)"
         id="polygon1783"
         style="fill:#ffffff" />
    </g>
    <g
       transform="translate(-103.8043,27.13059)"
       id="g1998">
      <g
         id="g1785"
         transform="matrix(0.978192,-0.207699,0.207699,0.978192,2187.496,938.7515)">
        <polygon
           style="fill:#ffffff"
           id="polygon1787"
           transform="matrix(300.3,0,0,300.3,617.5,525)"
           points="0,-1 0.58778525,0.80901699 -0.95105652,-0.30901699 0.95105652,-0.30901699 -0.58778525,0.80901699 0,-1 " />
      </g>
      <g
         id="g1789"
         transform="matrix(0.780354,-0.625337,0.625337,0.780354,1540.189,1575.587)">
        <polygon
           style="fill:#ffffff"
           id="polygon1791"
           transform="matrix(300.3,0,0,300.3,617.5,525)"
           points="0,-1 0.58778525,0.80901699 -0.95105652,-0.30901699 0.95105652,-0.30901699 -0.58778525,0.80901699 0,-1 " />
      </g>
      <g
         id="g1793"
         transform="matrix(0.999349,3.607074e-2,-3.607074e-2,0.999349,1379.518,1583.358)">
        <polygon
           style="fill:#ffffff"
           id="polygon1795"
           transform="matrix(300.3,0,0,300.3,617.5,525)"
           points="0,-1 0.58778525,0.80901699 -0.95105652,-0.30901699 0.95105652,-0.30901699 -0.58778525,0.80901699 0,-1 " />
      </g>
      <polygon
         points="0,-1 0.58778525,0.80901699 -0.95105652,-0.30901699 0.95105652,-0.30901699 -0.58778525,0.80901699 0,-1 "
         transform="matrix(-149.6158,-260.3745,260.3745,-149.6158,2128.798,3309.275)"
         id="polygon1809"
         style="fill:#ffffff" />
      <polygon
         points="0,-1 0.58778525,0.80901699 -0.95105652,-0.30901699 0.95105652,-0.30901699 -0.58778525,0.80901699 0,-1 "
         transform="matrix(-264.4376,-142.3119,142.3119,-264.4376,2587.548,3722.243)"
         id="polygon1813"
         style="fill:#ffffff" />
      <polygon
         points="0,-1 0.58778525,0.80901699 -0.95105652,-0.30901699 0.95105652,-0.30901699 -0.58778525,0.80901699 0,-1 "
         transform="matrix(-100.9347,-282.8288,282.8288,-100.9347,3160.017,3865.265)"
         id="polygon1817"
         style="fill:#ffffff" />
      <polygon
         points="0,-1 0.58778525,0.80901699 -0.95105652,-0.30901699 0.95105652,-0.30901699 -0.58778525,0.80901699 0,-1 "
         transform="matrix(-219.1136,-205.3514,205.3514,-219.1136,3774.29,3740.383)"
         id="polygon1827"
         style="fill:#ffffff" />
      <polygon
         points="0,-1 0.58778525,0.80901699 -0.95105652,-0.30901699 0.95105652,-0.30901699 -0.58778525,0.80901699 0,-1 "
         transform="matrix(-290.8682,-74.6708,74.6708,-290.8682,4242.348,3334.914)"
         id="polygon1831"
         style="fill:#ffffff" />
      <polygon
         points="0,-1 0.58778525,0.80901699 -0.95105652,-0.30901699 0.95105652,-0.30901699 -0.58778525,0.80901699 0,-1 "
         transform="matrix(-146.0281,-262.4039,262.4039,-146.0281,4461.698,2756.797)"
         id="polygon1835"
         style="fill:#ffffff" />
      <polygon
         points="0,-1 0.58778525,0.80901699 -0.95105652,-0.30901699 0.95105652,-0.30901699 -0.58778525,0.80901699 0,-1 "
         transform="matrix(-242.0715,-177.7112,177.7112,-242.0715,4389.949,2134.963)"
         id="polygon1839"
         style="fill:#ffffff" />
      <polygon
         points="0,-1 0.58778525,0.80901699 -0.95105652,-0.30901699 0.95105652,-0.30901699 -0.58778525,0.80901699 0,-1 "
         transform="matrix(-53.21827,-295.5466,295.5466,-53.21827,4064.037,1634.354)"
         id="polygon1843"
         style="fill:#ffffff" />
      <polygon
         points="0,-1 0.58778525,0.80901699 -0.95105652,-0.30901699 0.95105652,-0.30901699 -0.58778525,0.80901699 0,-1 "
         transform="matrix(-195.9977,-227.5187,227.5187,-195.9977,3520.611,1328.052)"
         id="polygon1847"
         style="fill:#ffffff" />
      <polygon
         points="0,-1 0.58778525,0.80901699 -0.95105652,-0.30901699 0.95105652,-0.30901699 -0.58778525,0.80901699 0,-1 "
         transform="matrix(-286.8727,-88.7912,88.7912,-286.8727,1904.487,2743.756)"
         id="polygon1932"
         style="fill:#ffffff" />
    </g>
  </g>
</svg>
