<?xml version="1.0" encoding="UTF-8"?>
<!DOCTYPE svg PUBLIC "-//W3C//DTD SVG 1.1//EN" "http://www.w3.org/Graphics/SVG/1.1/DTD/svg11.dtd">
<!-- Creator: CorelDRAW -->
<svg xmlns="http://www.w3.org/2000/svg" xml:space="preserve" width="1710px" height="900px" style="shape-rendering:geometricPrecision; text-rendering:geometricPrecision; image-rendering:optimizeQuality; fill-rule:evenodd; clip-rule:evenodd"
viewBox="0 0 1710 900"
 xmlns:xlink="http://www.w3.org/1999/xlink">
 <defs>
  <style type="text/css">
   <![CDATA[
    .fil2 {fill:#002868}
    .fil0 {fill:#BF0A30}
    .fil1 {fill:white}
   ]]>
  </style>
 </defs>
 <g id="Layer_x0020_1">
  <metadata id="CorelCorpID_0Corel-Layer"/>
  <polygon class="fil0" points="0.0011811,0 1710,0 1710,899.999 0.0011811,899.999 "/>
  <polygon class="fil1" points="-0.56811,761.538 1709.43,761.538 1709.43,830.769 -0.56811,830.769 "/>
  <polygon class="fil1" points="-0.56811,69.2315 1709.43,69.2315 1709.43,138.462 -0.56811,138.462 "/>
  <polygon class="fil1" points="-0.56811,207.692 1709.43,207.692 1709.43,276.924 -0.56811,276.924 "/>
  <polygon class="fil1" points="-0.56811,346.154 1709.43,346.154 1709.43,415.384 -0.56811,415.384 "/>
  <polygon class="fil1" points="-0.56811,484.616 1709.43,484.616 1709.43,553.846 -0.56811,553.846 "/>
  <polygon class="fil1" points="-0.56811,623.076 1709.43,623.076 1709.43,692.308 -0.56811,692.308 "/>
  <polygon class="fil2" points="0.284646,484.616 684.058,484.616 684.058,0.0011811 0.284646,0.0011811 "/>
  <g id="_293565520">
   <polygon id="_295834304" class="fil1" points="612.673,57.4937 618.937,76.7717 639.207,76.7717 622.808,88.6866 629.07,107.968 612.673,96.0508 596.274,107.968 602.536,88.6866 586.137,76.7717 606.407,76.7717 "/>
   <polygon id="_295834232" class="fil1" points="522.506,57.4937 528.77,76.7717 549.039,76.7717 532.641,88.6866 538.903,107.968 522.506,96.0508 506.107,107.968 512.369,88.6866 495.972,76.7717 516.24,76.7717 "/>
   <polygon id="_295834160" class="fil1" points="432.339,57.4937 438.602,76.7717 458.872,76.7717 442.473,88.6866 448.736,107.968 432.339,96.0508 415.939,107.968 422.202,88.6866 405.804,76.7717 426.074,76.7717 "/>
   <polygon id="_295834088" class="fil1" points="342.171,57.4937 348.436,76.7717 368.705,76.7717 352.307,88.6866 358.57,107.968 342.171,96.0508 325.773,107.968 332.035,88.6866 315.638,76.7717 335.907,76.7717 "/>
   <polygon id="_295834016" class="fil1" points="252.004,57.4937 258.268,76.7717 278.538,76.7717 262.141,88.6866 268.403,107.968 252.004,96.0508 235.606,107.968 241.87,88.6866 225.47,76.7717 245.74,76.7717 "/>
   <polygon id="_295833944" class="fil1" points="161.837,57.4937 168.103,76.7717 188.37,76.7717 171.973,88.6866 178.235,107.968 161.837,96.0508 145.44,107.968 151.702,88.6866 135.304,76.7717 155.572,76.7717 "/>
   <polygon id="_295833872" class="fil1" points="71.6693,57.4937 77.935,76.7717 98.2051,76.7717 81.8067,88.6866 88.0689,107.968 71.6693,96.0508 55.272,107.968 61.5343,88.6866 45.1358,76.7717 65.4059,76.7717 "/>
   <polygon id="_295833800" class="fil1" points="612.673,163.878 618.937,183.156 639.207,183.156 622.808,195.071 629.07,214.354 612.673,202.435 596.274,214.354 602.536,195.071 586.137,183.156 606.407,183.156 "/>
   <polygon id="_295818512" class="fil1" points="522.506,163.878 528.77,183.156 549.039,183.156 532.641,195.071 538.903,214.354 522.506,202.435 506.107,214.354 512.369,195.071 495.972,183.156 516.24,183.156 "/>
   <polygon id="_295819328" class="fil1" points="432.339,163.878 438.602,183.156 458.872,183.156 442.473,195.071 448.736,214.354 432.339,202.435 415.939,214.354 422.202,195.071 405.804,183.156 426.074,183.156 "/>
   <polygon id="_295819736" class="fil1" points="342.171,163.878 348.436,183.156 368.705,183.156 352.307,195.071 358.57,214.354 342.171,202.435 325.773,214.354 332.035,195.071 315.638,183.156 335.907,183.156 "/>
   <polygon id="_295819712" class="fil1" points="252.004,163.878 258.268,183.156 278.538,183.156 262.141,195.071 268.403,214.354 252.004,202.435 235.606,214.354 241.87,195.071 225.47,183.156 245.74,183.156 "/>
   <polygon id="_295818656" class="fil1" points="161.837,163.878 168.103,183.156 188.37,183.156 171.973,195.071 178.235,214.354 161.837,202.435 145.44,214.354 151.702,195.071 135.304,183.156 155.572,183.156 "/>
   <polygon id="_295819640" class="fil1" points="71.6693,163.878 77.935,183.156 98.2051,183.156 81.8067,195.071 88.0689,214.354 71.6693,202.435 55.272,214.354 61.5343,195.071 45.1358,183.156 65.4059,183.156 "/>
   <polygon id="_295832480" class="fil1" points="612.673,270.26 618.937,289.539 639.207,289.539 622.808,301.453 629.07,320.737 612.673,308.819 596.274,320.737 602.536,301.453 586.137,289.539 606.407,289.539 "/>
   <polygon id="_293567320" class="fil1" points="522.506,270.26 528.77,289.539 549.039,289.539 532.641,301.453 538.903,320.737 522.506,308.819 506.107,320.737 512.369,301.453 495.972,289.539 516.24,289.539 "/>
   <polygon id="_293567248" class="fil1" points="432.339,270.26 438.602,289.539 458.872,289.539 442.473,301.453 448.736,320.737 432.339,308.819 415.939,320.737 422.202,301.453 405.804,289.539 426.074,289.539 "/>
   <polygon id="_293567176" class="fil1" points="342.171,270.26 348.436,289.539 368.705,289.539 352.307,301.453 358.57,320.737 342.171,308.819 325.773,320.737 332.035,301.453 315.638,289.539 335.907,289.539 "/>
   <polygon id="_293567104" class="fil1" points="252.004,270.26 258.268,289.539 278.538,289.539 262.141,301.453 268.403,320.737 252.004,308.819 235.606,320.737 241.87,301.453 225.47,289.539 245.74,289.539 "/>
   <polygon id="_293567032" class="fil1" points="161.837,270.26 168.103,289.539 188.37,289.539 171.973,301.453 178.235,320.737 161.837,308.819 145.44,320.737 151.702,301.453 135.304,289.539 155.572,289.539 "/>
   <polygon id="_293566960" class="fil1" points="71.6693,270.26 77.935,289.539 98.2051,289.539 81.8067,301.453 88.0689,320.737 71.6693,308.819 55.272,320.737 61.5343,301.453 45.1358,289.539 65.4059,289.539 "/>
   <polygon id="_293566888" class="fil1" points="612.673,376.646 618.937,395.924 639.207,395.924 622.808,407.838 629.07,427.121 612.673,415.204 596.274,427.121 602.536,407.838 586.137,395.924 606.407,395.924 "/>
   <polygon id="_293566816" class="fil1" points="522.506,376.646 528.77,395.924 549.039,395.924 532.641,407.838 538.903,427.121 522.506,415.204 506.107,427.121 512.369,407.838 495.972,395.924 516.24,395.924 "/>
   <polygon id="_293566744" class="fil1" points="432.339,376.646 438.602,395.924 458.872,395.924 442.473,407.838 448.736,427.121 432.339,415.204 415.939,427.121 422.202,407.838 405.804,395.924 426.074,395.924 "/>
   <polygon id="_293566672" class="fil1" points="342.171,376.646 348.436,395.924 368.705,395.924 352.307,407.838 358.57,427.121 342.171,415.204 325.773,427.121 332.035,407.838 315.638,395.924 335.907,395.924 "/>
   <polygon id="_293566600" class="fil1" points="252.004,376.646 258.268,395.924 278.538,395.924 262.141,407.838 268.403,427.121 252.004,415.204 235.606,427.121 241.87,407.838 225.47,395.924 245.74,395.924 "/>
   <polygon id="_293565592" class="fil1" points="161.837,376.646 168.103,395.924 188.37,395.924 171.973,407.838 178.235,427.121 161.837,415.204 145.44,427.121 151.702,407.838 135.304,395.924 155.572,395.924 "/>
   <polygon id="_293565568" class="fil1" points="71.6693,376.646 77.935,395.924 98.2051,395.924 81.8067,407.838 88.0689,427.121 71.6693,415.204 55.272,427.121 61.5343,407.838 45.1358,395.924 65.4059,395.924 "/>
  </g>
 </g>
</svg>
