<?xml version="1.0" encoding="UTF-8"?>
<!DOCTYPE svg PUBLIC "-//W3C//DTD SVG 1.1//EN" "http://www.w3.org/Graphics/SVG/1.1/DTD/svg11.dtd">
<!-- Creator: CorelDRAW -->
<svg xmlns="http://www.w3.org/2000/svg" xml:space="preserve" width="1710px" height="900px" style="shape-rendering:geometricPrecision; text-rendering:geometricPrecision; image-rendering:optimizeQuality; fill-rule:evenodd; clip-rule:evenodd"
viewBox="0 0 1710 900"
 xmlns:xlink="http://www.w3.org/1999/xlink">
 <defs>
  <style type="text/css">
   <![CDATA[
    .fil2 {fill:#002868}
    .fil0 {fill:#BF0A30}
    .fil1 {fill:white}
   ]]>
  </style>
 </defs>
 <g id="Layer_x0020_1">
  <metadata id="CorelCorpID_0Corel-Layer"/>
  <polygon class="fil0" points="0.0011811,0 1710,0 1710,899.999 0.0011811,899.999 "/>
  <polygon class="fil1" points="-0.56811,761.538 1709.43,761.538 1709.43,830.769 -0.56811,830.769 "/>
  <polygon class="fil1" points="-0.56811,69.2315 1709.43,69.2315 1709.43,138.462 -0.56811,138.462 "/>
  <polygon class="fil1" points="-0.56811,207.692 1709.43,207.692 1709.43,276.924 -0.56811,276.924 "/>
  <polygon class="fil1" points="-0.56811,346.154 1709.43,346.154 1709.43,415.384 -0.56811,415.384 "/>
  <polygon class="fil1" points="-0.56811,484.616 1709.43,484.616 1709.43,553.846 -0.56811,553.846 "/>
  <polygon class="fil1" points="-0.56811,623.076 1709.43,623.076 1709.43,692.308 -0.56811,692.308 "/>
  <polygon class="fil2" points="0.284646,484.616 684.058,484.616 684.058,0.0011811 0.284646,0.0011811 "/>
  <g id="_293564440">
   <polygon id="_295315608" class="fil1" points="599.172,39.4925 605.435,58.7705 625.706,58.7705 609.308,70.6854 615.57,89.9681 599.172,78.0508 582.775,89.9681 589.035,70.6854 572.637,58.7705 592.907,58.7705 "/>
   <polygon id="_295315536" class="fil1" points="496.371,39.4925 502.636,58.7705 522.905,58.7705 506.506,70.6854 512.769,89.9681 496.371,78.0508 479.973,89.9681 486.235,70.6854 469.838,58.7705 490.106,58.7705 "/>
   <polygon id="_256182008" class="fil1" points="393.573,39.4925 399.836,58.7705 420.106,58.7705 403.708,70.6854 409.97,89.9681 393.573,78.0508 377.173,89.9681 383.435,70.6854 367.038,58.7705 387.307,58.7705 "/>
   <polygon id="_256181936" class="fil1" points="290.77,39.4925 297.035,58.7705 317.304,58.7705 300.907,70.6854 307.169,89.9681 290.77,78.0508 274.372,89.9681 280.635,70.6854 264.236,58.7705 284.506,58.7705 "/>
   <polygon id="_256181864" class="fil1" points="187.971,39.4925 194.237,58.7705 214.505,58.7705 198.107,70.6854 204.37,89.9681 187.971,78.0508 171.574,89.9681 177.836,70.6854 161.438,58.7705 181.707,58.7705 "/>
   <polygon id="_255587896" class="fil1" points="85.1705,39.4925 91.435,58.7705 111.705,58.7705 95.3079,70.6854 101.568,89.9681 85.1705,78.0508 68.772,89.9681 75.0343,70.6854 58.637,58.7705 78.9071,58.7705 "/>
   <polygon id="_295822664" class="fil1" points="599.172,217.07 605.435,236.348 625.706,236.348 609.308,248.263 615.57,267.544 599.172,255.627 582.775,267.544 589.035,248.263 572.637,236.348 592.907,236.348 "/>
   <polygon id="_295823888" class="fil1" points="496.371,217.07 502.636,236.348 522.905,236.348 506.506,248.263 512.769,267.544 496.371,255.627 479.973,267.544 486.235,248.263 469.838,236.348 490.106,236.348 "/>
   <polygon id="_295823816" class="fil1" points="393.573,217.07 399.836,236.348 420.106,236.348 403.708,248.263 409.97,267.544 393.573,255.627 377.173,267.544 383.435,248.263 367.038,236.348 387.307,236.348 "/>
   <polygon id="_295823744" class="fil1" points="290.77,217.07 297.035,236.348 317.304,236.348 300.907,248.263 307.169,267.544 290.77,255.627 274.372,267.544 280.635,248.263 264.236,236.348 284.506,236.348 "/>
   <polygon id="_295823672" class="fil1" points="187.971,217.07 194.237,236.348 214.505,236.348 198.107,248.263 204.37,267.544 187.971,255.627 171.574,267.544 177.836,248.263 161.438,236.348 181.707,236.348 "/>
   <polygon id="_295823600" class="fil1" points="85.1705,217.07 91.435,236.348 111.705,236.348 95.3079,248.263 101.568,267.544 85.1705,255.627 68.772,267.544 75.0343,248.263 58.637,236.348 78.9071,236.348 "/>
   <polygon id="_295835624" class="fil1" points="599.172,128.281 605.435,147.559 625.706,147.559 609.308,159.472 615.57,178.756 599.172,166.838 582.775,178.756 589.035,159.472 572.637,147.559 592.907,147.559 "/>
   <polygon id="_293562904" class="fil1" points="496.371,128.281 502.636,147.559 522.905,147.559 506.506,159.472 512.769,178.756 496.371,166.838 479.973,178.756 486.235,159.472 469.838,147.559 490.106,147.559 "/>
   <polygon id="_293563216" class="fil1" points="393.573,128.281 399.836,147.559 420.106,147.559 403.708,159.472 409.97,178.756 393.573,166.838 377.173,178.756 383.435,159.472 367.038,147.559 387.307,147.559 "/>
   <polygon id="_293563120" class="fil1" points="290.77,128.281 297.035,147.559 317.304,147.559 300.907,159.472 307.169,178.756 290.77,166.838 274.372,178.756 280.635,159.472 264.236,147.559 284.506,147.559 "/>
   <polygon id="_293561032" class="fil1" points="187.971,128.281 194.237,147.559 214.505,147.559 198.107,159.472 204.37,178.756 187.971,166.838 171.574,178.756 177.836,159.472 161.438,147.559 181.707,147.559 "/>
   <polygon id="_293566432" class="fil1" points="85.1705,128.281 91.435,147.559 111.705,147.559 95.3079,159.472 101.568,178.756 85.1705,166.838 68.772,178.756 75.0343,159.472 58.637,147.559 78.9071,147.559 "/>
   <polygon id="_293565784" class="fil1" points="599.172,305.858 605.435,325.137 625.706,325.137 609.308,337.05 615.57,356.334 599.172,344.417 582.775,356.334 589.035,337.05 572.637,325.137 592.907,325.137 "/>
   <polygon id="_293562088" class="fil1" points="496.371,305.858 502.636,325.137 522.905,325.137 506.506,337.05 512.769,356.334 496.371,344.417 479.973,356.334 486.235,337.05 469.838,325.137 490.106,325.137 "/>
   <polygon id="_293566528" class="fil1" points="393.573,305.858 399.836,325.137 420.106,325.137 403.708,337.05 409.97,356.334 393.573,344.417 377.173,356.334 383.435,337.05 367.038,325.137 387.307,325.137 "/>
   <polygon id="_293566456" class="fil1" points="290.77,305.858 297.035,325.137 317.304,325.137 300.907,337.05 307.169,356.334 290.77,344.417 274.372,356.334 280.635,337.05 264.236,325.137 284.506,325.137 "/>
   <polygon id="_293562856" class="fil1" points="187.971,305.858 194.237,325.137 214.505,325.137 198.107,337.05 204.37,356.334 187.971,344.417 171.574,356.334 177.836,337.05 161.438,325.137 181.707,325.137 "/>
   <polygon id="_293564464" class="fil1" points="85.1705,305.858 91.435,325.137 111.705,325.137 95.3079,337.05 101.568,356.334 85.1705,344.417 68.772,356.334 75.0343,337.05 58.637,325.137 78.9071,325.137 "/>
   <polygon id="_293566216" class="fil1" points="599.172,394.645 605.435,413.924 625.706,413.924 609.308,425.838 615.57,445.122 599.172,433.202 582.775,445.122 589.035,425.838 572.637,413.924 592.907,413.924 "/>
   <polygon id="_293560144" class="fil1" points="496.371,394.645 502.636,413.924 522.905,413.924 506.506,425.838 512.769,445.122 496.371,433.202 479.973,445.122 486.235,425.838 469.838,413.924 490.106,413.924 "/>
   <polygon id="_293560120" class="fil1" points="393.573,394.645 399.836,413.924 420.106,413.924 403.708,425.838 409.97,445.122 393.573,433.202 377.173,445.122 383.435,425.838 367.038,413.924 387.307,413.924 "/>
   <polygon id="_293560696" class="fil1" points="290.77,394.645 297.035,413.924 317.304,413.924 300.907,425.838 307.169,445.122 290.77,433.202 274.372,445.122 280.635,425.838 264.236,413.924 284.506,413.924 "/>
   <polygon id="_293566408" class="fil1" points="187.971,394.645 194.237,413.924 214.505,413.924 198.107,425.838 204.37,445.122 187.971,433.202 171.574,445.122 177.836,425.838 161.438,413.924 181.707,413.924 "/>
   <polygon id="_293564512" class="fil1" points="85.1705,394.645 91.435,413.924 111.705,413.924 95.3079,425.838 101.568,445.122 85.1705,433.202 68.772,445.122 75.0343,425.838 58.637,413.924 78.9071,413.924 "/>
  </g>
 </g>
</svg>
