<?xml version="1.0" encoding="UTF-8"?>
<svg xmlns="http://www.w3.org/2000/svg" xmlns:xlink="http://www.w3.org/1999/xlink" width="1235" height="650">
	<rect width="1235" height="650" fill="#fff"/>
	<rect width="1235" height="50" fill="#bf0a30"/>
	<rect y="100" width="1235" height="50" fill="#bf0a30"/>
	<rect y="200" width="1235" height="50" fill="#bf0a30"/>
	<rect y="300" width="1235" height="50" fill="#bf0a30"/>
	<rect y="400" width="1235" height="50" fill="#bf0a30"/>
	<rect y="500" width="1235" height="50" fill="#bf0a30"/>
	<rect y="600" width="1235" height="50" fill="#bf0a30"/>
	<rect width="410" height="350" fill="#002868"/>
	<g id="star" transform="translate(205,45)" fill="#fff">
		<g id="c">
			<path id="t" d="M 0,-26 V 0 H 15" transform="rotate(18 0,-26)"/>
			<use xlink:href="#t" transform="scale(-1,1)"/>
		</g>
		<use xlink:href="#c" transform="rotate(72)"/>
		<use xlink:href="#c" transform="rotate(144)"/>
		<use xlink:href="#c" transform="rotate(216)"/>
		<use xlink:href="#c" transform="rotate(288)"/>
	</g>
	<use xlink:href="#star" transform="rotate(30 205,175)"/>
	<use xlink:href="#star" transform="rotate(60 205,175)"/>
	<use xlink:href="#star" transform="rotate(90 205,175)"/>
	<use xlink:href="#star" transform="rotate(120 205,175)"/>
	<use xlink:href="#star" transform="rotate(150 205,175)"/>
	<use xlink:href="#star" transform="rotate(180 205,175)"/>
	<use xlink:href="#star" transform="rotate(210 205,175)"/>
	<use xlink:href="#star" transform="rotate(240 205,175)"/>
	<use xlink:href="#star" transform="rotate(270 205,175)"/>
	<use xlink:href="#star" transform="rotate(300 205,175)"/>
	<use xlink:href="#star" transform="rotate(330 205,175)"/>
	<use xlink:href="#star" y="130"/>
</svg>