<?xml version="1.0" encoding="UTF-8"?>
<!DOCTYPE svg PUBLIC "-//W3C//DTD SVG 1.1//EN" "http://www.w3.org/Graphics/SVG/1.1/DTD/svg11.dtd">
<!-- Creator: CorelDRAW -->
<svg xmlns="http://www.w3.org/2000/svg" xml:space="preserve" width="1710px" height="900px" style="shape-rendering:geometricPrecision; text-rendering:geometricPrecision; image-rendering:optimizeQuality; fill-rule:evenodd; clip-rule:evenodd"
viewBox="0 0 1710 900"
 xmlns:xlink="http://www.w3.org/1999/xlink">
 <defs>
  <style type="text/css">
   <![CDATA[
    .fil2 {fill:#002868}
    .fil0 {fill:#BF0A30}
    .fil1 {fill:white}
   ]]>
  </style>
 </defs>
 <g id="Layer_x0020_1">
  <metadata id="CorelCorpID_0Corel-Layer"/>
  <polygon class="fil0" points="0.0011811,0 1710,0 1710,899.999 0.0011811,899.999 "/>
  <polygon class="fil1" points="-0.56811,761.538 1709.43,761.538 1709.43,830.769 -0.56811,830.769 "/>
  <polygon class="fil1" points="-0.56811,69.2315 1709.43,69.2315 1709.43,138.462 -0.56811,138.462 "/>
  <polygon class="fil1" points="-0.56811,207.692 1709.43,207.692 1709.43,276.924 -0.56811,276.924 "/>
  <polygon class="fil1" points="-0.56811,346.154 1709.43,346.154 1709.43,415.384 -0.56811,415.384 "/>
  <polygon class="fil1" points="-0.56811,484.616 1709.43,484.616 1709.43,553.846 -0.56811,553.846 "/>
  <polygon class="fil1" points="-0.56811,623.076 1709.43,623.076 1709.43,692.308 -0.56811,692.308 "/>
  <polygon class="fil2" points="0.284646,484.616 684.058,484.616 684.058,0.0011811 0.284646,0.0011811 "/>
  <g id="_295827392">
   <polygon id="_253570448" class="fil1" points="612.673,39.4925 618.937,58.7705 639.207,58.7705 622.808,70.6854 629.07,89.9681 612.673,78.0508 596.274,89.9681 602.536,70.6854 586.137,58.7705 606.407,58.7705 "/>
   <polygon id="_253570376" class="fil1" points="522.506,39.4925 528.77,58.7705 549.039,58.7705 532.641,70.6854 538.903,89.9681 522.506,78.0508 506.107,89.9681 512.369,70.6854 495.972,58.7705 516.24,58.7705 "/>
   <polygon id="_253570304" class="fil1" points="432.339,39.4925 438.602,58.7705 458.872,58.7705 442.473,70.6854 448.736,89.9681 432.339,78.0508 415.939,89.9681 422.202,70.6854 405.804,58.7705 426.074,58.7705 "/>
   <polygon id="_253570232" class="fil1" points="342.171,39.4925 348.436,58.7705 368.705,58.7705 352.307,70.6854 358.57,89.9681 342.171,78.0508 325.773,89.9681 332.035,70.6854 315.638,58.7705 335.907,58.7705 "/>
   <polygon id="_253570160" class="fil1" points="252.004,39.4925 258.268,58.7705 278.538,58.7705 262.141,70.6854 268.403,89.9681 252.004,78.0508 235.606,89.9681 241.87,70.6854 225.47,58.7705 245.74,58.7705 "/>
   <polygon id="_253428728" class="fil1" points="161.837,39.4925 168.103,58.7705 188.37,58.7705 171.973,70.6854 178.235,89.9681 161.837,78.0508 145.44,89.9681 151.702,70.6854 135.304,58.7705 155.572,58.7705 "/>
   <polygon id="_293566360" class="fil1" points="71.6693,39.4925 77.935,58.7705 98.2051,58.7705 81.8067,70.6854 88.0689,89.9681 71.6693,78.0508 55.272,89.9681 61.5343,70.6854 45.1358,58.7705 65.4059,58.7705 "/>
   <polygon id="_293568424" class="fil1" points="522.506,128.281 528.77,147.559 549.039,147.559 532.641,159.472 538.903,178.756 522.506,166.838 506.107,178.756 512.369,159.472 495.972,147.559 516.24,147.559 "/>
   <polygon id="_293566480" class="fil1" points="432.339,128.281 438.602,147.559 458.872,147.559 442.473,159.472 448.736,178.756 432.339,166.838 415.939,178.756 422.202,159.472 405.804,147.559 426.074,147.559 "/>
   <polygon id="_293560936" class="fil1" points="342.171,128.281 348.436,147.559 368.705,147.559 352.307,159.472 358.57,178.756 342.171,166.838 325.773,178.756 332.035,159.472 315.638,147.559 335.907,147.559 "/>
   <polygon id="_293566384" class="fil1" points="252.004,128.281 258.268,147.559 278.538,147.559 262.141,159.472 268.403,178.756 252.004,166.838 235.606,178.756 241.87,159.472 225.47,147.559 245.74,147.559 "/>
   <polygon id="_293566312" class="fil1" points="161.837,128.281 168.103,147.559 188.37,147.559 171.973,159.472 178.235,178.756 161.837,166.838 145.44,178.756 151.702,159.472 135.304,147.559 155.572,147.559 "/>
   <polygon id="_295315680" class="fil1" points="567.588,217.07 573.853,236.348 594.123,236.348 577.724,248.263 583.988,267.544 567.588,255.627 551.191,267.544 557.453,248.263 541.055,236.348 561.325,236.348 "/>
   <polygon id="_293564488" class="fil1" points="477.422,217.07 483.687,236.348 503.955,236.348 487.558,248.263 493.82,267.544 477.422,255.627 461.024,267.544 467.287,248.263 450.887,236.348 471.157,236.348 "/>
   <polygon id="_293566336" class="fil1" points="387.254,217.07 393.52,236.348 413.79,236.348 397.39,248.263 403.654,267.544 387.254,255.627 370.857,267.544 377.119,248.263 360.72,236.348 380.991,236.348 "/>
   <polygon id="_293567392" class="fil1" points="297.089,217.07 303.352,236.348 323.622,236.348 307.224,248.263 313.486,267.544 297.089,255.627 280.69,267.544 286.952,248.263 270.553,236.348 290.823,236.348 "/>
   <polygon id="_293567464" class="fil1" points="206.921,217.07 213.185,236.348 233.456,236.348 217.056,248.263 223.318,267.544 206.921,255.627 190.522,267.544 196.785,248.263 180.387,236.348 200.655,236.348 "/>
   <polygon id="_293568520" class="fil1" points="116.754,217.07 123.018,236.348 143.288,236.348 126.889,248.263 133.152,267.544 116.754,255.627 100.355,267.544 106.618,248.263 90.2209,236.348 110.49,236.348 "/>
   <polygon id="_293568544" class="fil1" points="567.588,305.858 573.853,325.137 594.123,325.137 577.724,337.05 583.988,356.334 567.588,344.417 551.191,356.334 557.453,337.05 541.055,325.137 561.325,325.137 "/>
   <polygon id="_293568496" class="fil1" points="477.422,305.858 483.687,325.137 503.955,325.137 487.558,337.05 493.82,356.334 477.422,344.417 461.024,356.334 467.287,337.05 450.887,325.137 471.157,325.137 "/>
   <polygon id="_293568568" class="fil1" points="387.254,305.858 393.52,325.137 413.79,325.137 397.39,337.05 403.654,356.334 387.254,344.417 370.857,356.334 377.119,337.05 360.72,325.137 380.991,325.137 "/>
   <polygon id="_293568592" class="fil1" points="297.089,305.858 303.352,325.137 323.622,325.137 307.224,337.05 313.486,356.334 297.089,344.417 280.69,356.334 286.952,337.05 270.553,325.137 290.823,325.137 "/>
   <polygon id="_293559832" class="fil1" points="206.921,305.858 213.185,325.137 233.456,325.137 217.056,337.05 223.318,356.334 206.921,344.417 190.522,356.334 196.785,337.05 180.387,325.137 200.655,325.137 "/>
   <polygon id="_293568616" class="fil1" points="116.754,305.858 123.018,325.137 143.288,325.137 126.889,337.05 133.152,356.334 116.754,344.417 100.355,356.334 106.618,337.05 90.2209,325.137 110.49,325.137 "/>
   <polygon id="_295823960" class="fil1" points="612.673,394.645 618.937,413.924 639.207,413.924 622.808,425.838 629.07,445.122 612.673,433.202 596.274,445.122 602.536,425.838 586.137,413.924 606.407,413.924 "/>
   <polygon id="_295822280" class="fil1" points="522.506,394.645 528.77,413.924 549.039,413.924 532.641,425.838 538.903,445.122 522.506,433.202 506.107,445.122 512.369,425.838 495.972,413.924 516.24,413.924 "/>
   <polygon id="_295822496" class="fil1" points="432.339,394.645 438.602,413.924 458.872,413.924 442.473,425.838 448.736,445.122 432.339,433.202 415.939,445.122 422.202,425.838 405.804,413.924 426.074,413.924 "/>
   <polygon id="_295822088" class="fil1" points="342.171,394.645 348.436,413.924 368.705,413.924 352.307,425.838 358.57,445.122 342.171,433.202 325.773,445.122 332.035,425.838 315.638,413.924 335.907,413.924 "/>
   <polygon id="_295822112" class="fil1" points="252.004,394.645 258.268,413.924 278.538,413.924 262.141,425.838 268.403,445.122 252.004,433.202 235.606,445.122 241.87,425.838 225.47,413.924 245.74,413.924 "/>
   <polygon id="_295822256" class="fil1" points="161.837,394.645 168.103,413.924 188.37,413.924 171.973,425.838 178.235,445.122 161.837,433.202 145.44,445.122 151.702,425.838 135.304,413.924 155.572,413.924 "/>
   <polygon id="_293563168" class="fil1" points="71.6693,394.645 77.935,413.924 98.2051,413.924 81.8067,425.838 88.0689,445.122 71.6693,433.202 55.272,445.122 61.5343,425.838 45.1358,413.924 65.4059,413.924 "/>
  </g>
 </g>
</svg>
