<?xml version="1.0" encoding="UTF-8"?>
<!DOCTYPE svg PUBLIC "-//W3C//DTD SVG 1.1//EN" "http://www.w3.org/Graphics/SVG/1.1/DTD/svg11.dtd">
<!-- Creator: CorelDRAW -->
<svg xmlns="http://www.w3.org/2000/svg" xml:space="preserve" width="1710px" height="900px" style="shape-rendering:geometricPrecision; text-rendering:geometricPrecision; image-rendering:optimizeQuality; fill-rule:evenodd; clip-rule:evenodd"
viewBox="0 0 1710 900"
 xmlns:xlink="http://www.w3.org/1999/xlink">
 <defs>
  <style type="text/css">
   <![CDATA[
    .fil2 {fill:#002868}
    .fil0 {fill:#BF0A30}
    .fil1 {fill:white}
   ]]>
  </style>
 </defs>
 <g id="Layer_x0020_1">
  <metadata id="CorelCorpID_0Corel-Layer"/>
  <polygon class="fil0" points="0.0011811,0 1710,0 1710,899.999 0.0011811,899.999 "/>
  <polygon class="fil1" points="-0.56811,761.538 1709.43,761.538 1709.43,830.769 -0.56811,830.769 "/>
  <polygon class="fil1" points="-0.56811,69.2315 1709.43,69.2315 1709.43,138.462 -0.56811,138.462 "/>
  <polygon class="fil1" points="-0.56811,207.692 1709.43,207.692 1709.43,276.924 -0.56811,276.924 "/>
  <polygon class="fil1" points="-0.56811,346.154 1709.43,346.154 1709.43,415.384 -0.56811,415.384 "/>
  <polygon class="fil1" points="-0.56811,484.616 1709.43,484.616 1709.43,553.846 -0.56811,553.846 "/>
  <polygon class="fil1" points="-0.56811,623.076 1709.43,623.076 1709.43,692.308 -0.56811,692.308 "/>
  <polygon class="fil2" points="0.284646,484.616 684.058,484.616 684.058,0.0011811 0.284646,0.0011811 "/>
  <g id="_293559472">
   <polygon id="_293567536" class="fil1" points="612.673,39.4937 618.937,58.7717 639.207,58.7717 622.808,70.6866 629.07,89.9693 612.673,78.052 596.274,89.9693 602.536,70.6866 586.137,58.7717 606.407,58.7717 "/>
   <polygon id="_293567608" class="fil1" points="522.506,39.4937 528.77,58.7717 549.039,58.7717 532.641,70.6866 538.903,89.9693 522.506,78.052 506.107,89.9693 512.369,70.6866 495.972,58.7717 516.24,58.7717 "/>
   <polygon id="_293567680" class="fil1" points="432.339,39.4937 438.602,58.7717 458.872,58.7717 442.473,70.6866 448.736,89.9693 432.339,78.052 415.939,89.9693 422.202,70.6866 405.804,58.7717 426.074,58.7717 "/>
   <polygon id="_293568184" class="fil1" points="342.171,39.4937 348.436,58.7717 368.705,58.7717 352.307,70.6866 358.57,89.9693 342.171,78.052 325.773,89.9693 332.035,70.6866 315.638,58.7717 335.907,58.7717 "/>
   <polygon id="_293567752" class="fil1" points="252.004,39.4937 258.268,58.7717 278.538,58.7717 262.141,70.6866 268.403,89.9693 252.004,78.052 235.606,89.9693 241.87,70.6866 225.47,58.7717 245.74,58.7717 "/>
   <polygon id="_295826792" class="fil1" points="161.837,39.4937 168.103,58.7717 188.37,58.7717 171.973,70.6866 178.235,89.9693 161.837,78.052 145.44,89.9693 151.702,70.6866 135.304,58.7717 155.572,58.7717 "/>
   <polygon id="_293565520" class="fil1" points="71.6693,39.4937 77.935,58.7717 98.2051,58.7717 81.8067,70.6866 88.0689,89.9693 71.6693,78.052 55.272,89.9693 61.5343,70.6866 45.1358,58.7717 65.4059,58.7717 "/>
   <polygon id="_295834304" class="fil1" points="612.673,217.071 618.937,236.349 639.207,236.349 622.808,248.264 629.07,267.546 612.673,255.628 596.274,267.546 602.536,248.264 586.137,236.349 606.407,236.349 "/>
   <polygon id="_295834232" class="fil1" points="522.506,217.071 528.77,236.349 549.039,236.349 532.641,248.264 538.903,267.546 522.506,255.628 506.107,267.546 512.369,248.264 495.972,236.349 516.24,236.349 "/>
   <polygon id="_295834160" class="fil1" points="432.339,217.071 438.602,236.349 458.872,236.349 442.473,248.264 448.736,267.546 432.339,255.628 415.939,267.546 422.202,248.264 405.804,236.349 426.074,236.349 "/>
   <polygon id="_295834088" class="fil1" points="342.171,217.071 348.436,236.349 368.705,236.349 352.307,248.264 358.57,267.546 342.171,255.628 325.773,267.546 332.035,248.264 315.638,236.349 335.907,236.349 "/>
   <polygon id="_295834016" class="fil1" points="252.004,217.071 258.268,236.349 278.538,236.349 262.141,248.264 268.403,267.546 252.004,255.628 235.606,267.546 241.87,248.264 225.47,236.349 245.74,236.349 "/>
   <polygon id="_295826000" class="fil1" points="161.837,217.071 168.103,236.349 188.37,236.349 171.973,248.264 178.235,267.546 161.837,255.628 145.44,267.546 151.702,248.264 135.304,236.349 155.572,236.349 "/>
   <polygon id="_295823384" class="fil1" points="71.6693,217.071 77.935,236.349 98.2051,236.349 81.8067,248.264 88.0689,267.546 71.6693,255.628 55.272,267.546 61.5343,248.264 45.1358,236.349 65.4059,236.349 "/>
   <polygon id="_295823312" class="fil1" points="612.673,128.282 618.937,147.56 639.207,147.56 622.808,159.474 629.07,178.757 612.673,166.839 596.274,178.757 602.536,159.474 586.137,147.56 606.407,147.56 "/>
   <polygon id="_295823240" class="fil1" points="522.506,128.282 528.77,147.56 549.039,147.56 532.641,159.474 538.903,178.757 522.506,166.839 506.107,178.757 512.369,159.474 495.972,147.56 516.24,147.56 "/>
   <polygon id="_295823168" class="fil1" points="432.339,128.282 438.602,147.56 458.872,147.56 442.473,159.474 448.736,178.757 432.339,166.839 415.939,178.757 422.202,159.474 405.804,147.56 426.074,147.56 "/>
   <polygon id="_295823096" class="fil1" points="342.171,128.282 348.436,147.56 368.705,147.56 352.307,159.474 358.57,178.757 342.171,166.839 325.773,178.757 332.035,159.474 315.638,147.56 335.907,147.56 "/>
   <polygon id="_295823024" class="fil1" points="252.004,128.282 258.268,147.56 278.538,147.56 262.141,159.474 268.403,178.757 252.004,166.839 235.606,178.757 241.87,159.474 225.47,147.56 245.74,147.56 "/>
   <polygon id="_295822952" class="fil1" points="161.837,128.282 168.103,147.56 188.37,147.56 171.973,159.474 178.235,178.757 161.837,166.839 145.44,178.757 151.702,159.474 135.304,147.56 155.572,147.56 "/>
   <polygon id="_295822880" class="fil1" points="71.6693,128.282 77.935,147.56 98.2051,147.56 81.8067,159.474 88.0689,178.757 71.6693,166.839 55.272,178.757 61.5343,159.474 45.1358,147.56 65.4059,147.56 "/>
   <polygon id="_295822808" class="fil1" points="612.673,305.859 618.937,325.139 639.207,325.139 622.808,337.051 629.07,356.335 612.673,344.418 596.274,356.335 602.536,337.051 586.137,325.139 606.407,325.139 "/>
   <polygon id="_295821248" class="fil1" points="522.506,305.859 528.77,325.139 549.039,325.139 532.641,337.051 538.903,356.335 522.506,344.418 506.107,356.335 512.369,337.051 495.972,325.139 516.24,325.139 "/>
   <polygon id="_295822016" class="fil1" points="432.339,305.859 438.602,325.139 458.872,325.139 442.473,337.051 448.736,356.335 432.339,344.418 415.939,356.335 422.202,337.051 405.804,325.139 426.074,325.139 "/>
   <polygon id="_295821416" class="fil1" points="342.171,305.859 348.436,325.139 368.705,325.139 352.307,337.051 358.57,356.335 342.171,344.418 325.773,356.335 332.035,337.051 315.638,325.139 335.907,325.139 "/>
   <polygon id="_295820336" class="fil1" points="252.004,305.859 258.268,325.139 278.538,325.139 262.141,337.051 268.403,356.335 252.004,344.418 235.606,356.335 241.87,337.051 225.47,325.139 245.74,325.139 "/>
   <polygon id="_295821296" class="fil1" points="161.837,305.859 168.103,325.139 188.37,325.139 171.973,337.051 178.235,356.335 161.837,344.418 145.44,356.335 151.702,337.051 135.304,325.139 155.572,325.139 "/>
   <polygon id="_295822616" class="fil1" points="71.6693,305.859 77.935,325.139 98.2051,325.139 81.8067,337.051 88.0689,356.335 71.6693,344.418 55.272,356.335 61.5343,337.051 45.1358,325.139 65.4059,325.139 "/>
   <polygon id="_295822760" class="fil1" points="612.673,394.646 618.937,413.926 639.207,413.926 622.808,425.839 629.07,445.123 612.673,433.204 596.274,445.123 602.536,425.839 586.137,413.926 606.407,413.926 "/>
   <polygon id="_295834376" class="fil1" points="522.506,394.646 528.77,413.926 549.039,413.926 532.641,425.839 538.903,445.123 522.506,433.204 506.107,445.123 512.369,425.839 495.972,413.926 516.24,413.926 "/>
   <polygon id="_293565352" class="fil1" points="432.339,394.646 438.602,413.926 458.872,413.926 442.473,425.839 448.736,445.123 432.339,433.204 415.939,445.123 422.202,425.839 405.804,413.926 426.074,413.926 "/>
   <polygon id="_293565208" class="fil1" points="342.171,394.646 348.436,413.926 368.705,413.926 352.307,425.839 358.57,445.123 342.171,433.204 325.773,445.123 332.035,425.839 315.638,413.926 335.907,413.926 "/>
   <polygon id="_293563072" class="fil1" points="252.004,394.646 258.268,413.926 278.538,413.926 262.141,425.839 268.403,445.123 252.004,433.204 235.606,445.123 241.87,425.839 225.47,413.926 245.74,413.926 "/>
   <polygon id="_293562880" class="fil1" points="161.837,394.646 168.103,413.926 188.37,413.926 171.973,425.839 178.235,445.123 161.837,433.204 145.44,445.123 151.702,425.839 135.304,413.926 155.572,413.926 "/>
   <polygon id="_293560168" class="fil1" points="71.6693,394.646 77.935,413.926 98.2051,413.926 81.8067,425.839 88.0689,445.123 71.6693,433.204 55.272,445.123 61.5343,425.839 45.1358,413.926 65.4059,413.926 "/>
  </g>
 </g>
</svg>
