<?xml version="1.0" encoding="UTF-8"?>
<!DOCTYPE svg PUBLIC "-//W3C//DTD SVG 1.1//EN" "http://www.w3.org/Graphics/SVG/1.1/DTD/svg11.dtd">
<!-- Creator: CorelDRAW -->
<svg xmlns="http://www.w3.org/2000/svg" xml:space="preserve" width="1900px" height="1000px" style="shape-rendering:geometricPrecision; text-rendering:geometricPrecision; image-rendering:optimizeQuality; fill-rule:evenodd; clip-rule:evenodd"
viewBox="0 0 1900 1000"
 xmlns:xlink="http://www.w3.org/1999/xlink">
 <defs>
  <style type="text/css">
   <![CDATA[
    .fil0 {fill:white}
    .fil2 {fill:#01204E}
    .fil1 {fill:#D10429}
   ]]>
  </style>
 </defs>
 <g id="Layer_x0020_1">
  <metadata id="CorelCorpID_0Corel-Layer"/>
  <polygon class="fil0" points="-0,615.381 1900,615.381 1900,538.457 -0,538.457 "/>
  <polygon class="fil1" points="-0,923.073 1900,923.073 1900,999.996 -0,999.996 "/>
  <polygon class="fil0" points="-0,923.073 1900,923.073 1900,846.149 -0,846.149 "/>
  <polygon class="fil1" points="-0,769.227 1900,769.227 1900,846.15 -0,846.15 "/>
  <polygon class="fil0" points="-0,769.226 1900,769.226 1900,692.303 -0,692.303 "/>
  <polygon class="fil1" points="-0,615.381 1900,615.381 1900,692.305 -0,692.305 "/>
  <polygon class="fil1" points="-0,461.535 1900,461.535 1900,538.458 -0,538.458 "/>
  <polygon class="fil0" points="-0,461.534 1900,461.534 1900,384.611 -0,384.611 "/>
  <polygon class="fil1" points="-0,307.688 1900,307.688 1900,384.612 -0,384.612 "/>
  <polygon class="fil0" points="-0,307.688 1900,307.688 1900,230.764 -0,230.764 "/>
  <polygon class="fil1" points="-0,153.842 1900,153.842 1900,230.765 -0,230.765 "/>
  <polygon class="fil0" points="-0,153.841 1900,153.841 1900,76.9181 -0,76.9181 "/>
  <polygon class="fil1" points="-0,-0.00472441 1900,-0.00472441 1900,76.9193 -0,76.9193 "/>
  <polygon class="fil2" points="1.20236,538.462 760.699,538.462 760.699,0.00236221 1.20236,0.00236221 "/>
 </g>
 <g id="Layer_x0020_1_0">
  <metadata id="CorelCorpID_1Corel-Layer"/>
  <polygon id="_293560120" class="fil0" points="690.175,43.8803 697.134,65.2996 719.657,65.2996 701.437,78.5386 708.395,99.9638 690.175,86.7225 671.955,99.9638 678.913,78.5386 660.691,65.2996 683.214,65.2996 "/>
  <polygon id="_293560144" class="fil0" points="601.444,43.8803 608.405,65.2996 630.926,65.2996 612.708,78.5386 619.666,99.9638 601.444,86.7225 583.224,99.9638 590.182,78.5386 571.962,65.2996 594.484,65.2996 "/>
  <polygon id="_293566216" class="fil0" points="512.713,43.8803 519.675,65.2996 542.197,65.2996 523.976,78.5386 530.933,99.9638 512.713,86.7225 494.494,99.9638 501.451,78.5386 483.232,65.2996 505.754,65.2996 "/>
  <polygon id="_293564464" class="fil0" points="423.984,43.8803 430.943,65.2996 453.466,65.2996 435.246,78.5386 442.204,99.9638 423.984,86.7225 405.762,99.9638 412.72,78.5386 394.5,65.2996 417.021,65.2996 "/>
  <polygon id="_293562856" class="fil0" points="335.251,43.8803 342.213,65.2996 364.736,65.2996 346.515,78.5386 353.473,99.9638 335.251,86.7225 317.032,99.9638 323.991,78.5386 305.77,65.2996 328.292,65.2996 "/>
  <polygon id="_293568424" class="fil0" points="246.522,43.8803 253.481,65.2996 276.005,65.2996 257.784,78.5386 264.742,99.9638 246.522,86.7225 228.302,99.9638 235.26,78.5386 217.038,65.2996 239.561,65.2996 "/>
  <polygon id="_293566480" class="fil0" points="157.792,43.8803 164.752,65.2996 187.273,65.2996 169.055,78.5386 176.013,99.9638 157.792,86.7225 139.571,99.9638 146.529,78.5386 128.309,65.2996 150.832,65.2996 "/>
  <polygon id="_293560120_1" class="fil0" points="690.175,339.843 697.134,361.263 719.657,361.263 701.437,374.502 708.395,395.927 690.175,382.686 671.955,395.927 678.913,374.502 660.691,361.263 683.214,361.263 "/>
  <polygon id="_293560144_2" class="fil0" points="601.444,339.843 608.405,361.263 630.926,361.263 612.708,374.502 619.666,395.927 601.444,382.686 583.224,395.927 590.182,374.502 571.962,361.263 594.484,361.263 "/>
  <polygon id="_293566216_3" class="fil0" points="512.713,339.843 519.675,361.263 542.197,361.263 523.976,374.502 530.933,395.927 512.713,382.686 494.494,395.927 501.451,374.502 483.232,361.263 505.754,361.263 "/>
  <polygon id="_293564464_4" class="fil0" points="423.984,339.843 430.943,361.263 453.466,361.263 435.246,374.502 442.204,395.927 423.984,382.686 405.762,395.927 412.72,374.502 394.5,361.263 417.021,361.263 "/>
  <polygon id="_293562856_5" class="fil0" points="335.251,339.843 342.213,361.263 364.736,361.263 346.515,374.502 353.473,395.927 335.251,382.686 317.032,395.927 323.991,374.502 305.77,361.263 328.292,361.263 "/>
  <polygon id="_293568424_6" class="fil0" points="246.522,339.843 253.481,361.263 276.005,361.263 257.784,374.502 264.742,395.927 246.522,382.686 228.302,395.927 235.26,374.502 217.038,361.263 239.561,361.263 "/>
  <polygon id="_293566480_7" class="fil0" points="157.792,339.843 164.752,361.263 187.273,361.263 169.055,374.502 176.013,395.927 157.792,382.686 139.571,395.927 146.529,374.502 128.309,361.263 150.832,361.263 "/>
  <polygon id="_293560936" class="fil0" points="69.0614,339.843 76.0217,361.263 98.5441,361.263 80.3221,374.502 87.28,395.927 69.0614,382.686 50.8406,395.927 57.7984,374.502 39.5799,361.263 62.1012,361.263 "/>
  <polygon id="_293560120_8" class="fil0" points="690.175,241.188 697.134,262.608 719.657,262.608 701.437,275.847 708.395,297.272 690.175,284.03 671.955,297.272 678.913,275.847 660.691,262.608 683.214,262.608 "/>
  <polygon id="_293560144_9" class="fil0" points="601.444,241.188 608.405,262.608 630.926,262.608 612.708,275.847 619.666,297.272 601.444,284.03 583.224,297.272 590.182,275.847 571.962,262.608 594.484,262.608 "/>
  <polygon id="_293566216_10" class="fil0" points="512.713,241.188 519.675,262.608 542.197,262.608 523.976,275.847 530.933,297.272 512.713,284.03 494.494,297.272 501.451,275.847 483.232,262.608 505.754,262.608 "/>
  <polygon id="_293564464_11" class="fil0" points="423.984,241.188 430.943,262.608 453.466,262.608 435.246,275.847 442.204,297.272 423.984,284.03 405.762,297.272 412.72,275.847 394.5,262.608 417.021,262.608 "/>
  <polygon id="_293562856_12" class="fil0" points="335.251,241.188 342.213,262.608 364.736,262.608 346.515,275.847 353.473,297.272 335.251,284.03 317.032,297.272 323.991,275.847 305.77,262.608 328.292,262.608 "/>
  <polygon id="_293568424_13" class="fil0" points="246.522,241.188 253.481,262.608 276.005,262.608 257.784,275.847 264.742,297.272 246.522,284.03 228.302,297.272 235.26,275.847 217.038,262.608 239.561,262.608 "/>
  <polygon id="_293566480_14" class="fil0" points="157.792,241.188 164.752,262.608 187.273,262.608 169.055,275.847 176.013,297.272 157.792,284.03 139.571,297.272 146.529,275.847 128.309,262.608 150.832,262.608 "/>
  <polygon id="_293560120_15" class="fil0" points="690.175,142.534 697.134,163.954 719.657,163.954 701.437,177.193 708.395,198.618 690.175,185.376 671.955,198.618 678.913,177.193 660.691,163.954 683.214,163.954 "/>
  <polygon id="_293560144_16" class="fil0" points="601.444,142.534 608.405,163.954 630.926,163.954 612.708,177.193 619.666,198.618 601.444,185.376 583.224,198.618 590.182,177.193 571.962,163.954 594.484,163.954 "/>
  <polygon id="_293566216_17" class="fil0" points="512.713,142.534 519.675,163.954 542.197,163.954 523.976,177.193 530.933,198.618 512.713,185.376 494.494,198.618 501.451,177.193 483.232,163.954 505.754,163.954 "/>
  <polygon id="_293564464_18" class="fil0" points="423.984,142.534 430.943,163.954 453.466,163.954 435.246,177.193 442.204,198.618 423.984,185.376 405.762,198.618 412.72,177.193 394.5,163.954 417.021,163.954 "/>
  <polygon id="_293562856_19" class="fil0" points="335.251,142.534 342.213,163.954 364.736,163.954 346.515,177.193 353.473,198.618 335.251,185.376 317.032,198.618 323.991,177.193 305.77,163.954 328.292,163.954 "/>
  <polygon id="_293568424_20" class="fil0" points="246.522,142.534 253.481,163.954 276.005,163.954 257.784,177.193 264.742,198.618 246.522,185.376 228.302,198.618 235.26,177.193 217.038,163.954 239.561,163.954 "/>
  <polygon id="_293566480_21" class="fil0" points="157.792,142.534 164.752,163.954 187.273,163.954 169.055,177.193 176.013,198.618 157.792,185.376 139.571,198.618 146.529,177.193 128.309,163.954 150.832,163.954 "/>
  <polygon id="_293560936_22" class="fil0" points="69.0614,142.534 76.0217,163.954 98.5441,163.954 80.3221,177.193 87.28,198.618 69.0614,185.376 50.8406,198.618 57.7984,177.193 39.5799,163.954 62.1012,163.954 "/>
  <polygon id="_96273624" class="fil0" points="690.175,438.495 697.134,459.917 719.657,459.917 701.437,473.153 708.395,494.58 690.175,481.337 671.955,494.58 678.913,473.153 660.691,459.917 683.214,459.917 "/>
  <polygon id="_96273672" class="fil0" points="601.444,438.495 608.405,459.917 630.926,459.917 612.708,473.153 619.666,494.58 601.444,481.337 583.224,494.58 590.182,473.153 571.962,459.917 594.484,459.917 "/>
  <polygon id="_253570544" class="fil0" points="512.713,438.495 519.675,459.917 542.197,459.917 523.976,473.153 530.933,494.58 512.713,481.337 494.494,494.58 501.451,473.153 483.232,459.917 505.754,459.917 "/>
  <polygon id="_253570568" class="fil0" points="423.984,438.495 430.943,459.917 453.466,459.917 435.246,473.153 442.204,494.58 423.984,481.337 405.762,494.58 412.72,473.153 394.5,459.917 417.021,459.917 "/>
  <polygon id="_301857664" class="fil0" points="335.251,438.495 342.213,459.917 364.736,459.917 346.515,473.153 353.473,494.58 335.251,481.337 317.032,494.58 323.991,473.153 305.77,459.917 328.292,459.917 "/>
  <polygon id="_295315704" class="fil0" points="246.522,438.495 253.481,459.917 276.005,459.917 257.784,473.153 264.742,494.58 246.522,481.337 228.302,494.58 235.26,473.153 217.038,459.917 239.561,459.917 "/>
  <polygon id="_302831920" class="fil0" points="157.792,438.495 164.752,459.917 187.273,459.917 169.055,473.153 176.013,494.58 157.792,481.337 139.571,494.58 146.529,473.153 128.309,459.917 150.832,459.917 "/>
 </g>
</svg>
