<?xml version="1.0" encoding="UTF-8"?>
<!DOCTYPE svg PUBLIC "-//W3C//DTD SVG 1.1//EN" "http://www.w3.org/Graphics/SVG/1.1/DTD/svg11.dtd">
<!-- Creator: CorelDRAW -->
<svg xmlns="http://www.w3.org/2000/svg" xml:space="preserve" width="1710px" height="900px" style="shape-rendering:geometricPrecision; text-rendering:geometricPrecision; image-rendering:optimizeQuality; fill-rule:evenodd; clip-rule:evenodd"
viewBox="0 0 1710 900"
 xmlns:xlink="http://www.w3.org/1999/xlink">
 <defs>
  <style type="text/css">
   <![CDATA[
    .fil2 {fill:#002868}
    .fil0 {fill:#BF0A30}
    .fil1 {fill:white}
   ]]>
  </style>
 </defs>
 <g id="Layer_x0020_1">
  <metadata id="CorelCorpID_0Corel-Layer"/>
  <polygon class="fil0" points="0.0011811,0 1710,0 1710,899.999 0.0011811,899.999 "/>
  <polygon class="fil1" points="-0.56811,761.538 1709.43,761.538 1709.43,830.769 -0.56811,830.769 "/>
  <polygon class="fil1" points="-0.56811,69.2315 1709.43,69.2315 1709.43,138.462 -0.56811,138.462 "/>
  <polygon class="fil1" points="-0.56811,207.692 1709.43,207.692 1709.43,276.924 -0.56811,276.924 "/>
  <polygon class="fil1" points="-0.56811,346.154 1709.43,346.154 1709.43,415.384 -0.56811,415.384 "/>
  <polygon class="fil1" points="-0.56811,484.616 1709.43,484.616 1709.43,553.846 -0.56811,553.846 "/>
  <polygon class="fil1" points="-0.56811,623.076 1709.43,623.076 1709.43,692.308 -0.56811,692.308 "/>
  <polygon class="fil2" points="0.284646,484.616 684.058,484.616 684.058,0.0011811 0.284646,0.0011811 "/>
  <g id="_295823456">
   <polygon id="_295835552" class="fil1" points="621.672,57.4937 627.935,76.7717 648.206,76.7717 631.808,88.6866 638.07,107.968 621.672,96.0508 605.275,107.968 611.537,88.6866 595.137,76.7717 615.407,76.7717 "/>
   <polygon id="_295835480" class="fil1" points="541.814,57.4937 548.079,76.7717 568.349,76.7717 551.952,88.6866 558.214,107.968 541.814,96.0508 525.416,107.968 531.678,88.6866 515.281,76.7717 535.551,76.7717 "/>
   <polygon id="_295835408" class="fil1" points="461.957,57.4937 468.222,76.7717 488.492,76.7717 472.093,88.6866 478.355,107.968 461.957,96.0508 445.559,107.968 451.821,88.6866 435.424,76.7717 455.694,76.7717 "/>
   <polygon id="_295835336" class="fil1" points="382.101,57.4937 388.364,76.7717 408.634,76.7717 392.236,88.6866 398.498,107.968 382.101,96.0508 365.701,107.968 371.963,88.6866 355.565,76.7717 375.835,76.7717 "/>
   <polygon id="_295835264" class="fil1" points="302.242,57.4937 308.507,76.7717 328.778,76.7717 312.379,88.6866 318.641,107.968 302.242,96.0508 285.844,107.968 292.107,88.6866 275.708,76.7717 295.978,76.7717 "/>
   <polygon id="_295835192" class="fil1" points="222.385,57.4937 228.648,76.7717 248.919,76.7717 232.521,88.6866 238.783,107.968 222.385,96.0508 205.988,107.968 212.25,88.6866 195.85,76.7717 216.12,76.7717 "/>
   <polygon id="_293559472" class="fil1" points="142.528,57.4937 148.792,76.7717 169.062,76.7717 152.665,88.6866 158.927,107.968 142.528,96.0508 126.129,107.968 132.391,88.6866 115.994,76.7717 136.264,76.7717 "/>
   <polygon id="_293560168" class="fil1" points="62.6705,57.4937 68.935,76.7717 89.2051,76.7717 72.8055,88.6866 79.0677,107.968 62.6705,96.0508 46.272,107.968 52.5343,88.6866 36.137,76.7717 56.4071,76.7717 "/>
   <polygon id="_293562880" class="fil1" points="581.744,163.877 588.008,183.155 608.278,183.155 591.879,195.069 598.141,214.35 581.744,202.433 565.345,214.35 571.607,195.069 555.21,183.155 575.478,183.155 "/>
   <polygon id="_293563072" class="fil1" points="501.886,163.877 508.15,183.155 528.42,183.155 512.022,195.069 518.284,214.35 501.886,202.433 485.487,214.35 491.751,195.069 475.351,183.155 495.621,183.155 "/>
   <polygon id="_293565208" class="fil1" points="422.028,163.877 428.293,183.155 448.563,183.155 432.165,195.069 438.428,214.35 422.028,202.433 405.631,214.35 411.893,195.069 395.494,183.155 415.765,183.155 "/>
   <polygon id="_293565352" class="fil1" points="342.171,163.877 348.436,183.155 368.705,183.155 352.307,195.069 358.57,214.35 342.171,202.433 325.773,214.35 332.035,195.069 315.638,183.155 335.907,183.155 "/>
   <polygon id="_295834376" class="fil1" points="262.315,163.877 268.578,183.155 288.848,183.155 272.45,195.069 278.712,214.35 262.315,202.433 245.915,214.35 252.177,195.069 235.78,183.155 256.05,183.155 "/>
   <polygon id="_295822760" class="fil1" points="182.458,163.877 188.721,183.155 208.991,183.155 192.592,195.069 198.855,214.35 182.458,202.433 166.058,214.35 172.32,195.069 155.922,183.155 176.192,183.155 "/>
   <polygon id="_295822616" class="fil1" points="102.599,163.877 108.865,183.155 129.132,183.155 112.735,195.069 118.997,214.35 102.599,202.433 86.2016,214.35 92.4638,195.069 76.0642,183.155 96.3343,183.155 "/>
   <polygon id="_295821296" class="fil1" points="541.814,270.26 548.079,289.544 568.349,289.544 551.952,301.453 558.214,320.737 541.814,308.819 525.416,320.737 531.678,301.453 515.281,289.544 535.551,289.544 "/>
   <polygon id="_295820336" class="fil1" points="461.957,270.26 468.222,289.544 488.492,289.544 472.093,301.453 478.355,320.737 461.957,308.819 445.559,320.737 451.821,301.453 435.424,289.544 455.694,289.544 "/>
   <polygon id="_295821416" class="fil1" points="382.101,270.26 388.364,289.544 408.634,289.544 392.236,301.453 398.498,320.737 382.101,308.819 365.701,320.737 371.963,301.453 355.565,289.544 375.835,289.544 "/>
   <polygon id="_295822016" class="fil1" points="302.242,270.26 308.507,289.544 328.778,289.544 312.379,301.453 318.641,320.737 302.242,308.819 285.844,320.737 292.107,301.453 275.708,289.544 295.978,289.544 "/>
   <polygon id="_295821248" class="fil1" points="222.385,270.26 228.648,289.544 248.919,289.544 232.521,301.453 238.783,320.737 222.385,308.819 205.988,320.737 212.25,301.453 195.85,289.544 216.12,289.544 "/>
   <polygon id="_295822808" class="fil1" points="142.528,270.26 148.792,289.544 169.062,289.544 152.665,301.453 158.927,320.737 142.528,308.819 126.129,320.737 132.391,301.453 115.994,289.544 136.264,289.544 "/>
   <polygon id="_295822880" class="fil1" points="621.672,376.646 627.935,395.924 648.206,395.924 631.808,407.838 638.07,427.121 621.672,415.204 605.275,427.121 611.537,407.838 595.137,395.924 615.407,395.924 "/>
   <polygon id="_295822952" class="fil1" points="541.814,376.646 548.079,395.924 568.349,395.924 551.952,407.838 558.214,427.121 541.814,415.204 525.416,427.121 531.678,407.838 515.281,395.924 535.551,395.924 "/>
   <polygon id="_295823024" class="fil1" points="461.957,376.646 468.222,395.924 488.492,395.924 472.093,407.838 478.355,427.121 461.957,415.204 445.559,427.121 451.821,407.838 435.424,395.924 455.694,395.924 "/>
   <polygon id="_295823096" class="fil1" points="382.101,376.646 388.364,395.924 408.634,395.924 392.236,407.838 398.498,427.121 382.101,415.204 365.701,427.121 371.963,407.838 355.565,395.924 375.835,395.924 "/>
   <polygon id="_295823168" class="fil1" points="302.242,376.646 308.507,395.924 328.778,395.924 312.379,407.838 318.641,427.121 302.242,415.204 285.844,427.121 292.107,407.838 275.708,395.924 295.978,395.924 "/>
   <polygon id="_295823240" class="fil1" points="222.385,376.646 228.648,395.924 248.919,395.924 232.521,407.838 238.783,427.121 222.385,415.204 205.988,427.121 212.25,407.838 195.85,395.924 216.12,395.924 "/>
   <polygon id="_295823312" class="fil1" points="142.528,376.646 148.792,395.924 169.062,395.924 152.665,407.838 158.927,427.121 142.528,415.204 126.129,427.121 132.391,407.838 115.994,395.924 136.264,395.924 "/>
   <polygon id="_295823384" class="fil1" points="62.6705,376.646 68.935,395.924 89.2051,395.924 72.8055,407.838 79.0677,427.121 62.6705,415.204 46.272,427.121 52.5343,407.838 36.137,395.924 56.4071,395.924 "/>
  </g>
 </g>
</svg>
