<?xml version="1.0" encoding="UTF-8" standalone="no"?>
<svg
   xmlns:dc="http://purl.org/dc/elements/1.1/"
   xmlns:cc="http://web.resource.org/cc/"
   xmlns:rdf="http://www.w3.org/1999/02/22-rdf-syntax-ns#"
   xmlns:svg="http://www.w3.org/2000/svg"
   xmlns="http://www.w3.org/2000/svg"
   xmlns:sodipodi="http://inkscape.sourceforge.net/DTD/sodipodi-0.dtd"
   xmlns:inkscape="http://www.inkscape.org/namespaces/inkscape"
   version="1.1"
   width="1330"
   height="700"
   id="Flag of the United States"
   viewBox="0 0 18525 9750"
   sodipodi:version="0.32"
   inkscape:version="0.43"
   sodipodi:docname="US_36_Star_Wagon_Wheel_Flag.svg"
   sodipodi:docbase="d:\Dateien\Wikipediazeugs\USA">
  <metadata
     id="metadata36">
    <rdf:RDF>
      <cc:Work
         rdf:about="">
        <dc:format>image/svg+xml</dc:format>
        <dc:type
           rdf:resource="http://purl.org/dc/dcmitype/StillImage" />
      </cc:Work>
    </rdf:RDF>
  </metadata>
  <defs
     id="defs34" />
  <sodipodi:namedview
     inkscape:window-height="840"
     inkscape:window-width="1050"
     inkscape:pageshadow="2"
     inkscape:pageopacity="0.0"
     borderopacity="1.0"
     bordercolor="#666666"
     pagecolor="#ffffff"
     id="base"
     inkscape:zoom="1.5549371"
     inkscape:cx="265.9149"
     inkscape:cy="494.97621"
     inkscape:window-x="145"
     inkscape:window-y="69"
     inkscape:current-layer="Flag of the United States"
     showguides="true"
     inkscape:guide-bbox="true">
    <sodipodi:guide
       orientation="horizontal"
       position="701.87668"
       id="guide1357" />
    <sodipodi:guide
       orientation="horizontal"
       position="328.41823"
       id="guide1359" />
  </sodipodi:namedview>
  <rect
     width="100%"
     height="100%"
     fill="#bf0a30"
     id="red background" />
  <g
     fill="white"
     id="g4">
    <rect
       width="100%"
       height="750"
       y="750"
       id="rect6" />
    <rect
       width="100%"
       height="750"
       y="2250"
       id="rect8" />
    <rect
       width="100%"
       height="750"
       y="3750"
       id="rect10" />
    <rect
       width="100%"
       height="750"
       y="5250"
       id="rect12" />
    <rect
       width="100%"
       height="750"
       y="6750"
       id="rect14" />
    <rect
       width="100%"
       height="750"
       y="8250"
       id="rect16" />
  </g>
  <rect
     id="blue field"
     width="7410"
     height="5250"
     fill="#002868" />
  <g
     id="g1538"
     transform="translate(-24.93429,28.20292)">
    <g
       transform="matrix(0.769211,0,0,0.769211,3273.878,24.61455)"
       id="star row 9">
      <polygon
         points="0,-1 0.58778525,0.80901699 -0.95105652,-0.30901699 0.95105652,-0.30901699 -0.58778525,0.80901699 0,-1 "
         transform="matrix(300.3,0,0,300.3,617.5,525)"
         id="polygon1529"
         style="fill:#ffffff" />
    </g>
    <g
       transform="matrix(0.769211,0,0,0.769211,2586.275,79.95363)"
       id="g1398">
      <polygon
         points="0,-1 0.58778525,0.80901699 -0.95105652,-0.30901699 0.95105652,-0.30901699 -0.58778525,0.80901699 0,-1 "
         transform="matrix(300.3,0,0,300.3,617.5,525)"
         id="polygon1400"
         style="fill:#ffffff" />
    </g>
    <g
       transform="matrix(0.769211,0,0,0.769211,1980.291,393.3934)"
       id="g1402">
      <polygon
         points="0,-1 0.58778525,0.80901699 -0.95105652,-0.30901699 0.95105652,-0.30901699 -0.58778525,0.80901699 0,-1 "
         transform="matrix(300.3,0,0,300.3,617.5,525)"
         id="polygon1404"
         style="fill:#ffffff" />
    </g>
    <g
       transform="matrix(0.769211,0,0,0.769211,1468.339,832.2095)"
       id="g1406">
      <polygon
         points="0,-1 0.58778525,0.80901699 -0.95105652,-0.30901699 0.95105652,-0.30901699 -0.58778525,0.80901699 0,-1 "
         transform="matrix(300.3,0,0,300.3,617.5,525)"
         id="polygon1408"
         style="fill:#ffffff" />
    </g>
    <g
       transform="matrix(0.769211,0,0,0.769211,1175.796,1500.881)"
       id="g1410">
      <polygon
         points="0,-1 0.58778525,0.80901699 -0.95105652,-0.30901699 0.95105652,-0.30901699 -0.58778525,0.80901699 0,-1 "
         transform="matrix(300.3,0,0,300.3,617.5,525)"
         id="polygon1412"
         style="fill:#ffffff" />
    </g>
    <g
       transform="matrix(0.769211,0,0,0.769211,1092.211,2200.896)"
       id="g1414">
      <polygon
         points="0,-1 0.58778525,0.80901699 -0.95105652,-0.30901699 0.95105652,-0.30901699 -0.58778525,0.80901699 0,-1 "
         transform="matrix(300.3,0,0,300.3,617.5,525)"
         id="polygon1416"
         style="fill:#ffffff" />
    </g>
    <g
       transform="matrix(0.769211,0,0,0.769211,1165.348,2932.256)"
       id="g1418">
      <polygon
         points="0,-1 0.58778525,0.80901699 -0.95105652,-0.30901699 0.95105652,-0.30901699 -0.58778525,0.80901699 0,-1 "
         transform="matrix(300.3,0,0,300.3,617.5,525)"
         id="polygon1420"
         style="fill:#ffffff" />
    </g>
    <g
       transform="matrix(0.769211,0,0,0.769211,1468.339,3580.032)"
       id="g1422">
      <polygon
         points="0,-1 0.58778525,0.80901699 -0.95105652,-0.30901699 0.95105652,-0.30901699 -0.58778525,0.80901699 0,-1 "
         transform="matrix(300.3,0,0,300.3,617.5,525)"
         id="polygon1424"
         style="fill:#ffffff" />
    </g>
    <g
       transform="matrix(0.769211,0,0,0.769211,1948.947,4060.64)"
       id="g1426">
      <polygon
         points="0,-1 0.58778525,0.80901699 -0.95105652,-0.30901699 0.95105652,-0.30901699 -0.58778525,0.80901699 0,-1 "
         transform="matrix(300.3,0,0,300.3,617.5,525)"
         id="polygon1428"
         style="fill:#ffffff" />
    </g>
    <g
       transform="matrix(0.769211,0,0,0.769211,2575.827,4342.736)"
       id="g1430">
      <polygon
         points="0,-1 0.58778525,0.80901699 -0.95105652,-0.30901699 0.95105652,-0.30901699 -0.58778525,0.80901699 0,-1 "
         transform="matrix(300.3,0,0,300.3,617.5,525)"
         id="polygon1432"
         style="fill:#ffffff" />
    </g>
    <g
       transform="matrix(0.769211,0,0,0.769211,3275.843,4405.424)"
       id="g1434">
      <polygon
         points="0,-1 0.58778525,0.80901699 -0.95105652,-0.30901699 0.95105652,-0.30901699 -0.58778525,0.80901699 0,-1 "
         transform="matrix(300.3,0,0,300.3,617.5,525)"
         id="polygon1436"
         style="fill:#ffffff" />
    </g>
    <g
       transform="matrix(0.769211,0,0,0.769211,3954.962,4353.184)"
       id="g1438">
      <polygon
         points="0,-1 0.58778525,0.80901699 -0.95105652,-0.30901699 0.95105652,-0.30901699 -0.58778525,0.80901699 0,-1 "
         transform="matrix(300.3,0,0,300.3,617.5,525)"
         id="polygon1440"
         style="fill:#ffffff" />
    </g>
    <g
       transform="matrix(0.769211,0,0,0.769211,4592.29,4071.089)"
       id="g1442">
      <polygon
         points="0,-1 0.58778525,0.80901699 -0.95105652,-0.30901699 0.95105652,-0.30901699 -0.58778525,0.80901699 0,-1 "
         transform="matrix(300.3,0,0,300.3,617.5,525)"
         id="polygon1444"
         style="fill:#ffffff" />
    </g>
    <g
       transform="matrix(0.769211,0,0,0.769211,5052.002,3590.48)"
       id="g1446">
      <polygon
         points="0,-1 0.58778525,0.80901699 -0.95105652,-0.30901699 0.95105652,-0.30901699 -0.58778525,0.80901699 0,-1 "
         transform="matrix(300.3,0,0,300.3,617.5,525)"
         id="polygon1448"
         style="fill:#ffffff" />
    </g>
    <g
       transform="matrix(0.769211,0,0,0.769211,5344.546,2911.36)"
       id="g1450">
      <polygon
         points="0,-1 0.58778525,0.80901699 -0.95105652,-0.30901699 0.95105652,-0.30901699 -0.58778525,0.80901699 0,-1 "
         transform="matrix(300.3,0,0,300.3,617.5,525)"
         id="polygon1452"
         style="fill:#ffffff" />
    </g>
    <g
       transform="matrix(0.769211,0,0,0.769211,5417.682,2211.345)"
       id="g1454">
      <polygon
         points="0,-1 0.58778525,0.80901699 -0.95105652,-0.30901699 0.95105652,-0.30901699 -0.58778525,0.80901699 0,-1 "
         transform="matrix(300.3,0,0,300.3,617.5,525)"
         id="polygon1456"
         style="fill:#ffffff" />
    </g>
    <g
       transform="matrix(0.769211,0,0,0.769211,5344.546,1500.881)"
       id="g1458">
      <polygon
         points="0,-1 0.58778525,0.80901699 -0.95105652,-0.30901699 0.95105652,-0.30901699 -0.58778525,0.80901699 0,-1 "
         transform="matrix(300.3,0,0,300.3,617.5,525)"
         id="polygon1460"
         style="fill:#ffffff" />
    </g>
    <g
       transform="matrix(0.769211,0,0,0.769211,5083.346,811.3134)"
       id="g1462">
      <polygon
         points="0,-1 0.58778525,0.80901699 -0.95105652,-0.30901699 0.95105652,-0.30901699 -0.58778525,0.80901699 0,-1 "
         transform="matrix(300.3,0,0,300.3,617.5,525)"
         id="polygon1464"
         style="fill:#ffffff" />
    </g>
    <g
       transform="matrix(0.769211,0,0,0.769211,4560.946,403.8416)"
       id="g1466">
      <polygon
         points="0,-1 0.58778525,0.80901699 -0.95105652,-0.30901699 0.95105652,-0.30901699 -0.58778525,0.80901699 0,-1 "
         transform="matrix(300.3,0,0,300.3,617.5,525)"
         id="polygon1468"
         style="fill:#ffffff" />
    </g>
    <g
       transform="matrix(0.769211,0,0,0.769211,3941.13,88.10406)"
       id="g1470">
      <polygon
         points="0,-1 0.58778525,0.80901699 -0.95105652,-0.30901699 0.95105652,-0.30901699 -0.58778525,0.80901699 0,-1 "
         transform="matrix(300.3,0,0,300.3,617.5,525)"
         id="polygon1472"
         style="fill:#ffffff" />
    </g>
    <g
       transform="matrix(0.769211,0,0,0.769211,2821.424,777.8426)"
       id="g1474">
      <polygon
         points="0,-1 0.58778525,0.80901699 -0.95105652,-0.30901699 0.95105652,-0.30901699 -0.58778525,0.80901699 0,-1 "
         transform="matrix(300.3,0,0,300.3,617.5,525)"
         id="polygon1476"
         style="fill:#ffffff" />
    </g>
    <g
       transform="matrix(0.769211,0,0,0.769211,2203.347,1351.131)"
       id="g1478">
      <polygon
         points="0,-1 0.58778525,0.80901699 -0.95105652,-0.30901699 0.95105652,-0.30901699 -0.58778525,0.80901699 0,-1 "
         transform="matrix(300.3,0,0,300.3,617.5,525)"
         id="polygon1480"
         style="fill:#ffffff" />
    </g>
    <g
       transform="matrix(0.769211,0,0,0.769211,1907.746,2211.065)"
       id="g1482">
      <polygon
         points="0,-1 0.58778525,0.80901699 -0.95105652,-0.30901699 0.95105652,-0.30901699 -0.58778525,0.80901699 0,-1 "
         transform="matrix(300.3,0,0,300.3,617.5,525)"
         id="polygon1484"
         style="fill:#ffffff" />
    </g>
    <g
       transform="matrix(0.769211,0,0,0.769211,2140.644,3035.169)"
       id="g1486">
      <polygon
         points="0,-1 0.58778525,0.80901699 -0.95105652,-0.30901699 0.95105652,-0.30901699 -0.58778525,0.80901699 0,-1 "
         transform="matrix(300.3,0,0,300.3,617.5,525)"
         id="polygon1488"
         style="fill:#ffffff" />
    </g>
    <g
       transform="matrix(0.769211,0,0,0.769211,2893.086,3608.458)"
       id="g1490">
      <polygon
         points="0,-1 0.58778525,0.80901699 -0.95105652,-0.30901699 0.95105652,-0.30901699 -0.58778525,0.80901699 0,-1 "
         transform="matrix(300.3,0,0,300.3,617.5,525)"
         id="polygon1492"
         style="fill:#ffffff" />
    </g>
    <g
       transform="matrix(0.769211,0,0,0.769211,3654.486,3617.415)"
       id="g1494">
      <polygon
         points="0,-1 0.58778525,0.80901699 -0.95105652,-0.30901699 0.95105652,-0.30901699 -0.58778525,0.80901699 0,-1 "
         transform="matrix(300.3,0,0,300.3,617.5,525)"
         id="polygon1496"
         style="fill:#ffffff" />
    </g>
    <g
       transform="matrix(0.769211,0,0,0.769211,4397.97,3053.084)"
       id="g1498">
      <polygon
         points="0,-1 0.58778525,0.80901699 -0.95105652,-0.30901699 0.95105652,-0.30901699 -0.58778525,0.80901699 0,-1 "
         transform="matrix(300.3,0,0,300.3,617.5,525)"
         id="polygon1500"
         style="fill:#ffffff" />
    </g>
    <g
       transform="matrix(0.769211,0,0,0.769211,4603.996,2211.066)"
       id="g1502">
      <polygon
         points="0,-1 0.58778525,0.80901699 -0.95105652,-0.30901699 0.95105652,-0.30901699 -0.58778525,0.80901699 0,-1 "
         transform="matrix(300.3,0,0,300.3,617.5,525)"
         id="polygon1504"
         style="fill:#ffffff" />
    </g>
    <g
       transform="matrix(0.769211,0,0,0.769211,4326.309,1369.047)"
       id="g1506">
      <polygon
         points="0,-1 0.58778525,0.80901699 -0.95105652,-0.30901699 0.95105652,-0.30901699 -0.58778525,0.80901699 0,-1 "
         transform="matrix(300.3,0,0,300.3,617.5,525)"
         id="polygon1508"
         style="fill:#ffffff" />
    </g>
    <g
       transform="matrix(0.769211,0,0,0.769211,3690.316,786.7997)"
       id="g1510">
      <polygon
         points="0,-1 0.58778525,0.80901699 -0.95105652,-0.30901699 0.95105652,-0.30901699 -0.58778525,0.80901699 0,-1 "
         transform="matrix(300.3,0,0,300.3,617.5,525)"
         id="polygon1512"
         style="fill:#ffffff" />
    </g>
    <g
       transform="matrix(0.769211,0,0,0.769211,3260.349,1395.92)"
       id="g1514">
      <polygon
         points="0,-1 0.58778525,0.80901699 -0.95105652,-0.30901699 0.95105652,-0.30901699 -0.58778525,0.80901699 0,-1 "
         transform="matrix(300.3,0,0,300.3,617.5,525)"
         id="polygon1516"
         style="fill:#ffffff" />
    </g>
    <g
       transform="matrix(0.769211,0,0,0.769211,2597.484,1960.251)"
       id="g1518">
      <polygon
         points="0,-1 0.58778525,0.80901699 -0.95105652,-0.30901699 0.95105652,-0.30901699 -0.58778525,0.80901699 0,-1 "
         transform="matrix(300.3,0,0,300.3,617.5,525)"
         id="polygon1520"
         style="fill:#ffffff" />
    </g>
    <g
       transform="matrix(0.769211,0,0,0.769211,3932.173,1960.251)"
       id="g1522">
      <polygon
         points="0,-1 0.58778525,0.80901699 -0.95105652,-0.30901699 0.95105652,-0.30901699 -0.58778525,0.80901699 0,-1 "
         transform="matrix(300.3,0,0,300.3,617.5,525)"
         id="polygon1524"
         style="fill:#ffffff" />
    </g>
    <g
       transform="matrix(0.769211,0,0,0.769211,3260.349,2202.108)"
       id="g1526">
      <polygon
         points="0,-1 0.58778525,0.80901699 -0.95105652,-0.30901699 0.95105652,-0.30901699 -0.58778525,0.80901699 0,-1 "
         transform="matrix(300.3,0,0,300.3,617.5,525)"
         id="polygon1528"
         style="fill:#ffffff" />
    </g>
    <g
       transform="matrix(0.769211,0,0,0.769211,2839.341,2811.227)"
       id="g1530">
      <polygon
         points="0,-1 0.58778525,0.80901699 -0.95105652,-0.30901699 0.95105652,-0.30901699 -0.58778525,0.80901699 0,-1 "
         transform="matrix(300.3,0,0,300.3,617.5,525)"
         id="polygon1532"
         style="fill:#ffffff" />
    </g>
    <g
       transform="matrix(0.769211,0,0,0.769211,3690.316,2820.185)"
       id="g1534">
      <polygon
         points="0,-1 0.58778525,0.80901699 -0.95105652,-0.30901699 0.95105652,-0.30901699 -0.58778525,0.80901699 0,-1 "
         transform="matrix(300.3,0,0,300.3,617.5,525)"
         id="polygon1536"
         style="fill:#ffffff" />
    </g>
  </g>
</svg>
