<?xml version="1.0" encoding="UTF-8" standalone="no"?>
<svg
   xmlns:dc="http://purl.org/dc/elements/1.1/"
   xmlns:cc="http://web.resource.org/cc/"
   xmlns:rdf="http://www.w3.org/1999/02/22-rdf-syntax-ns#"
   xmlns:svg="http://www.w3.org/2000/svg"
   xmlns="http://www.w3.org/2000/svg"
   xmlns:sodipodi="http://inkscape.sourceforge.net/DTD/sodipodi-0.dtd"
   xmlns:inkscape="http://www.inkscape.org/namespaces/inkscape"
   version="1.1"
   width="1330"
   height="700"
   id="Flag of the United States"
   viewBox="0 0 18525 9750"
   sodipodi:version="0.32"
   inkscape:version="0.43"
   sodipodi:docname="US_37_Star_Medallion_Centennial_Flag.svg"
   sodipodi:docbase="d:\Dateien\Wikipediazeugs\USA">
  <metadata
     id="metadata36">
    <rdf:RDF>
      <cc:Work
         rdf:about="">
        <dc:format>image/svg+xml</dc:format>
        <dc:type
           rdf:resource="http://purl.org/dc/dcmitype/StillImage" />
      </cc:Work>
    </rdf:RDF>
  </metadata>
  <defs
     id="defs34" />
  <sodipodi:namedview
     inkscape:window-height="840"
     inkscape:window-width="1050"
     inkscape:pageshadow="2"
     inkscape:pageopacity="0.0"
     borderopacity="1.0"
     bordercolor="#666666"
     pagecolor="#ffffff"
     id="base"
     inkscape:zoom="1.2946312"
     inkscape:cx="294.63807"
     inkscape:cy="471.98392"
     inkscape:window-x="1302"
     inkscape:window-y="54"
     inkscape:current-layer="Flag of the United States" />
  <rect
     width="100%"
     height="100%"
     fill="#bf0a30"
     id="red background" />
  <g
     fill="white"
     id="g4">
    <rect
       width="100%"
       height="750"
       y="750"
       id="rect6" />
    <rect
       width="100%"
       height="750"
       y="2250"
       id="rect8" />
    <rect
       width="100%"
       height="750"
       y="3750"
       id="rect10" />
    <rect
       width="100%"
       height="750"
       y="5250"
       id="rect12" />
    <rect
       width="100%"
       height="750"
       y="6750"
       id="rect14" />
    <rect
       width="100%"
       height="750"
       y="8250"
       id="rect16" />
  </g>
  <rect
     id="blue field"
     fill="#002868"
     width="7410"
     height="5250" />
  <g
     id="g1579"
     transform="translate(14.75991,59.04607)">
    <g
       id="g1501">
      <g
         id="star row 9"
         transform="matrix(0.782151,0,0,0.782151,2914.275,-6.180623)">
        <polygon
           style="fill:#ffffff"
           id="polygon1529"
           transform="matrix(300.3,0,0,300.3,617.5,525)"
           points="0,-1 0.58778525,0.80901699 -0.95105652,-0.30901699 0.95105652,-0.30901699 -0.58778525,0.80901699 0,-1 " />
      </g>
      <g
         id="g1357"
         transform="matrix(0.782151,0,0,0.782151,2325.047,135.2392)">
        <polygon
           style="fill:#ffffff"
           id="polygon1359"
           transform="matrix(300.3,0,0,300.3,617.5,525)"
           points="0,-1 0.58778525,0.80901699 -0.95105652,-0.30901699 0.95105652,-0.30901699 -0.58778525,0.80901699 0,-1 " />
      </g>
      <g
         id="g1361"
         transform="matrix(0.782151,0,0,0.782151,1825.726,397.8673)">
        <polygon
           style="fill:#ffffff"
           id="polygon1363"
           transform="matrix(300.3,0,0,300.3,617.5,525)"
           points="0,-1 0.58778525,0.80901699 -0.95105652,-0.30901699 0.95105652,-0.30901699 -0.58778525,0.80901699 0,-1 " />
      </g>
      <g
         id="g1365"
         transform="matrix(0.782151,0,0,0.782151,1395.378,806.6988)">
        <polygon
           style="fill:#ffffff"
           id="polygon1367"
           transform="matrix(300.3,0,0,300.3,617.5,525)"
           points="0,-1 0.58778525,0.80901699 -0.95105652,-0.30901699 0.95105652,-0.30901699 -0.58778525,0.80901699 0,-1 " />
      </g>
      <g
         id="g1369"
         transform="matrix(0.782151,0,0,0.782151,1115.652,1301.6)">
        <polygon
           style="fill:#ffffff"
           id="polygon1371"
           transform="matrix(300.3,0,0,300.3,617.5,525)"
           points="0,-1 0.58778525,0.80901699 -0.95105652,-0.30901699 0.95105652,-0.30901699 -0.58778525,0.80901699 0,-1 " />
      </g>
      <g
         id="g1373"
         transform="matrix(0.782151,0,0,0.782151,980.207,1861.053)">
        <polygon
           style="fill:#ffffff"
           id="polygon1375"
           transform="matrix(300.3,0,0,300.3,617.5,525)"
           points="0,-1 0.58778525,0.80901699 -0.95105652,-0.30901699 0.95105652,-0.30901699 -0.58778525,0.80901699 0,-1 " />
      </g>
      <g
         id="g1377"
         transform="matrix(0.782151,0,0,0.782151,969.4487,2454.703)">
        <polygon
           style="fill:#ffffff"
           id="polygon1379"
           transform="matrix(300.3,0,0,300.3,617.5,525)"
           points="0,-1 0.58778525,0.80901699 -0.95105652,-0.30901699 0.95105652,-0.30901699 -0.58778525,0.80901699 0,-1 " />
      </g>
      <g
         id="g1381"
         transform="matrix(0.782151,0,0,0.782151,1104.893,3024.915)">
        <polygon
           style="fill:#ffffff"
           id="polygon1383"
           transform="matrix(300.3,0,0,300.3,617.5,525)"
           points="0,-1 0.58778525,0.80901699 -0.95105652,-0.30901699 0.95105652,-0.30901699 -0.58778525,0.80901699 0,-1 " />
      </g>
      <g
         id="g1385"
         transform="matrix(0.782151,0,0,0.782151,1407.894,3529.026)">
        <polygon
           style="fill:#ffffff"
           id="polygon1387"
           transform="matrix(300.3,0,0,300.3,617.5,525)"
           points="0,-1 0.58778525,0.80901699 -0.95105652,-0.30901699 0.95105652,-0.30901699 -0.58778525,0.80901699 0,-1 " />
      </g>
      <g
         id="g1389"
         transform="matrix(0.782151,0,0,0.782151,1814.99,3946.881)">
        <polygon
           style="fill:#ffffff"
           id="polygon1391"
           transform="matrix(300.3,0,0,300.3,617.5,525)"
           points="0,-1 0.58778525,0.80901699 -0.95105652,-0.30901699 0.95105652,-0.30901699 -0.58778525,0.80901699 0,-1 " />
      </g>
      <g
         id="g1393"
         transform="matrix(0.782151,0,0,0.782151,2345.43,4228.157)">
        <polygon
           style="fill:#ffffff"
           id="polygon1395"
           transform="matrix(300.3,0,0,300.3,617.5,525)"
           points="0,-1 0.58778525,0.80901699 -0.95105652,-0.30901699 0.95105652,-0.30901699 -0.58778525,0.80901699 0,-1 " />
      </g>
      <g
         id="g1397"
         transform="matrix(0.782151,0,0,0.782151,2901.413,4370.89)">
        <polygon
           style="fill:#ffffff"
           id="polygon1399"
           transform="matrix(300.3,0,0,300.3,617.5,525)"
           points="0,-1 0.58778525,0.80901699 -0.95105652,-0.30901699 0.95105652,-0.30901699 -0.58778525,0.80901699 0,-1 " />
      </g>
      <g
         id="g1401"
         transform="matrix(0.782151,0,0,0.782151,3532.522,4358.789)">
        <polygon
           style="fill:#ffffff"
           id="polygon1403"
           transform="matrix(300.3,0,0,300.3,617.5,525)"
           points="0,-1 0.58778525,0.80901699 -0.95105652,-0.30901699 0.95105652,-0.30901699 -0.58778525,0.80901699 0,-1 " />
      </g>
      <g
         id="g1405"
         transform="matrix(0.782151,0,0,0.782151,4073.72,4222.766)">
        <polygon
           style="fill:#ffffff"
           id="polygon1407"
           transform="matrix(300.3,0,0,300.3,617.5,525)"
           points="0,-1 0.58778525,0.80901699 -0.95105652,-0.30901699 0.95105652,-0.30901699 -0.58778525,0.80901699 0,-1 " />
      </g>
      <g
         id="g1409"
         transform="matrix(0.782151,0,0,0.782151,4595.136,3911.549)">
        <polygon
           style="fill:#ffffff"
           id="polygon1411"
           transform="matrix(300.3,0,0,300.3,617.5,525)"
           points="0,-1 0.58778525,0.80901699 -0.95105652,-0.30901699 0.95105652,-0.30901699 -0.58778525,0.80901699 0,-1 " />
      </g>
      <g
         id="g1413"
         transform="matrix(0.782151,0,0,0.782151,5014.726,3519.816)">
        <polygon
           style="fill:#ffffff"
           id="polygon1415"
           transform="matrix(300.3,0,0,300.3,617.5,525)"
           points="0,-1 0.58778525,0.80901699 -0.95105652,-0.30901699 0.95105652,-0.30901699 -0.58778525,0.80901699 0,-1 " />
      </g>
      <g
         id="g1417"
         transform="matrix(0.782151,0,0,0.782151,5305.212,3014.156)">
        <polygon
           style="fill:#ffffff"
           id="polygon1419"
           transform="matrix(300.3,0,0,300.3,617.5,525)"
           points="0,-1 0.58778525,0.80901699 -0.95105652,-0.30901699 0.95105652,-0.30901699 -0.58778525,0.80901699 0,-1 " />
      </g>
      <g
         id="g1421"
         transform="matrix(0.782151,0,0,0.782151,5445.075,2454.703)">
        <polygon
           style="fill:#ffffff"
           id="polygon1423"
           transform="matrix(300.3,0,0,300.3,617.5,525)"
           points="0,-1 0.58778525,0.80901699 -0.95105652,-0.30901699 0.95105652,-0.30901699 -0.58778525,0.80901699 0,-1 " />
      </g>
      <g
         id="g1425"
         transform="matrix(0.782151,0,0,0.782151,5445.075,1884.491)">
        <polygon
           style="fill:#ffffff"
           id="polygon1427"
           transform="matrix(300.3,0,0,300.3,617.5,525)"
           points="0,-1 0.58778525,0.80901699 -0.95105652,-0.30901699 0.95105652,-0.30901699 -0.58778525,0.80901699 0,-1 " />
      </g>
      <g
         id="g1429"
         transform="matrix(0.782151,0,0,0.782151,5305.211,1314.279)">
        <polygon
           style="fill:#ffffff"
           id="polygon1431"
           transform="matrix(300.3,0,0,300.3,617.5,525)"
           points="0,-1 0.58778525,0.80901699 -0.95105652,-0.30901699 0.95105652,-0.30901699 -0.58778525,0.80901699 0,-1 " />
      </g>
      <g
         id="g1433"
         transform="matrix(0.782151,0,0,0.782151,5014.726,830.1367)">
        <polygon
           style="fill:#ffffff"
           id="polygon1435"
           transform="matrix(300.3,0,0,300.3,617.5,525)"
           points="0,-1 0.58778525,0.80901699 -0.95105652,-0.30901699 0.95105652,-0.30901699 -0.58778525,0.80901699 0,-1 " />
      </g>
      <g
         id="g1437"
         transform="matrix(0.782151,0,0,0.782151,4605.895,425.7253)">
        <polygon
           style="fill:#ffffff"
           id="polygon1439"
           transform="matrix(300.3,0,0,300.3,617.5,525)"
           points="0,-1 0.58778525,0.80901699 -0.95105652,-0.30901699 0.95105652,-0.30901699 -0.58778525,0.80901699 0,-1 " />
      </g>
      <g
         id="g1441"
         transform="matrix(0.782151,0,0,0.782151,4078.718,124.4804)">
        <polygon
           style="fill:#ffffff"
           id="polygon1443"
           transform="matrix(300.3,0,0,300.3,617.5,525)"
           points="0,-1 0.58778525,0.80901699 -0.95105652,-0.30901699 0.95105652,-0.30901699 -0.58778525,0.80901699 0,-1 " />
      </g>
      <g
         id="g1445"
         transform="matrix(0.782151,0,0,0.782151,3508.506,-15.38261)">
        <polygon
           style="fill:#ffffff"
           id="polygon1447"
           transform="matrix(300.3,0,0,300.3,617.5,525)"
           points="0,-1 0.58778525,0.80901699 -0.95105652,-0.30901699 0.95105652,-0.30901699 -0.58778525,0.80901699 0,-1 " />
      </g>
    </g>
    <g
       id="g1551">
      <g
         id="g1449"
         transform="matrix(0.782151,0,0,0.782151,3218.021,916.2065)">
        <polygon
           style="fill:#ffffff"
           id="polygon1451"
           transform="matrix(300.3,0,0,300.3,617.5,525)"
           points="0,-1 0.58778525,0.80901699 -0.95105652,-0.30901699 0.95105652,-0.30901699 -0.58778525,0.80901699 0,-1 " />
      </g>
      <g
         id="g1453"
         transform="matrix(0.782151,0,0,0.782151,2604.774,1034.553)">
        <polygon
           style="fill:#ffffff"
           id="polygon1455"
           transform="matrix(300.3,0,0,300.3,617.5,525)"
           points="0,-1 0.58778525,0.80901699 -0.95105652,-0.30901699 0.95105652,-0.30901699 -0.58778525,0.80901699 0,-1 " />
      </g>
      <g
         id="g1457"
         transform="matrix(0.782151,0,0,0.782151,2152.907,1443.384)">
        <polygon
           style="fill:#ffffff"
           id="polygon1459"
           transform="matrix(300.3,0,0,300.3,617.5,525)"
           points="0,-1 0.58778525,0.80901699 -0.95105652,-0.30901699 0.95105652,-0.30901699 -0.58778525,0.80901699 0,-1 " />
      </g>
      <g
         id="g1461"
         transform="matrix(0.782151,0,0,0.782151,1937.733,2002.837)">
        <polygon
           style="fill:#ffffff"
           id="polygon1463"
           transform="matrix(300.3,0,0,300.3,617.5,525)"
           points="0,-1 0.58778525,0.80901699 -0.95105652,-0.30901699 0.95105652,-0.30901699 -0.58778525,0.80901699 0,-1 " />
      </g>
      <g
         id="g1465"
         transform="matrix(0.782151,0,0,0.782151,2013.044,2616.084)">
        <polygon
           style="fill:#ffffff"
           id="polygon1467"
           transform="matrix(300.3,0,0,300.3,617.5,525)"
           points="0,-1 0.58778525,0.80901699 -0.95105652,-0.30901699 0.95105652,-0.30901699 -0.58778525,0.80901699 0,-1 " />
      </g>
      <g
         id="g1469"
         transform="matrix(0.782151,0,0,0.782151,2357.324,3110.985)">
        <polygon
           style="fill:#ffffff"
           id="polygon1471"
           transform="matrix(300.3,0,0,300.3,617.5,525)"
           points="0,-1 0.58778525,0.80901699 -0.95105652,-0.30901699 0.95105652,-0.30901699 -0.58778525,0.80901699 0,-1 " />
      </g>
      <g
         id="g1473"
         transform="matrix(0.782151,0,0,0.782151,2916.776,3379.953)">
        <polygon
           style="fill:#ffffff"
           id="polygon1475"
           transform="matrix(300.3,0,0,300.3,617.5,525)"
           points="0,-1 0.58778525,0.80901699 -0.95105652,-0.30901699 0.95105652,-0.30901699 -0.58778525,0.80901699 0,-1 " />
      </g>
      <g
         id="g1477"
         transform="matrix(0.782151,0,0,0.782151,3519.264,3390.712)">
        <polygon
           style="fill:#ffffff"
           id="polygon1479"
           transform="matrix(300.3,0,0,300.3,617.5,525)"
           points="0,-1 0.58778525,0.80901699 -0.95105652,-0.30901699 0.95105652,-0.30901699 -0.58778525,0.80901699 0,-1 " />
      </g>
      <g
         id="g1481"
         transform="matrix(0.782151,0,0,0.782151,4074.299,3124.243)">
        <polygon
           style="fill:#ffffff"
           id="polygon1483"
           transform="matrix(300.3,0,0,300.3,617.5,525)"
           points="0,-1 0.58778525,0.80901699 -0.95105652,-0.30901699 0.95105652,-0.30901699 -0.58778525,0.80901699 0,-1 " />
      </g>
      <g
         id="g1485"
         transform="matrix(0.782151,0,0,0.782151,4407.819,2605.326)">
        <polygon
           style="fill:#ffffff"
           id="polygon1487"
           transform="matrix(300.3,0,0,300.3,617.5,525)"
           points="0,-1 0.58778525,0.80901699 -0.95105652,-0.30901699 0.95105652,-0.30901699 -0.58778525,0.80901699 0,-1 " />
      </g>
      <g
         id="g1489"
         transform="matrix(0.782151,0,0,0.782151,4487.549,2007.257)">
        <polygon
           style="fill:#ffffff"
           id="polygon1491"
           transform="matrix(300.3,0,0,300.3,617.5,525)"
           points="0,-1 0.58778525,0.80901699 -0.95105652,-0.30901699 0.95105652,-0.30901699 -0.58778525,0.80901699 0,-1 " />
      </g>
      <g
         id="g1493"
         transform="matrix(0.782151,0,0,0.782151,4261.616,1432.625)">
        <polygon
           style="fill:#ffffff"
           id="polygon1495"
           transform="matrix(300.3,0,0,300.3,617.5,525)"
           points="0,-1 0.58778525,0.80901699 -0.95105652,-0.30901699 0.95105652,-0.30901699 -0.58778525,0.80901699 0,-1 " />
      </g>
      <g
         id="g1497"
         transform="matrix(0.782151,0,0,0.782151,3798.991,1045.311)">
        <polygon
           style="fill:#ffffff"
           id="polygon1499"
           transform="matrix(300.3,0,0,300.3,617.5,525)"
           points="0,-1 0.58778525,0.80901699 -0.95105652,-0.30901699 0.95105652,-0.30901699 -0.58778525,0.80901699 0,-1 " />
      </g>
    </g>
  </g>
</svg>
