<?xml version="1.0" encoding="UTF-8"?>
<!DOCTYPE svg PUBLIC "-//W3C//DTD SVG 1.1//EN" "http://www.w3.org/Graphics/SVG/1.1/DTD/svg11.dtd">
<!-- Creator: CorelDRAW -->
<svg xmlns="http://www.w3.org/2000/svg" xml:space="preserve" width="1710px" height="900px" style="shape-rendering:geometricPrecision; text-rendering:geometricPrecision; image-rendering:optimizeQuality; fill-rule:evenodd; clip-rule:evenodd"
viewBox="0 0 1710 900"
 xmlns:xlink="http://www.w3.org/1999/xlink">
 <defs>
  <style type="text/css">
   <![CDATA[
    .fil2 {fill:#002868}
    .fil0 {fill:#BF0A30}
    .fil1 {fill:white}
   ]]>
  </style>
 </defs>
 <g id="Layer_x0020_1">
  <metadata id="CorelCorpID_0Corel-Layer"/>
  <polygon class="fil0" points="0.0011811,0 1710,0 1710,899.999 0.0011811,899.999 "/>
  <polygon class="fil1" points="-0.56811,761.538 1709.43,761.538 1709.43,830.769 -0.56811,830.769 "/>
  <polygon class="fil1" points="-0.56811,69.2315 1709.43,69.2315 1709.43,138.462 -0.56811,138.462 "/>
  <polygon class="fil1" points="-0.56811,207.692 1709.43,207.692 1709.43,276.924 -0.56811,276.924 "/>
  <polygon class="fil1" points="-0.56811,346.154 1709.43,346.154 1709.43,415.384 -0.56811,415.384 "/>
  <polygon class="fil1" points="-0.56811,484.616 1709.43,484.616 1709.43,553.846 -0.56811,553.846 "/>
  <polygon class="fil1" points="-0.56811,623.076 1709.43,623.076 1709.43,692.308 -0.56811,692.308 "/>
  <polygon class="fil2" points="0.284646,484.616 684.058,484.616 684.058,0.0011811 0.284646,0.0011811 "/>
  <polygon class="fil1" points="612.673,39.4937 618.937,58.7717 639.207,58.7717 622.808,70.6866 629.07,89.9693 612.673,78.052 596.274,89.9693 602.536,70.6866 586.137,58.7717 606.407,58.7717 "/>
  <polygon class="fil1" points="522.506,39.4937 528.77,58.7717 549.039,58.7717 532.641,70.6866 538.903,89.9693 522.506,78.052 506.107,89.9693 512.369,70.6866 495.972,58.7717 516.24,58.7717 "/>
  <polygon class="fil1" points="432.339,39.4937 438.602,58.7717 458.872,58.7717 442.473,70.6866 448.736,89.9693 432.339,78.052 415.939,89.9693 422.202,70.6866 405.804,58.7717 426.074,58.7717 "/>
  <polygon class="fil1" points="342.171,39.4937 348.436,58.7717 368.705,58.7717 352.307,70.6866 358.57,89.9693 342.171,78.052 325.773,89.9693 332.035,70.6866 315.638,58.7717 335.907,58.7717 "/>
  <polygon class="fil1" points="252.004,39.4937 258.268,58.7717 278.538,58.7717 262.141,70.6866 268.403,89.9693 252.004,78.052 235.606,89.9693 241.87,70.6866 225.47,58.7717 245.74,58.7717 "/>
  <polygon class="fil1" points="161.837,39.4937 168.103,58.7717 188.37,58.7717 171.973,70.6866 178.235,89.9693 161.837,78.052 145.44,89.9693 151.702,70.6866 135.304,58.7717 155.572,58.7717 "/>
  <polygon class="fil1" points="71.6693,39.4937 77.935,58.7717 98.2051,58.7717 81.8067,70.6866 88.0689,89.9693 71.6693,78.052 55.272,89.9693 61.5343,70.6866 45.1358,58.7717 65.4059,58.7717 "/>
  <polygon class="fil1" points="567.589,217.071 573.854,236.349 594.123,236.349 577.724,248.264 583.987,267.546 567.589,255.628 551.191,267.546 557.453,248.264 541.056,236.349 561.324,236.349 "/>
  <polygon class="fil1" points="477.423,217.071 483.686,236.349 503.956,236.349 487.557,248.264 493.82,267.546 477.423,255.628 461.023,267.546 467.285,248.264 450.888,236.349 471.158,236.349 "/>
  <polygon class="fil1" points="387.255,217.071 393.52,236.349 413.789,236.349 397.391,248.264 403.654,267.546 387.255,255.628 370.857,267.546 377.119,248.264 360.722,236.349 380.991,236.349 "/>
  <polygon class="fil1" points="297.087,217.071 303.352,236.349 323.622,236.349 307.225,248.264 313.487,267.546 297.087,255.628 280.69,267.546 286.954,248.264 270.554,236.349 290.824,236.349 "/>
  <polygon class="fil1" points="206.921,217.071 213.187,236.349 233.454,236.349 217.057,248.264 223.319,267.546 206.921,255.628 190.524,267.546 196.786,248.264 180.387,236.349 200.656,236.349 "/>
  <polygon class="fil1" points="116.753,217.071 123.019,236.349 143.289,236.349 126.891,248.264 133.153,267.546 116.753,255.628 100.356,267.546 106.618,248.264 90.2197,236.349 110.49,236.349 "/>
  <polygon class="fil1" points="612.673,128.282 618.937,147.56 639.207,147.56 622.808,159.474 629.07,178.757 612.673,166.839 596.274,178.757 602.536,159.474 586.137,147.56 606.407,147.56 "/>
  <polygon class="fil1" points="522.506,128.282 528.77,147.56 549.039,147.56 532.641,159.474 538.903,178.757 522.506,166.839 506.107,178.757 512.369,159.474 495.972,147.56 516.24,147.56 "/>
  <polygon class="fil1" points="432.339,128.282 438.602,147.56 458.872,147.56 442.473,159.474 448.736,178.757 432.339,166.839 415.939,178.757 422.202,159.474 405.804,147.56 426.074,147.56 "/>
  <polygon class="fil1" points="342.171,128.282 348.436,147.56 368.705,147.56 352.307,159.474 358.57,178.757 342.171,166.839 325.773,178.757 332.035,159.474 315.638,147.56 335.907,147.56 "/>
  <polygon class="fil1" points="252.004,128.282 258.268,147.56 278.538,147.56 262.141,159.474 268.403,178.757 252.004,166.839 235.606,178.757 241.87,159.474 225.47,147.56 245.74,147.56 "/>
  <polygon class="fil1" points="161.837,128.282 168.103,147.56 188.37,147.56 171.973,159.474 178.235,178.757 161.837,166.839 145.44,178.757 151.702,159.474 135.304,147.56 155.572,147.56 "/>
  <polygon class="fil1" points="71.6693,128.282 77.935,147.56 98.2051,147.56 81.8067,159.474 88.0689,178.757 71.6693,166.839 55.272,178.757 61.5343,159.474 45.1358,147.56 65.4059,147.56 "/>
  <polygon class="fil1" points="612.673,305.859 618.937,325.139 639.207,325.139 622.808,337.051 629.07,356.335 612.673,344.418 596.274,356.335 602.536,337.051 586.137,325.139 606.407,325.139 "/>
  <polygon class="fil1" points="522.506,305.859 528.77,325.139 549.039,325.139 532.641,337.051 538.903,356.335 522.506,344.418 506.107,356.335 512.369,337.051 495.972,325.139 516.24,325.139 "/>
  <polygon class="fil1" points="432.339,305.859 438.602,325.139 458.872,325.139 442.473,337.051 448.736,356.335 432.339,344.418 415.939,356.335 422.202,337.051 405.804,325.139 426.074,325.139 "/>
  <polygon class="fil1" points="342.171,305.859 348.436,325.139 368.705,325.139 352.307,337.051 358.57,356.335 342.171,344.418 325.773,356.335 332.035,337.051 315.638,325.139 335.907,325.139 "/>
  <polygon class="fil1" points="252.004,305.859 258.268,325.139 278.538,325.139 262.141,337.051 268.403,356.335 252.004,344.418 235.606,356.335 241.87,337.051 225.47,325.139 245.74,325.139 "/>
  <polygon class="fil1" points="161.837,305.859 168.103,325.139 188.37,325.139 171.973,337.051 178.235,356.335 161.837,344.418 145.44,356.335 151.702,337.051 135.304,325.139 155.572,325.139 "/>
  <polygon class="fil1" points="71.6693,305.859 77.935,325.139 98.2051,325.139 81.8067,337.051 88.0689,356.335 71.6693,344.418 55.272,356.335 61.5343,337.051 45.1358,325.139 65.4059,325.139 "/>
  <polygon class="fil1" points="612.673,394.646 618.937,413.926 639.207,413.926 622.808,425.839 629.07,445.123 612.673,433.204 596.274,445.123 602.536,425.839 586.137,413.926 606.407,413.926 "/>
  <polygon class="fil1" points="522.506,394.646 528.77,413.926 549.039,413.926 532.641,425.839 538.903,445.123 522.506,433.204 506.107,445.123 512.369,425.839 495.972,413.926 516.24,413.926 "/>
  <polygon class="fil1" points="432.339,394.646 438.602,413.926 458.872,413.926 442.473,425.839 448.736,445.123 432.339,433.204 415.939,445.123 422.202,425.839 405.804,413.926 426.074,413.926 "/>
  <polygon class="fil1" points="342.171,394.646 348.436,413.926 368.705,413.926 352.307,425.839 358.57,445.123 342.171,433.204 325.773,445.123 332.035,425.839 315.638,413.926 335.907,413.926 "/>
  <polygon class="fil1" points="252.004,394.646 258.268,413.926 278.538,413.926 262.141,425.839 268.403,445.123 252.004,433.204 235.606,445.123 241.87,425.839 225.47,413.926 245.74,413.926 "/>
  <polygon class="fil1" points="161.837,394.646 168.103,413.926 188.37,413.926 171.973,425.839 178.235,445.123 161.837,433.204 145.44,445.123 151.702,425.839 135.304,413.926 155.572,413.926 "/>
  <polygon class="fil1" points="71.6693,394.646 77.935,413.926 98.2051,413.926 81.8067,425.839 88.0689,445.123 71.6693,433.204 55.272,445.123 61.5343,425.839 45.1358,413.926 65.4059,413.926 "/>
 </g>
</svg>
