<?xml version="1.0" encoding="UTF-8" standalone="no"?>
<svg
   xmlns:dc="http://purl.org/dc/elements/1.1/"
   xmlns:cc="http://web.resource.org/cc/"
   xmlns:rdf="http://www.w3.org/1999/02/22-rdf-syntax-ns#"
   xmlns:svg="http://www.w3.org/2000/svg"
   xmlns="http://www.w3.org/2000/svg"
   xmlns:sodipodi="http://inkscape.sourceforge.net/DTD/sodipodi-0.dtd"
   xmlns:inkscape="http://www.inkscape.org/namespaces/inkscape"
   version="1.1"
   width="1330"
   height="700"
   id="Flag of the United States"
   viewBox="0 0 18525 9750"
   sodipodi:version="0.32"
   inkscape:version="0.43"
   sodipodi:docname="US_33_Star_Fort Sumter Flag.svg"
   sodipodi:docbase="D:\Dateien\Wikipediazeugs\USA">
  <metadata
     id="metadata1536">
    <rdf:RDF>
      <cc:Work
         rdf:about="">
        <dc:format>image/svg+xml</dc:format>
        <dc:type
           rdf:resource="http://purl.org/dc/dcmitype/StillImage" />
      </cc:Work>
    </rdf:RDF>
  </metadata>
  <defs
     id="defs1534" />
  <sodipodi:namedview
     inkscape:window-height="998"
     inkscape:window-width="1280"
     inkscape:pageshadow="2"
     inkscape:pageopacity="0.0"
     borderopacity="1.0"
     bordercolor="#666666"
     pagecolor="#ffffff"
     id="base"
     showguides="true"
     showgrid="false"
     inkscape:guide-bbox="true"
     inkscape:zoom="0.81588186"
     inkscape:cx="554.96704"
     inkscape:cy="405.01304"
     inkscape:window-x="-4"
     inkscape:window-y="-4"
     inkscape:current-layer="Flag of the United States">
    <sodipodi:guide
       orientation="horizontal"
       position="646.15625"
       id="guide3109" />
    <sodipodi:guide
       orientation="horizontal"
       position="592.5"
       id="guide3111" />
    <sodipodi:guide
       orientation="horizontal"
       position="539"
       id="guide3113" />
    <sodipodi:guide
       orientation="horizontal"
       position="484.75"
       id="guide3115" />
    <sodipodi:guide
       orientation="horizontal"
       position="431"
       id="guide3117" />
    <sodipodi:guide
       orientation="horizontal"
       position="376.75"
       id="guide3119" />
    <sodipodi:guide
       orientation="vertical"
       position="265"
       id="guide3157" />
    <sodipodi:guide
       orientation="vertical"
       position="199"
       id="guide3159" />
    <sodipodi:guide
       orientation="vertical"
       position="133"
       id="guide3161" />
    <sodipodi:guide
       orientation="vertical"
       position="67"
       id="guide3163" />
    <sodipodi:guide
       orientation="vertical"
       position="331"
       id="guide3165" />
    <sodipodi:guide
       orientation="vertical"
       position="397"
       id="guide3167" />
    <sodipodi:guide
       orientation="vertical"
       position="463"
       id="guide3169" />
    <sodipodi:guide
       orientation="horizontal"
       position="679.71001"
       id="guide3555" />
    <sodipodi:guide
       orientation="horizontal"
       position="625.84968"
       id="guide3557" />
    <sodipodi:guide
       orientation="horizontal"
       position="572.11634"
       id="guide3567" />
    <sodipodi:guide
       orientation="horizontal"
       position="518.71881"
       id="guide3569" />
    <sodipodi:guide
       orientation="horizontal"
       position="463.97513"
       id="guide3571" />
    <sodipodi:guide
       orientation="horizontal"
       position="411.23867"
       id="guide3573" />
    <sodipodi:guide
       orientation="horizontal"
       position="356.20462"
       id="guide3575" />
  </sodipodi:namedview>
  <rect
     width="100%"
     height="100%"
     fill="#bf0a30"
     id="red background" />
  <g
     fill="white"
     id="g1504">
    <rect
       width="100%"
       height="750"
       y="750"
       id="rect1506" />
    <rect
       width="100%"
       height="750"
       y="2250"
       id="rect1508" />
    <rect
       width="100%"
       height="750"
       y="3750"
       id="rect1510" />
    <rect
       width="100%"
       height="750"
       y="5250"
       id="rect1512" />
    <rect
       width="100%"
       height="750"
       y="6750"
       id="rect1514" />
    <rect
       width="100%"
       height="750"
       y="8250"
       id="rect1516" />
  </g>
  <rect
     id="blue field"
     width="7410"
     height="5250"
     x="-6.2500105"
     y="-6.2500105"
     style="fill:#002868" />
  <g
     id="star rows 7 and 8"
     transform="matrix(1.192231,0,0,1.199488,1823.473,2373.535)">
    <g
       id="g1837">
      <g
         id="use1839"
         transform="translate(617.5,-525)">
<!-- Note the points of the above polygon specify a 5-pointed star centered at (0,0) with radius 1. -->        <polygon
           points="0,-1 0.58778525,0.80901699 -0.95105652,-0.30901699 0.95105652,-0.30901699 -0.58778525,0.80901699 0,-1 "
           transform="matrix(300.3,0,0,300.3,953.9142,-1119.571)"
           id="use1899"
           style="fill:#ffffff" />
      </g>
    </g>
  </g>
  <g
     id="g3171"
     transform="matrix(1.192231,0,0,1.199488,1818.873,3129.446)">
    <g
       id="g3173">
      <g
         id="g3175"
         transform="translate(617.5,-525)">
<!-- Note the points of the above polygon specify a 5-pointed star centered at (0,0) with radius 1. -->        <polygon
           points="0,-1 0.58778525,0.80901699 -0.95105652,-0.30901699 0.95105652,-0.30901699 -0.58778525,0.80901699 0,-1 "
           transform="matrix(300.3,0,0,300.3,953.9142,-1119.571)"
           id="polygon3177"
           style="fill:#ffffff" />
      </g>
    </g>
  </g>
  <g
     id="g3179"
     transform="matrix(1.192231,0,0,1.199488,1820.248,3870.1)">
    <g
       id="g3181">
      <g
         id="g3183"
         transform="translate(617.5,-525)">
<!-- Note the points of the above polygon specify a 5-pointed star centered at (0,0) with radius 1. -->        <polygon
           points="0,-1 0.58778525,0.80901699 -0.95105652,-0.30901699 0.95105652,-0.30901699 -0.58778525,0.80901699 0,-1 "
           transform="matrix(300.3,0,0,300.3,953.9142,-1119.571)"
           id="polygon3185"
           style="fill:#ffffff" />
      </g>
    </g>
  </g>
  <g
     id="g3187"
     transform="matrix(1.192231,0,0,1.199488,1819.106,4615.633)">
    <g
       id="g3189">
      <g
         id="g3191"
         transform="translate(617.5,-525)">
<!-- Note the points of the above polygon specify a 5-pointed star centered at (0,0) with radius 1. -->        <polygon
           points="0,-1 0.58778525,0.80901699 -0.95105652,-0.30901699 0.95105652,-0.30901699 -0.58778525,0.80901699 0,-1 "
           transform="matrix(300.3,0,0,300.3,953.9142,-1119.571)"
           id="polygon3193"
           style="fill:#ffffff" />
      </g>
    </g>
  </g>
  <g
     id="g3195"
     transform="matrix(1.192231,0,0,1.199488,1820.543,5377.795)">
    <g
       id="g3197">
      <g
         id="g3199"
         transform="translate(617.5,-525)">
<!-- Note the points of the above polygon specify a 5-pointed star centered at (0,0) with radius 1. -->        <polygon
           points="0,-1 0.58778525,0.80901699 -0.95105652,-0.30901699 0.95105652,-0.30901699 -0.58778525,0.80901699 0,-1 "
           transform="matrix(300.3,0,0,300.3,953.9142,-1119.571)"
           id="polygon3201"
           style="fill:#ffffff" />
      </g>
    </g>
  </g>
  <g
     id="g3203"
     transform="matrix(1.192231,0,0,1.199488,1815.881,6118.449)">
    <g
       id="g3205">
      <g
         id="g3207"
         transform="translate(617.5,-525)">
<!-- Note the points of the above polygon specify a 5-pointed star centered at (0,0) with radius 1. -->        <polygon
           points="0,-1 0.58778525,0.80901699 -0.95105652,-0.30901699 0.95105652,-0.30901699 -0.58778525,0.80901699 0,-1 "
           transform="matrix(300.3,0,0,300.3,953.9142,-1119.571)"
           id="polygon3209"
           style="fill:#ffffff" />
      </g>
    </g>
  </g>
  <g
     id="g3211"
     transform="matrix(1.192231,0,0,1.199488,1812.289,6874.288)">
    <g
       id="g3213">
      <g
         id="g3215"
         transform="translate(617.5,-525)">
<!-- Note the points of the above polygon specify a 5-pointed star centered at (0,0) with radius 1. -->        <polygon
           points="0,-1 0.58778525,0.80901699 -0.95105652,-0.30901699 0.95105652,-0.30901699 -0.58778525,0.80901699 0,-1 "
           transform="matrix(300.3,0,0,300.3,953.9142,-1119.571)"
           id="polygon3217"
           style="fill:#ffffff" />
      </g>
    </g>
  </g>
  <g
     id="g3227"
     transform="matrix(1.192231,0,0,1.199488,2737.394,3124.485)">
    <g
       id="g3229">
      <g
         id="g3231"
         transform="translate(617.5,-525)">
<!-- Note the points of the above polygon specify a 5-pointed star centered at (0,0) with radius 1. -->        <polygon
           points="0,-1 0.58778525,0.80901699 -0.95105652,-0.30901699 0.95105652,-0.30901699 -0.58778525,0.80901699 0,-1 "
           transform="matrix(300.3,0,0,300.3,953.9142,-1119.571)"
           id="polygon3233"
           style="fill:#ffffff" />
      </g>
    </g>
  </g>
  <g
     id="g3235"
     transform="matrix(1.192231,0,0,1.199488,2738.768,3865.139)">
    <g
       id="g3237">
      <g
         id="g3239"
         transform="translate(617.5,-525)">
<!-- Note the points of the above polygon specify a 5-pointed star centered at (0,0) with radius 1. -->        <polygon
           points="0,-1 0.58778525,0.80901699 -0.95105652,-0.30901699 0.95105652,-0.30901699 -0.58778525,0.80901699 0,-1 "
           transform="matrix(300.3,0,0,300.3,953.9142,-1119.571)"
           id="polygon3241"
           style="fill:#ffffff" />
      </g>
    </g>
  </g>
  <g
     id="g3243"
     transform="matrix(1.192231,0,0,1.199488,2737.626,4616.922)">
    <g
       id="g3245">
      <g
         id="g3247"
         transform="translate(617.5,-525)">
<!-- Note the points of the above polygon specify a 5-pointed star centered at (0,0) with radius 1. -->        <polygon
           points="0,-1 0.58778525,0.80901699 -0.95105652,-0.30901699 0.95105652,-0.30901699 -0.58778525,0.80901699 0,-1 "
           transform="matrix(300.3,0,0,300.3,953.9142,-1119.571)"
           id="polygon3249"
           style="fill:#ffffff" />
      </g>
    </g>
  </g>
  <g
     id="g3251"
     transform="matrix(1.192231,0,0,1.199488,2739.063,5372.834)">
    <g
       id="g3253">
      <g
         id="g3255"
         transform="translate(617.5,-525)">
<!-- Note the points of the above polygon specify a 5-pointed star centered at (0,0) with radius 1. -->        <polygon
           points="0,-1 0.58778525,0.80901699 -0.95105652,-0.30901699 0.95105652,-0.30901699 -0.58778525,0.80901699 0,-1 "
           transform="matrix(300.3,0,0,300.3,953.9142,-1119.571)"
           id="polygon3257"
           style="fill:#ffffff" />
      </g>
    </g>
  </g>
  <g
     id="g3259"
     transform="matrix(1.192231,0,0,1.199488,2740.436,6113.489)">
    <g
       id="g3261">
      <g
         id="g3263"
         transform="translate(617.5,-525)">
<!-- Note the points of the above polygon specify a 5-pointed star centered at (0,0) with radius 1. -->        <polygon
           points="0,-1 0.58778525,0.80901699 -0.95105652,-0.30901699 0.95105652,-0.30901699 -0.58778525,0.80901699 0,-1 "
           transform="matrix(300.3,0,0,300.3,953.9142,-1119.571)"
           id="polygon3265"
           style="fill:#ffffff" />
      </g>
    </g>
  </g>
  <g
     id="g3291"
     transform="matrix(1.192231,0,0,1.199488,3657.545,3876.83)">
    <g
       id="g3293">
      <g
         id="g3295"
         transform="translate(617.5,-525)">
<!-- Note the points of the above polygon specify a 5-pointed star centered at (0,0) with radius 1. -->        <polygon
           points="0,-1 0.58778525,0.80901699 -0.95105652,-0.30901699 0.95105652,-0.30901699 -0.58778525,0.80901699 0,-1 "
           transform="matrix(300.3,0,0,300.3,953.9142,-1119.571)"
           id="polygon3297"
           style="fill:#ffffff" />
      </g>
    </g>
  </g>
  <g
     id="g3299"
     transform="matrix(1.192231,0,0,1.199488,3653.278,4612.987)">
    <g
       id="g3301">
      <g
         id="g3303"
         transform="translate(617.5,-525)">
<!-- Note the points of the above polygon specify a 5-pointed star centered at (0,0) with radius 1. -->        <polygon
           points="0,-1 0.58778525,0.80901699 -0.95105652,-0.30901699 0.95105652,-0.30901699 -0.58778525,0.80901699 0,-1 "
           transform="matrix(300.3,0,0,300.3,953.9142,-1119.571)"
           id="polygon3305"
           style="fill:#ffffff" />
      </g>
    </g>
  </g>
  <g
     id="g3307"
     transform="matrix(1.192231,0,0,1.199488,3657.84,5372.452)">
    <g
       id="g3309">
      <g
         id="g3311"
         transform="translate(617.5,-525)">
<!-- Note the points of the above polygon specify a 5-pointed star centered at (0,0) with radius 1. -->        <polygon
           points="0,-1 0.58778525,0.80901699 -0.95105652,-0.30901699 0.95105652,-0.30901699 -0.58778525,0.80901699 0,-1 "
           transform="matrix(300.3,0,0,300.3,953.9142,-1119.571)"
           id="polygon3313"
           style="fill:#ffffff" />
      </g>
    </g>
  </g>
  <g
     id="g3339"
     transform="matrix(1.192231,0,0,1.199488,4572.849,3123.228)">
    <g
       id="g3341">
      <g
         id="g3343"
         transform="translate(617.5,-525)">
<!-- Note the points of the above polygon specify a 5-pointed star centered at (0,0) with radius 1. -->        <polygon
           points="0,-1 0.58778525,0.80901699 -0.95105652,-0.30901699 0.95105652,-0.30901699 -0.58778525,0.80901699 0,-1 "
           transform="matrix(300.3,0,0,300.3,953.9142,-1119.571)"
           id="polygon3345"
           style="fill:#ffffff" />
      </g>
    </g>
  </g>
  <g
     id="g3347"
     transform="matrix(1.192231,0,0,1.199488,4578.914,2361.967)">
    <g
       id="g3349">
      <g
         id="g3351"
         transform="translate(617.5,-525)">
<!-- Note the points of the above polygon specify a 5-pointed star centered at (0,0) with radius 1. -->        <polygon
           points="0,-1 0.58778525,0.80901699 -0.95105652,-0.30901699 0.95105652,-0.30901699 -0.58778525,0.80901699 0,-1 "
           transform="matrix(300.3,0,0,300.3,953.9142,-1119.571)"
           id="polygon3353"
           style="fill:#ffffff" />
      </g>
    </g>
  </g>
  <g
     id="g3355"
     transform="matrix(1.192231,0,0,1.199488,4580.897,4611.778)">
    <g
       id="g3357">
      <g
         id="g3359"
         transform="translate(617.5,-525)">
<!-- Note the points of the above polygon specify a 5-pointed star centered at (0,0) with radius 1. -->        <polygon
           points="0,-1 0.58778525,0.80901699 -0.95105652,-0.30901699 0.95105652,-0.30901699 -0.58778525,0.80901699 0,-1 "
           transform="matrix(300.3,0,0,300.3,953.9142,-1119.571)"
           id="polygon3361"
           style="fill:#ffffff" />
      </g>
    </g>
  </g>
  <g
     id="g3363"
     transform="matrix(1.192231,0,0,1.199488,4573.173,6878.861)">
    <g
       id="g3365">
      <g
         id="g3367"
         transform="translate(617.5,-525)">
<!-- Note the points of the above polygon specify a 5-pointed star centered at (0,0) with radius 1. -->        <polygon
           points="0,-1 0.58778525,0.80901699 -0.95105652,-0.30901699 0.95105652,-0.30901699 -0.58778525,0.80901699 0,-1 "
           transform="matrix(300.3,0,0,300.3,953.9142,-1119.571)"
           id="polygon3369"
           style="fill:#ffffff" />
      </g>
    </g>
  </g>
  <g
     id="g3371"
     transform="matrix(1.192231,0,0,1.199488,4574.546,6115.238)">
    <g
       id="g3373">
      <g
         id="g3375"
         transform="translate(617.5,-525)">
<!-- Note the points of the above polygon specify a 5-pointed star centered at (0,0) with radius 1. -->        <polygon
           points="0,-1 0.58778525,0.80901699 -0.95105652,-0.30901699 0.95105652,-0.30901699 -0.58778525,0.80901699 0,-1 "
           transform="matrix(300.3,0,0,300.3,953.9142,-1119.571)"
           id="polygon3377"
           style="fill:#ffffff" />
      </g>
    </g>
  </g>
  <g
     id="g3395"
     transform="matrix(1.192231,0,0,1.199488,909.9046,3134.931)">
    <g
       id="g3397">
      <g
         id="g3399"
         transform="translate(617.5,-525)">
<!-- Note the points of the above polygon specify a 5-pointed star centered at (0,0) with radius 1. -->        <polygon
           points="0,-1 0.58778525,0.80901699 -0.95105652,-0.30901699 0.95105652,-0.30901699 -0.58778525,0.80901699 0,-1 "
           transform="matrix(300.3,0,0,300.3,953.9142,-1119.571)"
           id="polygon3401"
           style="fill:#ffffff" />
      </g>
    </g>
  </g>
  <g
     id="g3403"
     transform="matrix(1.192231,0,0,1.199488,911.2786,3875.586)">
    <g
       id="g3405">
      <g
         id="g3407"
         transform="translate(617.5,-525)">
<!-- Note the points of the above polygon specify a 5-pointed star centered at (0,0) with radius 1. -->        <polygon
           points="0,-1 0.58778525,0.80901699 -0.95105652,-0.30901699 0.95105652,-0.30901699 -0.58778525,0.80901699 0,-1 "
           transform="matrix(300.3,0,0,300.3,953.9142,-1119.571)"
           id="polygon3409"
           style="fill:#ffffff" />
      </g>
    </g>
  </g>
  <g
     id="g3411"
     transform="matrix(1.192231,0,0,1.199488,897.6366,4614.869)">
    <g
       id="g3413">
      <g
         id="g3415"
         transform="translate(617.5,-525)">
<!-- Note the points of the above polygon specify a 5-pointed star centered at (0,0) with radius 1. -->        <polygon
           points="0,-1 0.58778525,0.80901699 -0.95105652,-0.30901699 0.95105652,-0.30901699 -0.58778525,0.80901699 0,-1 "
           transform="matrix(300.3,0,0,300.3,953.9142,-1119.571)"
           id="polygon3417"
           style="fill:#ffffff" />
      </g>
    </g>
  </g>
  <g
     id="g3419"
     transform="matrix(1.192231,0,0,1.199488,899.5018,5383.281)">
    <g
       id="g3421">
      <g
         id="g3423"
         transform="translate(617.5,-525)">
<!-- Note the points of the above polygon specify a 5-pointed star centered at (0,0) with radius 1. -->        <polygon
           points="0,-1 0.58778525,0.80901699 -0.95105652,-0.30901699 0.95105652,-0.30901699 -0.58778525,0.80901699 0,-1 "
           transform="matrix(300.3,0,0,300.3,953.9142,-1119.571)"
           id="polygon3425"
           style="fill:#ffffff" />
      </g>
    </g>
  </g>
  <g
     id="g3427"
     transform="matrix(1.192231,0,0,1.199488,900.8748,6111.864)">
    <g
       id="g3429">
      <g
         id="g3431"
         transform="translate(617.5,-525)">
<!-- Note the points of the above polygon specify a 5-pointed star centered at (0,0) with radius 1. -->        <polygon
           points="0,-1 0.58778525,0.80901699 -0.95105652,-0.30901699 0.95105652,-0.30901699 -0.58778525,0.80901699 0,-1 "
           transform="matrix(300.3,0,0,300.3,953.9142,-1119.571)"
           id="polygon3433"
           style="fill:#ffffff" />
      </g>
    </g>
  </g>
  <g
     id="g3459"
     transform="matrix(1.192231,0,0,1.199488,-19.19967,3866.552)">
    <g
       id="g3461">
      <g
         id="g3463"
         transform="translate(617.5,-525)">
<!-- Note the points of the above polygon specify a 5-pointed star centered at (0,0) with radius 1. -->        <polygon
           points="0,-1 0.58778525,0.80901699 -0.95105652,-0.30901699 0.95105652,-0.30901699 -0.58778525,0.80901699 0,-1 "
           transform="matrix(300.3,0,0,300.3,953.9142,-1119.571)"
           id="polygon3465"
           style="fill:#ffffff" />
      </g>
    </g>
  </g>
  <g
     id="g3467"
     transform="matrix(1.192231,0,0,1.199488,-20.34167,4618.335)">
    <g
       id="g3469">
      <g
         id="g3471"
         transform="translate(617.5,-525)">
<!-- Note the points of the above polygon specify a 5-pointed star centered at (0,0) with radius 1. -->        <polygon
           points="0,-1 0.58778525,0.80901699 -0.95105652,-0.30901699 0.95105652,-0.30901699 -0.58778525,0.80901699 0,-1 "
           transform="matrix(300.3,0,0,300.3,953.9142,-1119.571)"
           id="polygon3473"
           style="fill:#ffffff" />
      </g>
    </g>
  </g>
  <g
     id="g3475"
     transform="matrix(1.192231,0,0,1.199488,-12.86908,5374.247)">
    <g
       id="g3477">
      <g
         id="g3479"
         transform="translate(617.5,-525)">
<!-- Note the points of the above polygon specify a 5-pointed star centered at (0,0) with radius 1. -->        <polygon
           points="0,-1 0.58778525,0.80901699 -0.95105652,-0.30901699 0.95105652,-0.30901699 -0.58778525,0.80901699 0,-1 "
           transform="matrix(300.3,0,0,300.3,953.9142,-1119.571)"
           id="polygon3481"
           style="fill:#ffffff" />
      </g>
    </g>
  </g>
  <g
     id="g3507"
     transform="matrix(1.192231,0,0,1.199488,-942.0181,3123.305)">
    <g
       id="g3509">
      <g
         id="g3511"
         transform="translate(617.5,-525)">
<!-- Note the points of the above polygon specify a 5-pointed star centered at (0,0) with radius 1. -->        <polygon
           points="0,-1 0.58778525,0.80901699 -0.95105652,-0.30901699 0.95105652,-0.30901699 -0.58778525,0.80901699 0,-1 "
           transform="matrix(300.3,0,0,300.3,953.9142,-1119.571)"
           id="polygon3513"
           style="fill:#ffffff" />
      </g>
    </g>
  </g>
  <g
     id="g3515"
     transform="matrix(1.192231,0,0,1.199488,-912.787,2359.681)">
    <g
       id="g3517">
      <g
         id="g3519"
         transform="translate(617.5,-525)">
<!-- Note the points of the above polygon specify a 5-pointed star centered at (0,0) with radius 1. -->        <polygon
           points="0,-1 0.58778525,0.80901699 -0.95105652,-0.30901699 0.95105652,-0.30901699 -0.58778525,0.80901699 0,-1 "
           transform="matrix(300.3,0,0,300.3,953.9142,-1119.571)"
           id="polygon3521"
           style="fill:#ffffff" />
      </g>
    </g>
  </g>
  <g
     id="g3523"
     transform="matrix(1.192231,0,0,1.199488,-938.6611,4609.491)">
    <g
       id="g3525">
      <g
         id="g3527"
         transform="translate(617.5,-525)">
<!-- Note the points of the above polygon specify a 5-pointed star centered at (0,0) with radius 1. -->        <polygon
           points="0,-1 0.58778525,0.80901699 -0.95105652,-0.30901699 0.95105652,-0.30901699 -0.58778525,0.80901699 0,-1 "
           transform="matrix(300.3,0,0,300.3,953.9142,-1119.571)"
           id="polygon3529"
           style="fill:#ffffff" />
      </g>
    </g>
  </g>
  <g
     id="g3531"
     transform="matrix(1.192231,0,0,1.199488,-934.3135,6875.931)">
    <g
       id="g3533">
      <g
         id="g3535"
         transform="translate(617.5,-525)">
<!-- Note the points of the above polygon specify a 5-pointed star centered at (0,0) with radius 1. -->        <polygon
           points="0,-1 0.58778525,0.80901699 -0.95105652,-0.30901699 0.95105652,-0.30901699 -0.58778525,0.80901699 0,-1 "
           transform="matrix(300.3,0,0,300.3,953.9142,-1119.571)"
           id="polygon3537"
           style="fill:#ffffff" />
      </g>
    </g>
  </g>
  <g
     id="g3539"
     transform="matrix(1.192231,0,0,1.199488,-932.9405,6112.308)">
    <g
       id="g3541">
      <g
         id="g3543"
         transform="translate(617.5,-525)">
<!-- Note the points of the above polygon specify a 5-pointed star centered at (0,0) with radius 1. -->        <polygon
           points="0,-1 0.58778525,0.80901699 -0.95105652,-0.30901699 0.95105652,-0.30901699 -0.58778525,0.80901699 0,-1 "
           transform="matrix(300.3,0,0,300.3,953.9142,-1119.571)"
           id="polygon3545"
           style="fill:#ffffff" />
      </g>
    </g>
  </g>
</svg>
