<?xml version="1.0" encoding="UTF-8"?>
<!DOCTYPE svg PUBLIC "-//W3C//DTD SVG 1.1//EN" "http://www.w3.org/Graphics/SVG/1.1/DTD/svg11.dtd">
<!-- Creator: CorelDRAW -->
<svg xmlns="http://www.w3.org/2000/svg" xml:space="preserve" width="2167px" height="1300px" style="shape-rendering:geometricPrecision; text-rendering:geometricPrecision; image-rendering:optimizeQuality; fill-rule:evenodd; clip-rule:evenodd"
viewBox="0 0 2167 1300"
 xmlns:xlink="http://www.w3.org/1999/xlink">
 <defs>
  <style type="text/css">
   <![CDATA[
    .fil1 {fill:#FEFEFE}
    .fil2 {fill:#00214D}
    .fil0 {fill:#CF142B}
    .fil3 {fill:white}
   ]]>
  </style>
 </defs>
 <g id="Layer_x0020_1">
  <metadata id="CorelCorpID_0Corel-Layer"/>
  <polygon class="fil0" points="0.287008,0.00354331 2166.71,0.00354331 2166.71,1300 0.287008,1300 "/>
  <polygon class="fil1" points="0.287008,1100 2166.71,1100 2166.71,1200 0.287008,1200 "/>
  <polygon class="fil1" points="0.287008,100 2166.71,100 2166.71,200.001 0.287008,200.001 "/>
  <polygon class="fil1" points="0.287008,300.001 2166.71,300.001 2166.71,400.002 0.287008,400.002 "/>
  <polygon class="fil1" points="0.287008,500.001 2166.71,500.001 2166.71,600.001 0.287008,600.001 "/>
  <polygon class="fil1" points="0.287008,699.999 2166.71,699.999 2166.71,800 0.287008,800 "/>
  <polygon class="fil1" points="0.287008,900 2166.71,900 2166.71,1000 0.287008,1000 "/>
  <polygon class="fil2" points="0.166535,699.998 866.835,699.998 866.835,-0.0011811 0.166535,-0.0011811 "/>
  <polygon class="fil3" points="434.603,37.2366 444.137,64.213 472.736,64.9429 450.03,82.3453 458.172,109.771 434.603,93.554 411.034,109.771 419.178,82.3453 396.47,64.9429 425.071,64.213 "/>
  <polygon class="fil3" points="474.989,139.299 484.523,166.274 513.122,167.006 490.415,184.407 498.558,211.833 474.989,195.615 451.42,211.833 459.562,184.407 436.856,167.006 465.456,166.274 "/>
  <polygon class="fil3" points="396.02,138.156 405.553,165.132 434.153,165.862 411.445,183.263 419.589,210.69 396.02,194.472 372.451,210.69 380.594,183.263 357.886,165.862 386.486,165.132 "/>
  <polygon class="fil3" points="632.928,590.229 642.462,617.204 671.062,617.935 648.355,635.336 656.497,662.763 632.928,646.545 609.359,662.763 617.503,635.336 594.795,617.935 623.396,617.204 "/>
  <polygon class="fil3" points="236.935,585.651 246.469,612.627 275.068,613.357 252.362,630.76 260.504,658.185 236.935,641.968 213.366,658.185 221.509,630.76 198.802,613.357 227.402,612.627 "/>
  <polygon class="fil3" points="532.213,530.504 541.746,557.479 570.346,558.21 547.638,575.612 555.782,603.038 532.213,586.82 508.644,603.038 516.787,575.612 494.079,558.21 522.679,557.479 "/>
  <polygon class="fil3" points="338.796,529.36 348.33,556.335 376.929,557.065 354.222,574.467 362.365,601.894 338.796,585.676 315.227,601.894 323.369,574.467 300.663,557.065 329.263,556.335 "/>
  <polygon class="fil3" points="596.306,474.634 605.838,501.611 634.439,502.341 611.731,519.742 619.875,547.168 596.306,530.951 572.737,547.168 580.879,519.742 558.171,502.341 586.772,501.611 "/>
  <polygon class="fil3" points="436.076,449.457 445.609,476.433 474.209,477.163 451.501,494.564 459.645,521.991 436.076,505.773 412.507,521.991 420.65,494.564 397.943,477.163 426.542,476.433 "/>
  <polygon class="fil3" points="273.559,476.925 283.093,503.9 311.692,504.63 288.985,522.032 297.128,549.458 273.559,533.241 249.99,549.458 258.132,522.032 235.426,504.63 264.025,503.9 "/>
  <polygon class="fil3" points="315.905,369.343 325.438,396.319 354.038,397.049 331.33,414.45 339.474,441.877 315.905,425.659 292.336,441.877 300.478,414.45 277.771,397.049 306.371,396.319 "/>
  <polygon class="fil3" points="656.964,320.784 666.496,347.76 695.097,348.49 672.389,365.891 680.533,393.318 656.964,377.1 633.395,393.318 641.537,365.891 618.831,348.49 647.43,347.76 "/>
  <polygon class="fil3" points="556.249,368.198 565.782,395.175 594.383,395.904 571.675,413.306 579.818,440.732 556.249,424.514 532.68,440.732 540.823,413.306 518.116,395.904 546.716,395.175 "/>
  <polygon class="fil3" points="214.045,320.784 223.579,347.76 252.178,348.49 229.472,365.891 237.614,393.318 214.045,377.1 190.476,393.318 198.619,365.891 175.912,348.49 204.511,347.76 "/>
  <polygon class="fil3" points="757.106,240.587 766.64,267.562 795.239,268.292 772.532,285.695 780.675,313.121 757.106,296.903 733.537,313.121 741.681,285.695 718.973,268.292 747.573,267.562 "/>
  <polygon class="fil3" points="631.212,239.441 640.746,266.418 669.346,267.148 646.638,284.549 654.781,311.975 631.212,295.758 607.643,311.975 615.787,284.549 593.079,267.148 621.679,266.418 "/>
  <polygon class="fil3" points="504.174,239.441 513.708,266.418 542.307,267.148 519.6,284.549 527.743,311.975 504.174,295.758 480.605,311.975 488.749,284.549 466.041,267.148 494.641,266.418 "/>
  <polygon class="fil3" points="362.829,242.304 372.363,269.281 400.962,270.011 378.255,287.412 386.398,314.838 362.829,298.621 339.26,314.838 347.402,287.412 324.696,270.011 353.295,269.281 "/>
  <polygon class="fil3" points="109.897,241.16 119.431,268.135 148.03,268.866 125.323,286.267 133.466,313.694 109.897,297.476 86.328,313.694 94.4705,286.267 71.7638,268.866 100.363,268.135 "/>
  <polygon class="fil3" points="236.363,241.732 245.897,268.707 274.497,269.438 251.79,286.839 259.932,314.265 236.363,298.048 212.795,314.265 220.938,286.839 198.23,269.438 226.831,268.707 "/>
 </g>
</svg>
