<?xml version="1.0" encoding="UTF-8"?>
<!DOCTYPE svg PUBLIC "-//W3C//DTD SVG 1.1//EN" "http://www.w3.org/Graphics/SVG/1.1/DTD/svg11.dtd">
<!-- Creator: CorelDRAW -->
<svg xmlns="http://www.w3.org/2000/svg" xml:space="preserve" width="1710px" height="900px" style="shape-rendering:geometricPrecision; text-rendering:geometricPrecision; image-rendering:optimizeQuality; fill-rule:evenodd; clip-rule:evenodd"
viewBox="0 0 1710 900"
 xmlns:xlink="http://www.w3.org/1999/xlink">
 <defs>
  <style type="text/css">
   <![CDATA[
    .fil2 {fill:#002868}
    .fil0 {fill:#BF0A30}
    .fil1 {fill:white}
   ]]>
  </style>
 </defs>
 <g id="Layer_x0020_1">
  <metadata id="CorelCorpID_0Corel-Layer"/>
  <polygon class="fil0" points="0.0011811,0 1710,0 1710,899.999 0.0011811,899.999 "/>
  <polygon class="fil1" points="-0.56811,761.538 1709.43,761.538 1709.43,830.769 -0.56811,830.769 "/>
  <polygon class="fil1" points="-0.56811,69.2315 1709.43,69.2315 1709.43,138.462 -0.56811,138.462 "/>
  <polygon class="fil1" points="-0.56811,207.692 1709.43,207.692 1709.43,276.924 -0.56811,276.924 "/>
  <polygon class="fil1" points="-0.56811,346.154 1709.43,346.154 1709.43,415.384 -0.56811,415.384 "/>
  <polygon class="fil1" points="-0.56811,484.616 1709.43,484.616 1709.43,553.846 -0.56811,553.846 "/>
  <polygon class="fil1" points="-0.56811,623.076 1709.43,623.076 1709.43,692.308 -0.56811,692.308 "/>
  <polygon class="fil2" points="0.284646,484.616 684.058,484.616 684.058,0.0011811 0.284646,0.0011811 "/>
  <g id="_295829912">
   <polygon id="_299733008" class="fil1" points="49.6949,408.935 55.9217,428.096 76.0571,428.096 59.7673,439.929 65.9917,459.083 49.6937,447.246 33.398,459.083 39.6224,439.93 23.3291,428.096 43.4681,428.096 "/>
   <polygon id="_299732936" class="fil1" points="94.6937,345.033 100.919,364.191 121.055,364.191 104.765,376.023 110.991,395.178 94.6937,383.34 78.3969,395.178 84.6224,376.024 68.3315,364.191 88.4681,364.191 "/>
   <polygon id="_299732864" class="fil1" points="49.6949,281.138 55.9193,300.291 76.0571,300.291 59.7661,312.125 65.9917,331.28 49.6937,319.442 33.398,331.28 39.6236,312.126 23.3291,300.291 43.4705,300.291 "/>
   <polygon id="_299732792" class="fil1" points="94.6937,217.238 100.919,236.394 121.055,236.394 104.765,248.226 110.991,267.38 94.6937,255.542 78.3969,267.38 84.6224,248.226 68.3315,236.394 88.4681,236.394 "/>
   <polygon id="_299732720" class="fil1" points="49.6949,153.335 55.9217,172.494 76.0571,172.494 59.7673,184.326 65.9917,203.48 49.6937,191.643 33.398,203.48 39.6224,184.328 23.3291,172.494 43.4681,172.494 "/>
   <polygon id="_299732648" class="fil1" points="94.6937,89.4354 100.92,108.593 121.055,108.593 104.766,120.425 110.991,139.578 94.6937,127.741 78.3969,139.578 84.6213,120.425 68.3315,108.593 88.4669,108.593 "/>
   <polygon id="_299732576" class="fil1" points="49.6949,25.5354 55.9217,44.6929 76.0571,44.6929 59.7673,56.5252 65.9917,75.678 49.6937,63.8409 33.398,75.678 39.6224,56.5264 23.3291,44.6929 43.4681,44.6929 "/>
   <polygon id="_299732504" class="fil1" points="139.773,408.935 146,428.096 166.135,428.096 149.845,439.929 156.07,459.083 139.772,447.246 123.476,459.083 129.7,439.93 113.407,428.096 133.546,428.096 "/>
   <polygon id="_299732432" class="fil1" points="184.772,345.033 190.997,364.191 211.133,364.191 194.843,376.023 201.069,395.178 184.772,383.34 168.475,395.178 174.7,376.024 158.409,364.191 178.546,364.191 "/>
   <polygon id="_299732360" class="fil1" points="139.773,281.138 145.997,300.291 166.135,300.291 149.844,312.125 156.07,331.28 139.772,319.442 123.476,331.28 129.702,312.126 113.407,300.291 133.548,300.291 "/>
   <polygon id="_299732288" class="fil1" points="184.772,217.238 190.997,236.394 211.133,236.394 194.843,248.226 201.069,267.38 184.772,255.542 168.475,267.38 174.7,248.226 158.409,236.394 178.546,236.394 "/>
   <polygon id="_293568448" class="fil1" points="139.773,153.335 146,172.494 166.135,172.494 149.845,184.326 156.07,203.48 139.772,191.643 123.476,203.48 129.7,184.328 113.407,172.494 133.546,172.494 "/>
   <polygon id="_293560120" class="fil1" points="139.773,25.5354 146,44.6929 166.135,44.6929 149.845,56.5252 156.07,75.678 139.772,63.8409 123.476,75.678 129.7,56.5264 113.407,44.6929 133.546,44.6929 "/>
   <polygon id="_293560144" class="fil1" points="229.77,408.935 235.997,428.096 256.133,428.096 239.843,439.929 246.067,459.083 229.769,447.246 213.474,459.083 219.698,439.93 203.405,428.096 223.544,428.096 "/>
   <polygon id="_293566216" class="fil1" points="274.769,345.033 280.995,364.191 301.13,364.191 284.841,376.023 291.066,395.178 274.769,383.34 258.472,395.178 264.698,376.024 248.407,364.191 268.544,364.191 "/>
   <polygon id="_293564464" class="fil1" points="229.77,281.138 235.995,300.291 256.133,300.291 239.842,312.125 246.067,331.28 229.769,319.442 213.474,331.28 219.699,312.126 203.405,300.291 223.546,300.291 "/>
   <polygon id="_293562856" class="fil1" points="274.769,217.238 280.995,236.394 301.13,236.394 284.841,248.226 291.066,267.38 274.769,255.542 258.472,267.38 264.698,248.226 248.407,236.394 268.544,236.394 "/>
   <polygon id="_297226352" class="fil1" points="229.77,153.335 235.997,172.494 256.133,172.494 239.843,184.326 246.067,203.48 229.769,191.643 213.474,203.48 219.698,184.328 203.405,172.494 223.544,172.494 "/>
   <polygon id="_295827608" class="fil1" points="274.769,89.4354 280.996,108.593 301.13,108.593 284.842,120.425 291.066,139.578 274.769,127.741 258.472,139.578 264.697,120.425 248.407,108.593 268.543,108.593 "/>
   <polygon id="_295827680" class="fil1" points="229.77,25.5354 235.997,44.6929 256.133,44.6929 239.843,56.5252 246.067,75.678 229.769,63.8409 213.474,75.678 219.698,56.5264 203.405,44.6929 223.544,44.6929 "/>
   <polygon id="_295827752" class="fil1" points="319.87,408.935 326.096,428.096 346.232,428.096 329.942,439.929 336.167,459.083 319.869,447.246 303.573,459.083 309.797,439.93 293.504,428.096 313.643,428.096 "/>
   <polygon id="_295827824" class="fil1" points="364.869,345.033 371.094,364.191 391.23,364.191 374.94,376.023 381.165,395.178 364.869,383.34 348.572,395.178 354.797,376.024 338.506,364.191 358.643,364.191 "/>
   <polygon id="_293564416" class="fil1" points="319.87,281.138 326.094,300.291 346.232,300.291 329.941,312.125 336.167,331.28 319.869,319.442 303.573,331.28 309.798,312.126 293.504,300.291 313.645,300.291 "/>
   <polygon id="_295829840" class="fil1" points="364.869,217.238 371.094,236.394 391.23,236.394 374.94,248.226 381.165,267.38 364.869,255.542 348.572,267.38 354.797,248.226 338.506,236.394 358.643,236.394 "/>
   <polygon id="_295819760" class="fil1" points="319.87,153.335 326.096,172.494 346.232,172.494 329.942,184.326 336.167,203.48 319.869,191.643 303.573,203.48 309.797,184.328 293.504,172.494 313.643,172.494 "/>
   <polygon id="_295818920" class="fil1" points="364.869,89.4354 371.095,108.593 391.23,108.593 374.941,120.425 381.165,139.578 364.869,127.741 348.572,139.578 354.796,120.425 338.506,108.593 358.642,108.593 "/>
   <polygon id="_295819592" class="fil1" points="319.87,25.5354 326.096,44.6929 346.232,44.6929 329.942,56.5252 336.167,75.678 319.869,63.8409 303.573,75.678 309.797,56.5264 293.504,44.6929 313.643,44.6929 "/>
   <polygon id="_295819472" class="fil1" points="409.454,408.935 415.681,428.096 435.816,428.096 419.526,439.929 425.751,459.083 409.453,447.246 393.157,459.083 399.381,439.93 383.088,428.096 403.227,428.096 "/>
   <polygon id="_295818608" class="fil1" points="454.453,345.033 460.678,364.191 480.814,364.191 464.524,376.023 470.75,395.178 454.453,383.34 438.156,395.178 444.381,376.024 428.091,364.191 448.227,364.191 "/>
   <polygon id="_295819040" class="fil1" points="409.454,281.138 415.678,300.291 435.816,300.291 419.525,312.125 425.751,331.28 409.453,319.442 393.157,331.28 399.383,312.126 383.088,300.291 403.23,300.291 "/>
   <polygon id="_295819664" class="fil1" points="454.453,217.238 460.678,236.394 480.814,236.394 464.524,248.226 470.75,267.38 454.453,255.542 438.156,267.38 444.381,248.226 428.091,236.394 448.227,236.394 "/>
   <polygon id="_295819616" class="fil1" points="409.454,153.335 415.681,172.494 435.816,172.494 419.526,184.326 425.751,203.48 409.453,191.643 393.157,203.48 399.381,184.328 383.088,172.494 403.227,172.494 "/>
   <polygon id="_295819784" class="fil1" points="454.453,89.4354 460.68,108.593 480.814,108.593 464.525,120.425 470.75,139.578 454.453,127.741 438.156,139.578 444.38,120.425 428.091,108.593 448.226,108.593 "/>
   <polygon id="_295819808" class="fil1" points="409.454,25.5354 415.681,44.6929 435.816,44.6929 419.526,56.5252 425.751,75.678 409.453,63.8409 393.157,75.678 399.381,56.5264 383.088,44.6929 403.227,44.6929 "/>
   <polygon id="_295819832" class="fil1" points="499.938,408.935 506.165,428.096 526.3,428.096 510.011,439.929 516.235,459.083 499.937,447.246 483.641,459.083 489.866,439.93 473.572,428.096 493.711,428.096 "/>
   <polygon id="_295819856" class="fil1" points="544.937,345.033 551.163,364.191 571.298,364.191 555.008,376.023 561.234,395.178 544.937,383.34 528.64,395.178 534.866,376.024 518.575,364.191 538.711,364.191 "/>
   <polygon id="_295819880" class="fil1" points="499.938,281.138 506.163,300.291 526.3,300.291 510.009,312.125 516.235,331.28 499.937,319.442 483.641,331.28 489.867,312.126 473.572,300.291 493.714,300.291 "/>
   <polygon id="_295819904" class="fil1" points="544.937,217.238 551.163,236.394 571.298,236.394 555.008,248.226 561.234,267.38 544.937,255.542 528.64,267.38 534.866,248.226 518.575,236.394 538.711,236.394 "/>
   <polygon id="_295818776" class="fil1" points="499.938,153.335 506.165,172.494 526.3,172.494 510.011,184.326 516.235,203.48 499.937,191.643 483.641,203.48 489.866,184.328 473.572,172.494 493.711,172.494 "/>
   <polygon id="_295819928" class="fil1" points="544.937,89.4354 551.164,108.593 571.298,108.593 555.009,120.425 561.234,139.578 544.937,127.741 528.64,139.578 534.865,120.425 518.575,108.593 538.71,108.593 "/>
   <polygon id="_293567968" class="fil1" points="499.938,25.5354 506.165,44.6929 526.3,44.6929 510.011,56.5252 516.235,75.678 499.937,63.8409 483.641,75.678 489.866,56.5264 473.572,44.6929 493.711,44.6929 "/>
   <polygon id="_295830344" class="fil1" points="589.652,408.935 595.879,428.096 616.015,428.096 599.725,439.929 605.949,459.083 589.651,447.246 573.356,459.083 579.58,439.93 563.287,428.096 583.426,428.096 "/>
   <polygon id="_293568256" class="fil1" points="634.651,345.033 640.877,364.191 661.012,364.191 644.722,376.023 650.948,395.178 634.651,383.34 618.354,395.178 624.58,376.024 608.289,364.191 628.426,364.191 "/>
   <polygon id="_293567824" class="fil1" points="589.652,281.138 595.877,300.291 616.015,300.291 599.724,312.125 605.949,331.28 589.651,319.442 573.356,331.28 579.581,312.126 563.287,300.291 583.428,300.291 "/>
   <polygon id="_293560696" class="fil1" points="634.651,217.238 640.877,236.394 661.012,236.394 644.722,248.226 650.948,267.38 634.651,255.542 618.354,267.38 624.58,248.226 608.289,236.394 628.426,236.394 "/>
   <polygon id="_295830200" class="fil1" points="589.652,153.335 595.879,172.494 616.015,172.494 599.725,184.326 605.949,203.48 589.651,191.643 573.356,203.48 579.58,184.328 563.287,172.494 583.426,172.494 "/>
   <polygon id="_295830128" class="fil1" points="634.651,89.4354 640.878,108.593 661.012,108.593 644.724,120.425 650.948,139.578 634.651,127.741 618.354,139.578 624.579,120.425 608.289,108.593 628.424,108.593 "/>
   <polygon id="_295830056" class="fil1" points="589.652,25.5354 595.879,44.6929 616.015,44.6929 599.725,56.5252 605.949,75.678 589.651,63.8409 573.356,75.678 579.58,56.5264 563.287,44.6929 583.426,44.6929 "/>
   <polygon id="_295829984" class="fil1" points="184.772,89.4354 190.998,108.593 211.133,108.593 194.844,120.425 201.069,139.578 184.772,127.741 168.475,139.578 174.699,120.425 158.409,108.593 178.545,108.593 "/>
  </g>
 </g>
</svg>
