<?xml version="1.0" encoding="UTF-8"?>
<!DOCTYPE svg PUBLIC "-//W3C//DTD SVG 1.1//EN" "http://www.w3.org/Graphics/SVG/1.1/DTD/svg11.dtd">
<!-- Creator: CorelDRAW -->
<svg xmlns="http://www.w3.org/2000/svg" xml:space="preserve" width="1710px" height="900px" style="shape-rendering:geometricPrecision; text-rendering:geometricPrecision; image-rendering:optimizeQuality; fill-rule:evenodd; clip-rule:evenodd"
viewBox="0 0 1710 900"
 xmlns:xlink="http://www.w3.org/1999/xlink">
 <defs>
  <style type="text/css">
   <![CDATA[
    .fil2 {fill:#002868}
    .fil0 {fill:#BF0A30}
    .fil1 {fill:white}
   ]]>
  </style>
 </defs>
 <g id="Layer_x0020_1">
  <metadata id="CorelCorpID_0Corel-Layer"/>
  <polygon class="fil0" points="0.0011811,0 1710,0 1710,899.999 0.0011811,899.999 "/>
  <polygon class="fil1" points="-0.56811,761.538 1709.43,761.538 1709.43,830.769 -0.56811,830.769 "/>
  <polygon class="fil1" points="-0.56811,69.2315 1709.43,69.2315 1709.43,138.462 -0.56811,138.462 "/>
  <polygon class="fil1" points="-0.56811,207.692 1709.43,207.692 1709.43,276.924 -0.56811,276.924 "/>
  <polygon class="fil1" points="-0.56811,346.154 1709.43,346.154 1709.43,415.384 -0.56811,415.384 "/>
  <polygon class="fil1" points="-0.56811,484.616 1709.43,484.616 1709.43,553.846 -0.56811,553.846 "/>
  <polygon class="fil1" points="-0.56811,623.076 1709.43,623.076 1709.43,692.308 -0.56811,692.308 "/>
  <polygon class="fil2" points="0.284646,484.616 684.058,484.616 684.058,0.0011811 0.284646,0.0011811 "/>
  <g id="_295823456">
   <polygon id="_299940640" class="fil1" points="581.744,105.124 588.008,124.404 608.278,124.404 591.879,136.316 598.141,155.6 581.744,143.682 565.345,155.6 571.607,136.316 555.21,124.404 575.478,124.404 "/>
   <polygon id="_299940568" class="fil1" points="501.886,105.124 508.15,124.404 528.42,124.404 512.022,136.316 518.284,155.6 501.886,143.682 485.487,155.6 491.751,136.316 475.351,124.404 495.621,124.404 "/>
   <polygon id="_299940496" class="fil1" points="422.028,105.124 428.293,124.404 448.563,124.404 432.165,136.316 438.428,155.6 422.028,143.682 405.631,155.6 411.893,136.316 395.494,124.404 415.765,124.404 "/>
   <polygon id="_299940424" class="fil1" points="342.171,105.124 348.436,124.404 368.705,124.404 352.307,136.316 358.57,155.6 342.171,143.682 325.773,155.6 332.035,136.316 315.638,124.404 335.907,124.404 "/>
   <polygon id="_299940352" class="fil1" points="262.315,105.124 268.578,124.404 288.848,124.404 272.45,136.316 278.712,155.6 262.315,143.682 245.915,155.6 252.177,136.316 235.78,124.404 256.05,124.404 "/>
   <polygon id="_299940280" class="fil1" points="182.458,105.124 188.721,124.404 208.991,124.404 192.592,136.316 198.855,155.6 182.458,143.682 166.058,155.6 172.32,136.316 155.922,124.404 176.192,124.404 "/>
   <polygon id="_295833872" class="fil1" points="102.599,105.124 108.865,124.404 129.132,124.404 112.735,136.316 118.997,155.6 102.599,143.682 86.2016,155.6 92.4638,136.316 76.0642,124.404 96.3343,124.404 "/>
   <polygon id="_295826816" class="fil1" points="621.672,30.4949 627.935,49.7728 648.206,49.7728 631.808,61.6878 638.07,80.9693 621.672,69.052 605.275,80.9693 611.537,61.6878 595.137,49.7728 615.407,49.7728 "/>
   <polygon id="_295826768" class="fil1" points="541.814,30.4949 548.079,49.7728 568.349,49.7728 551.952,61.6878 558.214,80.9693 541.814,69.052 525.416,80.9693 531.678,61.6878 515.281,49.7728 535.551,49.7728 "/>
   <polygon id="_295828256" class="fil1" points="461.957,30.4949 468.222,49.7728 488.492,49.7728 472.093,61.6878 478.355,80.9693 461.957,69.052 445.559,80.9693 451.821,61.6878 435.424,49.7728 455.694,49.7728 "/>
   <polygon id="_295826576" class="fil1" points="382.101,30.4949 388.364,49.7728 408.634,49.7728 392.236,61.6878 398.498,80.9693 382.101,69.052 365.701,80.9693 371.963,61.6878 355.565,49.7728 375.835,49.7728 "/>
   <polygon id="_295829264" class="fil1" points="302.242,30.4949 308.507,49.7728 328.778,49.7728 312.379,61.6878 318.641,80.9693 302.242,69.052 285.844,80.9693 292.107,61.6878 275.708,49.7728 295.978,49.7728 "/>
   <polygon id="_297613664" class="fil1" points="222.385,30.4949 228.648,49.7728 248.919,49.7728 232.521,61.6878 238.783,80.9693 222.385,69.052 205.988,80.9693 212.25,61.6878 195.85,49.7728 216.12,49.7728 "/>
   <polygon id="_297281088" class="fil1" points="142.528,30.4949 148.792,49.7728 169.062,49.7728 152.665,61.6878 158.927,80.9693 142.528,69.052 126.129,80.9693 132.391,61.6878 115.994,49.7728 136.264,49.7728 "/>
   <polygon id="_293559472" class="fil1" points="62.6705,30.4949 68.935,49.7728 89.2051,49.7728 72.8055,61.6878 79.0677,80.9693 62.6705,69.052 46.272,80.9693 52.5343,61.6878 36.137,49.7728 56.4071,49.7728 "/>
   <polygon id="_297281064" class="fil1" points="621.672,403.648 627.935,422.926 648.206,422.926 631.808,434.839 638.07,454.122 621.672,442.205 605.275,454.122 611.537,434.839 595.137,422.926 615.407,422.926 "/>
   <polygon id="_297281040" class="fil1" points="541.814,403.648 548.079,422.926 568.349,422.926 551.952,434.839 558.214,454.122 541.814,442.205 525.416,454.122 531.678,434.839 515.281,422.926 535.551,422.926 "/>
   <polygon id="_297281016" class="fil1" points="461.957,403.648 468.222,422.926 488.492,422.926 472.093,434.839 478.355,454.122 461.957,442.205 445.559,454.122 451.821,434.839 435.424,422.926 455.694,422.926 "/>
   <polygon id="_297280992" class="fil1" points="382.101,403.648 388.364,422.926 408.634,422.926 392.236,434.839 398.498,454.122 382.101,442.205 365.701,454.122 371.963,434.839 355.565,422.926 375.835,422.926 "/>
   <polygon id="_297280968" class="fil1" points="302.242,403.648 308.507,422.926 328.778,422.926 312.379,434.839 318.641,454.122 302.242,442.205 285.844,454.122 292.107,434.839 275.708,422.926 295.978,422.926 "/>
   <polygon id="_297280944" class="fil1" points="222.385,403.648 228.648,422.926 248.919,422.926 232.521,434.839 238.783,454.122 222.385,442.205 205.988,454.122 212.25,434.839 195.85,422.926 216.12,422.926 "/>
   <polygon id="_297280920" class="fil1" points="142.528,403.648 148.792,422.926 169.062,422.926 152.665,434.839 158.927,454.122 142.528,442.205 126.129,454.122 132.391,434.839 115.994,422.926 136.264,422.926 "/>
   <polygon id="_297280896" class="fil1" points="62.6705,403.648 68.935,422.926 89.2051,422.926 72.8055,434.839 79.0677,454.122 62.6705,442.205 46.272,454.122 52.5343,434.839 36.137,422.926 56.4071,422.926 "/>
   <polygon id="_297280872" class="fil1" points="581.601,179.754 587.865,199.032 608.135,199.032 591.736,210.946 597.998,230.23 581.601,218.313 565.202,230.23 571.465,210.946 555.067,199.032 575.335,199.032 "/>
   <polygon id="_297280848" class="fil1" points="501.743,179.754 508.009,199.032 528.278,199.032 511.879,210.946 518.141,230.23 501.743,218.313 485.346,230.23 491.608,210.946 475.208,199.032 495.478,199.032 "/>
   <polygon id="_297280824" class="fil1" points="421.885,179.754 428.15,199.032 448.42,199.032 432.022,210.946 438.285,230.23 421.885,218.313 405.488,230.23 411.75,210.946 395.352,199.032 415.622,199.032 "/>
   <polygon id="_297280800" class="fil1" points="342.028,179.754 348.293,199.032 368.562,199.032 352.165,210.946 358.428,230.23 342.028,218.313 325.63,230.23 331.892,210.946 315.495,199.032 335.765,199.032 "/>
   <polygon id="_297280776" class="fil1" points="262.172,179.754 268.435,199.032 288.705,199.032 272.307,210.946 278.569,230.23 262.172,218.313 245.772,230.23 252.034,210.946 235.637,199.032 255.907,199.032 "/>
   <polygon id="_297280656" class="fil1" points="182.315,179.754 188.578,199.032 208.848,199.032 192.45,210.946 198.712,230.23 182.315,218.313 165.915,230.23 172.178,210.946 155.779,199.032 176.049,199.032 "/>
   <polygon id="_297280368" class="fil1" points="102.456,179.754 108.722,199.032 128.992,199.032 112.592,210.946 118.854,230.23 102.456,218.313 86.0587,230.23 92.3209,210.946 75.9213,199.032 96.1913,199.032 "/>
   <polygon id="_297280512" class="fil1" points="581.601,254.387 587.865,273.67 608.135,273.67 591.736,285.579 597.998,304.863 581.601,292.945 565.202,304.863 571.465,285.579 555.067,273.67 575.335,273.67 "/>
   <polygon id="_297280728" class="fil1" points="501.743,254.387 508.009,273.67 528.278,273.67 511.879,285.579 518.141,304.863 501.743,292.945 485.346,304.863 491.608,285.579 475.208,273.67 495.478,273.67 "/>
   <polygon id="_297280296" class="fil1" points="421.885,254.387 428.15,273.67 448.42,273.67 432.022,285.579 438.285,304.863 421.885,292.945 405.488,304.863 411.75,285.579 395.352,273.67 415.622,273.67 "/>
   <polygon id="_297280752" class="fil1" points="342.028,254.387 348.293,273.67 368.562,273.67 352.165,285.579 358.428,304.863 342.028,292.945 325.63,304.863 331.892,285.579 315.495,273.67 335.765,273.67 "/>
   <polygon id="_297280416" class="fil1" points="262.172,254.387 268.435,273.67 288.705,273.67 272.307,285.579 278.569,304.863 262.172,292.945 245.772,304.863 252.034,285.579 235.637,273.67 255.907,273.67 "/>
   <polygon id="_297280272" class="fil1" points="182.315,254.387 188.578,273.67 208.848,273.67 192.45,285.579 198.712,304.863 182.315,292.945 165.915,304.863 172.178,285.579 155.779,273.67 176.049,273.67 "/>
   <polygon id="_297280440" class="fil1" points="102.456,254.387 108.722,273.67 128.992,273.67 112.592,285.579 118.854,304.863 102.456,292.945 86.0587,304.863 92.3209,285.579 75.9213,273.67 96.1913,273.67 "/>
   <polygon id="_297280392" class="fil1" points="581.601,329.019 587.865,348.294 608.135,348.294 591.736,360.208 597.998,379.489 581.601,367.572 565.202,379.489 571.465,360.208 555.067,348.294 575.335,348.294 "/>
   <polygon id="_297280488" class="fil1" points="501.743,329.019 508.009,348.294 528.278,348.294 511.879,360.208 518.141,379.489 501.743,367.572 485.346,379.489 491.608,360.208 475.208,348.294 495.478,348.294 "/>
   <polygon id="_297280320" class="fil1" points="421.885,329.019 428.15,348.294 448.42,348.294 432.022,360.208 438.285,379.489 421.885,367.572 405.488,379.489 411.75,360.208 395.352,348.294 415.622,348.294 "/>
   <polygon id="_297280560" class="fil1" points="342.028,329.019 348.293,348.294 368.562,348.294 352.165,360.208 358.428,379.489 342.028,367.572 325.63,379.489 331.892,360.208 315.495,348.294 335.765,348.294 "/>
   <polygon id="_297280536" class="fil1" points="262.172,329.019 268.435,348.294 288.705,348.294 272.307,360.208 278.569,379.489 262.172,367.572 245.772,379.489 252.034,360.208 235.637,348.294 255.907,348.294 "/>
   <polygon id="_297280464" class="fil1" points="182.315,329.019 188.578,348.294 208.848,348.294 192.45,360.208 198.712,379.489 182.315,367.572 165.915,379.489 172.178,360.208 155.779,348.294 176.049,348.294 "/>
   <polygon id="_297280704" class="fil1" points="102.456,329.019 108.722,348.294 128.992,348.294 112.592,360.208 118.854,379.489 102.456,367.572 86.0587,379.489 92.3209,360.208 75.9213,348.294 96.1913,348.294 "/>
  </g>
 </g>
</svg>
