<?xml version="1.0" encoding="UTF-8"?>
<!DOCTYPE svg PUBLIC "-//W3C//DTD SVG 1.1//EN" "http://www.w3.org/Graphics/SVG/1.1/DTD/svg11.dtd">
<!-- Creator: CorelDRAW -->
<svg xmlns="http://www.w3.org/2000/svg" xml:space="preserve" width="1710px" height="900px" style="shape-rendering:geometricPrecision; text-rendering:geometricPrecision; image-rendering:optimizeQuality; fill-rule:evenodd; clip-rule:evenodd"
viewBox="0 0 1710 900"
 xmlns:xlink="http://www.w3.org/1999/xlink">
 <defs>
  <style type="text/css">
   <![CDATA[
    .fil2 {fill:#002868}
    .fil0 {fill:#BF0A30}
    .fil1 {fill:white}
   ]]>
  </style>
 </defs>
 <g id="Layer_x0020_1">
  <metadata id="CorelCorpID_0Corel-Layer"/>
  <polygon class="fil0" points="0.0011811,0 1710,0 1710,899.999 0.0011811,899.999 "/>
  <polygon class="fil1" points="-0.56811,761.538 1709.43,761.538 1709.43,830.769 -0.56811,830.769 "/>
  <polygon class="fil1" points="-0.56811,69.2315 1709.43,69.2315 1709.43,138.462 -0.56811,138.462 "/>
  <polygon class="fil1" points="-0.56811,207.692 1709.43,207.692 1709.43,276.924 -0.56811,276.924 "/>
  <polygon class="fil1" points="-0.56811,346.154 1709.43,346.154 1709.43,415.384 -0.56811,415.384 "/>
  <polygon class="fil1" points="-0.56811,484.616 1709.43,484.616 1709.43,553.846 -0.56811,553.846 "/>
  <polygon class="fil1" points="-0.56811,623.076 1709.43,623.076 1709.43,692.308 -0.56811,692.308 "/>
  <polygon class="fil2" points="0.284646,484.616 684.058,484.616 684.058,0.0011811 0.284646,0.0011811 "/>
  <polygon class="fil1" points="496.371,163.879 502.636,183.157 522.905,183.157 506.506,195.071 512.769,214.355 496.371,202.435 479.973,214.355 486.235,195.071 469.838,183.157 490.106,183.157 "/>
  <polygon class="fil1" points="393.573,163.879 399.836,183.157 420.106,183.157 403.708,195.071 409.97,214.355 393.573,202.435 377.173,214.355 383.435,195.071 367.038,183.157 387.307,183.157 "/>
  <polygon class="fil1" points="290.77,163.879 297.035,183.157 317.304,183.157 300.907,195.071 307.169,214.355 290.77,202.435 274.372,214.355 280.635,195.071 264.236,183.157 284.506,183.157 "/>
  <polygon class="fil1" points="187.971,163.879 194.237,183.157 214.505,183.157 198.107,195.071 204.37,214.355 187.971,202.435 171.574,214.355 177.836,195.071 161.438,183.157 181.707,183.157 "/>
  <polygon class="fil1" points="547.77,57.4949 554.036,76.7728 574.306,76.7728 557.908,88.6866 564.17,107.968 547.77,96.0508 531.373,107.968 537.635,88.6866 521.237,76.7728 541.507,76.7728 "/>
  <polygon class="fil1" points="444.97,57.4949 451.234,76.7728 471.504,76.7728 455.107,88.6866 461.369,107.968 444.97,96.0508 428.572,107.968 434.833,88.6866 418.436,76.7728 438.706,76.7728 "/>
  <polygon class="fil1" points="342.171,57.4949 348.436,76.7728 368.705,76.7728 352.307,88.6866 358.57,107.968 342.171,96.0508 325.773,107.968 332.035,88.6866 315.638,76.7728 335.907,76.7728 "/>
  <polygon class="fil1" points="239.37,57.4949 245.635,76.7728 265.905,76.7728 249.506,88.6866 255.768,107.968 239.37,96.0508 222.972,107.968 229.234,88.6866 212.837,76.7728 233.105,76.7728 "/>
  <polygon class="fil1" points="136.572,57.4949 142.835,76.7728 163.106,76.7728 146.707,88.6866 152.969,107.968 136.572,96.0508 120.172,107.968 126.435,88.6866 110.036,76.7728 130.306,76.7728 "/>
  <polygon class="fil1" points="599.172,270.261 605.435,289.539 625.706,289.539 609.308,301.454 615.57,320.737 599.172,308.819 582.775,320.737 589.035,301.454 572.637,289.539 592.907,289.539 "/>
  <polygon class="fil1" points="496.371,270.261 502.636,289.539 522.905,289.539 506.506,301.454 512.769,320.737 496.371,308.819 479.973,320.737 486.235,301.454 469.838,289.539 490.106,289.539 "/>
  <polygon class="fil1" points="393.573,270.261 399.836,289.539 420.106,289.539 403.708,301.454 409.97,320.737 393.573,308.819 377.173,320.737 383.435,301.454 367.038,289.539 387.307,289.539 "/>
  <polygon class="fil1" points="290.77,270.261 297.035,289.539 317.304,289.539 300.907,301.454 307.169,320.737 290.77,308.819 274.372,320.737 280.635,301.454 264.236,289.539 284.506,289.539 "/>
  <polygon class="fil1" points="187.971,270.261 194.237,289.539 214.505,289.539 198.107,301.454 204.37,320.737 187.971,308.819 171.574,320.737 177.836,301.454 161.438,289.539 181.707,289.539 "/>
  <polygon class="fil1" points="85.1705,270.261 91.435,289.539 111.705,289.539 95.3079,301.454 101.568,320.737 85.1705,308.819 68.772,320.737 75.0343,301.454 58.637,289.539 78.9071,289.539 "/>
  <polygon class="fil1" points="599.172,376.646 605.435,395.926 625.706,395.926 609.308,407.839 615.57,427.121 599.172,415.204 582.775,427.121 589.035,407.839 572.637,395.926 592.907,395.926 "/>
  <polygon class="fil1" points="496.371,376.646 502.636,395.926 522.905,395.926 506.506,407.839 512.769,427.121 496.371,415.204 479.973,427.121 486.235,407.839 469.838,395.926 490.106,395.926 "/>
  <polygon class="fil1" points="393.573,376.646 399.836,395.926 420.106,395.926 403.708,407.839 409.97,427.121 393.573,415.204 377.173,427.121 383.435,407.839 367.038,395.926 387.307,395.926 "/>
  <polygon class="fil1" points="290.77,376.646 297.035,395.926 317.304,395.926 300.907,407.839 307.169,427.121 290.77,415.204 274.372,427.121 280.635,407.839 264.236,395.926 284.506,395.926 "/>
  <polygon class="fil1" points="187.971,376.646 194.237,395.926 214.505,395.926 198.107,407.839 204.37,427.121 187.971,415.204 171.574,427.121 177.836,407.839 161.438,395.926 181.707,395.926 "/>
  <polygon class="fil1" points="85.1705,376.646 91.435,395.926 111.705,395.926 95.3079,407.839 101.568,427.121 85.1705,415.204 68.772,427.121 75.0343,407.839 58.637,395.926 78.9071,395.926 "/>
 </g>
</svg>
