<?xml version="1.0" encoding="UTF-8"?>
<!DOCTYPE svg PUBLIC "-//W3C//DTD SVG 1.1//EN" "http://www.w3.org/Graphics/SVG/1.1/DTD/svg11.dtd">
<!-- Creator: CorelDRAW -->
<svg xmlns="http://www.w3.org/2000/svg" xml:space="preserve" width="1710px" height="900px" style="shape-rendering:geometricPrecision; text-rendering:geometricPrecision; image-rendering:optimizeQuality; fill-rule:evenodd; clip-rule:evenodd"
viewBox="0 0 1710 900"
 xmlns:xlink="http://www.w3.org/1999/xlink">
 <defs>
  <style type="text/css">
   <![CDATA[
    .fil2 {fill:#002868}
    .fil0 {fill:#BF0A30}
    .fil1 {fill:white}
   ]]>
  </style>
 </defs>
 <g id="Layer_x0020_1">
  <metadata id="CorelCorpID_0Corel-Layer"/>
  <polygon class="fil0" points="0.0011811,0 1710,0 1710,899.999 0.0011811,899.999 "/>
  <polygon class="fil1" points="-0.56811,761.538 1709.43,761.538 1709.43,830.769 -0.56811,830.769 "/>
  <polygon class="fil1" points="-0.56811,69.2315 1709.43,69.2315 1709.43,138.462 -0.56811,138.462 "/>
  <polygon class="fil1" points="-0.56811,207.692 1709.43,207.692 1709.43,276.924 -0.56811,276.924 "/>
  <polygon class="fil1" points="-0.56811,346.154 1709.43,346.154 1709.43,415.384 -0.56811,415.384 "/>
  <polygon class="fil1" points="-0.56811,484.616 1709.43,484.616 1709.43,553.846 -0.56811,553.846 "/>
  <polygon class="fil1" points="-0.56811,623.076 1709.43,623.076 1709.43,692.308 -0.56811,692.308 "/>
  <polygon class="fil2" points="0.284646,484.616 684.058,484.616 684.058,0.0011811 0.284646,0.0011811 "/>
  <g id="_302230520">
   <polygon id="_295829912" class="fil1" points="612.673,39.4937 618.937,58.7717 639.207,58.7717 622.808,70.6866 629.07,89.9693 612.673,78.052 596.274,89.9693 602.536,70.6866 586.137,58.7717 606.407,58.7717 "/>
   <polygon id="_295829984" class="fil1" points="612.673,394.646 618.937,413.926 639.207,413.926 622.808,425.839 629.07,445.123 612.673,433.204 596.274,445.123 602.536,425.839 586.137,413.926 606.407,413.926 "/>
   <polygon id="_295830056" class="fil1" points="522.506,39.4937 528.77,58.7717 549.039,58.7717 532.641,70.6866 538.903,89.9693 522.506,78.052 506.107,89.9693 512.369,70.6866 495.972,58.7717 516.24,58.7717 "/>
   <polygon id="_295830128" class="fil1" points="432.339,39.4937 438.602,58.7717 458.872,58.7717 442.473,70.6866 448.736,89.9693 432.339,78.052 415.939,89.9693 422.202,70.6866 405.804,58.7717 426.074,58.7717 "/>
   <polygon id="_295830200" class="fil1" points="342.171,39.4937 348.436,58.7717 368.705,58.7717 352.307,70.6866 358.57,89.9693 342.171,78.052 325.773,89.9693 332.035,70.6866 315.638,58.7717 335.907,58.7717 "/>
   <polygon id="_295830272" class="fil1" points="252.004,39.4937 258.268,58.7717 278.538,58.7717 262.141,70.6866 268.403,89.9693 252.004,78.052 235.606,89.9693 241.87,70.6866 225.47,58.7717 245.74,58.7717 "/>
   <polygon id="_293568448" class="fil1" points="161.837,39.4937 168.103,58.7717 188.37,58.7717 171.973,70.6866 178.235,89.9693 161.837,78.052 145.44,89.9693 151.702,70.6866 135.304,58.7717 155.572,58.7717 "/>
   <polygon id="_295819688" class="fil1" points="71.6693,39.4937 77.935,58.7717 98.2051,58.7717 81.8067,70.6866 88.0689,89.9693 71.6693,78.052 55.272,89.9693 61.5343,70.6866 45.1358,58.7717 65.4059,58.7717 "/>
   <polygon id="_302831920" class="fil1" points="567.588,217.071 573.853,236.349 594.123,236.349 577.724,248.264 583.988,267.546 567.588,255.628 551.191,267.546 557.453,248.264 541.055,236.349 561.325,236.349 "/>
   <polygon id="_295315704" class="fil1" points="477.422,217.071 483.687,236.349 503.955,236.349 487.558,248.264 493.82,267.546 477.422,255.628 461.024,267.546 467.287,248.264 450.887,236.349 471.157,236.349 "/>
   <polygon id="_301857664" class="fil1" points="387.254,217.071 393.52,236.349 413.79,236.349 397.39,248.264 403.654,267.546 387.254,255.628 370.857,267.546 377.119,248.264 360.72,236.349 380.991,236.349 "/>
   <polygon id="_253570568" class="fil1" points="297.089,217.071 303.352,236.349 323.622,236.349 307.224,248.264 313.486,267.546 297.089,255.628 280.69,267.546 286.952,248.264 270.553,236.349 290.823,236.349 "/>
   <polygon id="_253570544" class="fil1" points="206.921,217.071 213.185,236.349 233.456,236.349 217.056,248.264 223.318,267.546 206.921,255.628 190.522,267.546 196.785,248.264 180.387,236.349 200.655,236.349 "/>
   <polygon id="_96273672" class="fil1" points="116.754,217.071 123.018,236.349 143.288,236.349 126.889,248.264 133.152,267.546 116.754,255.628 100.355,267.546 106.618,248.264 90.2209,236.349 110.49,236.349 "/>
   <polygon id="_96273624" class="fil1" points="567.588,128.282 573.853,147.56 594.123,147.56 577.724,159.474 583.988,178.757 567.588,166.839 551.191,178.757 557.453,159.474 541.055,147.56 561.325,147.56 "/>
   <polygon id="_96273528" class="fil1" points="477.422,128.282 483.687,147.56 503.955,147.56 487.558,159.474 493.82,178.757 477.422,166.839 461.024,178.757 467.287,159.474 450.887,147.56 471.157,147.56 "/>
   <polygon id="_302216360" class="fil1" points="387.254,128.282 393.52,147.56 413.79,147.56 397.39,159.474 403.654,178.757 387.254,166.839 370.857,178.757 377.119,159.474 360.72,147.56 380.991,147.56 "/>
   <polygon id="_302216288" class="fil1" points="297.089,128.282 303.352,147.56 323.622,147.56 307.224,159.474 313.486,178.757 297.089,166.839 280.69,178.757 286.952,159.474 270.553,147.56 290.823,147.56 "/>
   <polygon id="_302216336" class="fil1" points="206.921,128.282 213.185,147.56 233.456,147.56 217.056,159.474 223.318,178.757 206.921,166.839 190.522,178.757 196.785,159.474 180.387,147.56 200.655,147.56 "/>
   <polygon id="_255434400" class="fil1" points="116.754,128.282 123.018,147.56 143.288,147.56 126.889,159.474 133.152,178.757 116.754,166.839 100.355,178.757 106.618,159.474 90.2209,147.56 110.49,147.56 "/>
   <polygon id="_255434352" class="fil1" points="567.588,305.859 573.853,325.139 594.123,325.139 577.724,337.051 583.988,356.335 567.588,344.418 551.191,356.335 557.453,337.051 541.055,325.139 561.325,325.139 "/>
   <polygon id="_255434376" class="fil1" points="477.422,305.859 483.687,325.139 503.955,325.139 487.558,337.051 493.82,356.335 477.422,344.418 461.024,356.335 467.287,337.051 450.887,325.139 471.157,325.139 "/>
   <polygon id="_301813680" class="fil1" points="387.254,305.859 393.52,325.139 413.79,325.139 397.39,337.051 403.654,356.335 387.254,344.418 370.857,356.335 377.119,337.051 360.72,325.139 380.991,325.139 "/>
   <polygon id="_301813512" class="fil1" points="297.089,305.859 303.352,325.139 323.622,325.139 307.224,337.051 313.486,356.335 297.089,344.418 280.69,356.335 286.952,337.051 270.553,325.139 290.823,325.139 "/>
   <polygon id="_301813608" class="fil1" points="206.921,305.859 213.185,325.139 233.456,325.139 217.056,337.051 223.318,356.335 206.921,344.418 190.522,356.335 196.785,337.051 180.387,325.139 200.655,325.139 "/>
   <polygon id="_301813824" class="fil1" points="116.754,305.859 123.018,325.139 143.288,325.139 126.889,337.051 133.152,356.335 116.754,344.418 100.355,356.335 106.618,337.051 90.2209,325.139 110.49,325.139 "/>
   <polygon id="_301813560" class="fil1" points="522.506,394.646 528.77,413.926 549.039,413.926 532.641,425.839 538.903,445.123 522.506,433.204 506.107,445.123 512.369,425.839 495.972,413.926 516.24,413.926 "/>
   <polygon id="_301813800" class="fil1" points="432.339,394.646 438.602,413.926 458.872,413.926 442.473,425.839 448.736,445.123 432.339,433.204 415.939,445.123 422.202,425.839 405.804,413.926 426.074,413.926 "/>
   <polygon id="_301813728" class="fil1" points="342.171,394.646 348.436,413.926 368.705,413.926 352.307,425.839 358.57,445.123 342.171,433.204 325.773,445.123 332.035,425.839 315.638,413.926 335.907,413.926 "/>
   <polygon id="_301813584" class="fil1" points="252.004,394.646 258.268,413.926 278.538,413.926 262.141,425.839 268.403,445.123 252.004,433.204 235.606,445.123 241.87,425.839 225.47,413.926 245.74,413.926 "/>
   <polygon id="_301813536" class="fil1" points="161.837,394.646 168.103,413.926 188.37,413.926 171.973,425.839 178.235,445.123 161.837,433.204 145.44,445.123 151.702,425.839 135.304,413.926 155.572,413.926 "/>
   <polygon id="_302230496" class="fil1" points="71.6693,394.646 77.935,413.926 98.2051,413.926 81.8067,425.839 88.0689,445.123 71.6693,433.204 55.272,445.123 61.5343,425.839 45.1358,413.926 65.4059,413.926 "/>
  </g>
 </g>
</svg>
